<?xml version="1.0" standalone="no"?>
<!DOCTYPE svg PUBLIC "-//W3C//DTD SVG 20010904//EN"
 "http://www.w3.org/TR/2001/REC-SVG-20010904/DTD/svg10.dtd">
<svg version="1.0" xmlns="http://www.w3.org/2000/svg"
 width="600.000000pt" height="600.000000pt" viewBox="0 0 600.000000 600.000000"
 preserveAspectRatio="xMidYMid meet">
<g transform="translate(0.000000,600.000000) scale(0.100000,-0.100000)"
fill="#000000" stroke="none">
<path d="M2340 5375 l0 -145 -115 0 c-114 0 -115 0 -110 -22 3 -13 27 -187 55
-388 47 -340 80 -576 194 -1400 25 -179 48 -345 51 -370 3 -25 7 -56 10 -70 3
-14 23 -158 45 -320 48 -354 41 -300 84 -605 19 -137 58 -414 86 -615 28 -201
55 -400 61 -442 9 -60 15 -78 28 -79 9 0 29 -2 45 -2 24 -2 31 -9 42 -39 7
-22 9 -38 3 -38 -5 0 -9 -4 -9 -10 0 -5 6 -10 13 -10 7 0 42 -105 91 -280 l80
-279 100 -3 101 -3 9 -42 c5 -24 13 -43 19 -43 9 0 8 8 -9 68 l-6 22 556 0
556 0 0 -70 0 -70 135 0 135 0 0 -30 0 -30 590 0 590 0 0 1095 0 1095 -375 0
-375 0 0 1590 0 1590 -115 0 -115 0 0 -50 0 -50 -535 0 -535 0 0 50 0 50 -70
0 -70 0 0 45 0 45 -620 0 -620 0 0 -145z m1220 95 l0 -40 -255 0 -255 0 0
-221 0 -220 83 2 82 2 3 -111 3 -112 219 0 220 0 0 160 0 160 94 0 94 0 51
-89 51 -89 0 -156 0 -156 260 0 261 0 -2 -120 c0 -66 -5 -120 -9 -120 -8 0
-85 20 -546 144 l-321 86 -181 0 -182 0 0 -595 0 -595 -90 0 -90 0 0 30 c0 17
-4 30 -10 30 -6 0 -10 -78 -10 -215 0 -137 4 -215 10 -215 6 0 10 42 10 105 0
91 2 105 17 105 9 0 13 3 10 7 -4 3 0 15 10 25 9 10 11 18 6 18 -6 0 -14 -7
-17 -16 -3 -8 -10 -12 -16 -9 -11 7 12 35 29 35 6 0 11 7 11 15 0 8 -7 15 -16
15 -8 0 -13 -4 -10 -9 3 -5 -1 -14 -9 -21 -13 -11 -15 -5 -15 39 l0 51 90 0
90 0 0 -230 0 -230 195 0 196 0 -1 -177 -2 -177 426 1 426 2 0 -240 0 -239
-70 0 -70 0 0 115 0 115 -357 0 -358 0 3 -435 2 -435 -50 0 -50 0 0 -225 0
-225 165 0 165 0 0 50 0 50 225 0 225 0 0 65 0 65 115 0 115 0 0 -65 0 -65
395 0 395 0 0 -80 0 -80 -415 0 -415 0 0 -40 0 -40 -85 0 -85 0 0 -295 0 -295
-559 0 c-524 0 -560 1 -565 18 -3 9 -35 125 -71 257 -36 132 -80 286 -97 343
l-31 102 -79 0 c-45 0 -78 -4 -78 -10 0 -6 31 -10 74 -10 l75 0 15 -55 c9 -30
19 -61 22 -70 5 -13 -7 -15 -89 -15 l-94 0 -13 45 -13 45 -48 0 c-45 0 -49 2
-49 25 0 13 -20 167 -45 342 -25 175 -45 321 -45 326 0 4 29 7 65 7 l65 0 0
-150 c0 -93 4 -150 10 -150 7 0 10 172 10 495 l0 495 115 0 115 0 0 -491 c0
-271 2 -494 5 -497 3 -3 5 220 5 496 l0 502 -245 0 c-135 0 -245 3 -245 7 0 5
-86 624 -93 672 -2 10 21 13 111 12 l112 -2 0 530 0 531 -79 0 c-78 0 -79 0
-84 28 -3 15 -27 186 -53 380 -26 193 -52 352 -57 352 -5 0 -6 -12 -3 -27 3
-16 15 -98 26 -183 11 -85 33 -244 48 -352 22 -156 25 -198 15 -198 -18 0 -17
-7 17 -230 16 -107 35 -230 41 -272 6 -43 15 -78 20 -78 5 0 7 10 4 23 -3 12
-21 130 -40 262 -19 132 -37 250 -40 263 -6 23 -5 23 82 20 l88 -3 3 -512 2
-513 -108 0 -109 0 -52 373 c-123 881 -163 1169 -201 1447 -23 162 -43 310
-47 328 l-5 32 106 0 106 0 0 -45 0 -45 105 0 105 0 0 150 0 150 -100 0 -100
0 0 40 0 40 605 0 605 0 0 -40z m150 -101 l0 -39 -65 1 -65 2 0 41 0 41 65 -3
65 -4 0 -39z m1290 11 l0 -40 -100 0 -100 0 0 40 0 40 100 0 100 0 0 -40z
m-2470 -105 l0 -136 -87 3 -88 3 -3 133 -3 132 91 0 90 0 0 -135z m1030 90 l0
-45 40 0 40 0 0 -270 0 -270 -205 0 -205 0 -2 233 c-1 127 -4 179 -5 115 l-4
-118 -79 0 -80 0 0 200 0 200 250 0 250 0 0 -45z m1440 -177 l0 -138 -375 0
-375 0 0 -220 0 -220 -146 0 -145 0 2 154 2 153 -52 92 -53 91 -99 0 -99 0 0
110 0 110 25 0 c23 0 25 -3 25 -50 l0 -50 545 0 545 0 0 53 0 52 100 0 100 0
0 -137z m-210 92 l0 -40 -535 0 -535 0 0 40 0 40 535 0 535 0 0 -40z m210
-455 l0 -215 -365 0 -365 0 0 215 0 215 365 0 365 0 0 -215z m0 -1045 l0 -820
-265 0 -265 0 0 -185 0 -185 -70 0 -70 0 0 120 0 120 -130 0 -130 0 0 94 0 93
288 77 c158 43 316 85 352 95 l65 18 0 533 0 534 -147 39 -148 40 0 123 0 124
260 0 260 0 0 -820z m-1183 734 c115 -30 368 -98 563 -150 195 -52 363 -97
373 -100 16 -5 17 -39 17 -524 0 -485 -1 -519 -17 -524 -10 -3 -246 -66 -525
-141 l-508 -135 -235 0 -235 0 0 815 0 815 180 0 180 0 207 -56z m233 -1594
l0 -90 -210 0 -210 0 0 50 0 50 63 1 c39 0 111 14 197 39 74 21 141 38 148 39
9 1 12 -23 12 -89z m652 -72 c2 -57 1 -118 -1 -135 l-3 -33 -109 0 -109 0 0
135 0 135 109 0 110 0 3 -102z m298 -203 l0 -305 -140 0 -140 0 0 305 0 305
140 0 140 0 0 -305z m-1140 60 l0 -115 -115 0 -115 0 0 115 0 115 115 0 115 0
0 -115z m223 -3 l2 -112 -102 0 -103 0 0 115 0 116 101 -3 100 -3 2 -113z
m237 3 l0 -115 -110 0 -110 0 0 115 0 115 110 0 110 0 0 -115z m380 -200 l0
-165 -109 0 -108 0 -1 165 -1 165 109 0 110 0 0 -165z m300 -290 l0 -115 -257
3 -258 2 -3 99 c-1 55 0 106 2 113 4 10 58 13 261 13 l255 0 0 -115z m-2240
-230 l0 -335 -67 0 -68 0 -44 323 c-24 177 -46 328 -49 335 -3 9 23 12 112 12
l116 0 0 -335z m1100 225 l0 -110 -115 0 -115 0 0 110 0 110 115 0 115 0 0
-110z m230 0 l0 -110 -105 0 -105 0 0 110 0 110 105 0 105 0 0 -110z m230 0
l0 -111 -110 2 -110 2 0 109 0 108 110 0 110 0 0 -110z m1440 -20 l0 -40 -370
0 -370 0 0 40 0 40 370 0 370 0 0 -40z m0 -560 l0 -510 -370 0 -370 0 0 510 0
510 370 0 370 0 0 -510z m-1440 290 l0 -170 -345 0 -345 0 0 170 0 170 345 0
345 0 0 -170z m680 -115 l0 -285 -335 0 -335 0 0 285 0 285 335 0 335 0 0
-285z m-1070 -205 l0 -140 -85 0 -85 0 0 60 0 60 -65 0 -65 0 0 80 0 80 150 0
150 0 0 -140z m85 5 c0 -133 0 -135 -22 -135 -22 0 -23 -3 -23 -110 0 -67 -4
-110 -10 -110 -6 0 -10 88 -10 245 l0 245 33 0 32 0 0 -135z m305 -110 c0
-238 -1 -245 -20 -245 -18 0 -20 -7 -20 -65 l0 -65 -55 0 -55 0 0 65 0 65 -90
0 -90 0 0 100 c0 93 1 100 20 100 19 0 20 7 20 145 l0 145 145 0 145 0 0 -245z
m-570 15 l0 -50 -60 0 -60 0 0 50 0 50 60 0 60 0 0 -50z m620 -135 c0 -118 -1
-125 -20 -125 -19 0 -20 7 -20 125 0 118 1 125 20 125 19 0 20 -7 20 -125z
m160 0 l0 -125 -75 0 -75 0 0 125 0 125 75 0 75 0 0 -125z m470 0 l0 -125
-165 0 -165 0 0 -65 0 -65 -65 0 -65 0 0 190 0 190 230 0 230 0 0 -125z
m-1070 28 l0 -43 -50 0 -50 0 0 -170 0 -170 -150 0 -150 0 0 208 c0 115 2 211
4 213 2 2 92 4 200 4 l196 0 0 -42z m0 -113 l0 -50 115 0 115 0 0 -60 0 -60
-155 0 -155 0 0 110 0 110 40 0 40 0 0 -50z m920 -110 l0 -60 -82 0 -83 0 3
60 4 60 79 0 79 0 0 -60z m150 0 l0 -60 -70 0 -70 0 0 60 0 60 70 0 70 0 0
-60z m760 -585 l0 -515 -142 0 -143 0 2 300 3 300 -215 0 -215 0 0 -115 0
-115 -70 0 -70 0 0 55 0 55 -205 0 -205 0 0 190 0 190 420 0 420 0 0 85 0 85
210 0 210 0 0 -515z m-1350 255 l-25 -8 28 -1 c15 -1 27 4 27 9 0 6 11 10 25
10 25 0 25 0 25 -95 l0 -95 -80 0 -80 0 0 95 0 95 53 -1 c41 -1 47 -3 27 -9z
m-1311 -257 c34 -126 68 -247 76 -270 l14 -43 -92 0 -93 0 -74 258 c-40 141
-75 263 -78 270 -3 9 19 12 90 12 l95 0 62 -227z m2361 -218 l0 -295 -425 0
-425 0 0 25 0 25 -140 0 -140 0 0 265 0 265 80 0 80 0 0 -55 0 -55 202 -2 203
-3 0 -55 0 -55 83 -3 82 -3 0 121 0 120 200 0 200 0 0 -295z"/>
<path d="M3030 4115 c0 -317 3 -485 10 -485 7 0 10 168 10 485 0 317 -3 485
-10 485 -7 0 -10 -168 -10 -485z"/>
<path d="M2304 4257 c-14 -31 7 -55 28 -30 11 15 11 16 -4 10 -10 -3 -18 -2
-18 3 0 6 7 10 15 10 8 0 15 7 15 15 0 23 -24 18 -36 -8z"/>
<path d="M2390 4236 c0 -19 -4 -23 -20 -19 -16 4 -20 0 -20 -21 0 -19 -5 -26
-20 -26 -16 0 -20 -7 -20 -30 l0 -31 68 3 67 3 3 49 c5 72 -4 96 -33 96 -20 0
-25 -5 -25 -24z m40 -46 l0 -60 -55 0 c-42 0 -55 3 -55 15 0 8 9 15 20 15 13
0 20 7 20 20 0 13 7 20 20 20 15 0 20 7 20 25 0 16 6 25 15 25 12 0 15 -13 15
-60z"/>
<path d="M2290 4205 c0 -8 7 -15 16 -15 14 0 14 3 4 15 -7 8 -14 15 -16 15 -2
0 -4 -7 -4 -15z"/>
<path d="M3150 3290 c0 -13 -7 -20 -20 -20 -15 0 -20 -7 -20 -25 0 -18 -5 -25
-20 -25 -16 0 -20 -7 -20 -30 l0 -31 68 3 67 3 3 73 3 72 -31 0 c-23 0 -30 -4
-30 -20z m40 -50 l0 -60 -55 0 c-42 0 -55 3 -55 15 0 8 9 15 20 15 13 0 20 7
20 19 0 13 8 21 23 23 14 2 23 11 25 26 7 46 22 20 22 -38z"/>
<path d="M2822 2240 c-17 -28 -15 -36 6 -17 10 10 22 14 25 10 4 -3 7 1 7 10
0 23 -23 21 -38 -3z"/>
<path d="M2917 2244 c-4 -4 -7 -16 -7 -26 0 -11 -7 -18 -20 -18 -14 0 -20 -7
-20 -24 0 -17 -5 -23 -17 -22 -13 1 -19 -7 -21 -26 l-3 -28 71 0 71 0 -3 73
c-3 64 -5 72 -23 75 -12 2 -24 0 -28 -4z m35 -74 l3 -60 -57 0 c-45 0 -58 3
-58 15 0 8 9 15 20 15 15 0 20 7 20 25 0 20 5 25 26 25 21 0 25 4 21 20 -3 13
0 20 8 20 9 0 14 -19 17 -60z"/>
<path d="M2826 2205 c-10 -7 -15 -18 -11 -24 10 -17 19 -13 32 14 13 28 7 31
-21 10z"/>
<path d="M3335 5180 c-3 -5 -2 -10 3 -10 6 0 8 -9 5 -20 -3 -11 0 -20 6 -20 6
0 11 14 11 30 0 29 -13 40 -25 20z"/>
<path d="M3394 5178 c-5 -8 -2 -9 10 -5 27 11 14 -16 -15 -30 -23 -12 -23 -13
11 -13 23 0 30 3 21 9 -9 6 -10 11 -2 15 16 10 14 36 -3 36 -8 0 -18 -5 -22
-12z"/>
<path d="M3440 5170 c0 -11 6 -20 13 -20 8 0 7 -4 -3 -11 -13 -9 -13 -10 0 -6
21 5 26 57 6 57 -9 0 -16 -9 -16 -20z"/>
<path d="M3496 5182 c-4 -6 -4 -17 0 -24 4 -7 3 -8 -4 -4 -7 4 -12 3 -12 -2 0
-12 28 -24 33 -14 2 4 1 18 -3 32 -4 17 -8 21 -14 12z"/>
<path d="M3286 5167 c3 -10 9 -15 12 -12 3 3 0 11 -7 18 -10 9 -11 8 -5 -6z"/>
<path d="M3313 5135 c0 -8 4 -12 9 -9 5 3 6 10 3 15 -9 13 -12 11 -12 -6z"/>
<path d="M3950 5181 c-36 -11 -93 -42 -87 -47 2 -2 24 5 48 16 54 24 138 26
182 4 18 -9 47 -30 64 -47 18 -17 35 -28 38 -25 11 10 -87 88 -124 98 -41 11
-85 12 -121 1z"/>
<path d="M4524 5154 c3 -9 6 -22 6 -30 0 -8 5 -14 10 -14 6 0 10 14 10 30 0
21 -5 30 -16 30 -11 0 -14 -5 -10 -16z"/>
<path d="M4580 5160 c0 -5 6 -7 13 -4 7 2 13 -3 14 -14 1 -15 -4 -18 -23 -16
-13 1 -24 -2 -24 -6 0 -5 12 -8 28 -7 21 2 28 8 30 30 3 22 -1 27 -17 27 -12
0 -21 -4 -21 -10z"/>
<path d="M4636 5153 c-4 -9 0 -23 9 -32 13 -14 15 -12 15 17 0 34 -14 43 -24
15z"/>
<path d="M4677 5163 c8 -3 11 -15 7 -31 l-5 -27 15 25 c21 34 20 40 -6 39 -13
0 -17 -3 -11 -6z"/>
<path d="M4225 5080 c-3 -6 1 -7 9 -4 18 7 21 14 7 14 -6 0 -13 -4 -16 -10z"/>
<path d="M4130 5068 c0 -2 11 -25 25 -52 17 -34 25 -66 25 -102 l0 -53 -82 -4
-83 -3 90 0 90 1 -2 61 c-1 59 -28 134 -53 149 -5 3 -10 5 -10 3z"/>
<path d="M4022 4800 c-17 -28 -15 -36 6 -17 10 10 22 14 25 10 4 -3 7 1 7 10
0 23 -23 21 -38 -3z"/>
<path d="M4117 4804 c-4 -4 -7 -16 -7 -26 0 -11 -7 -18 -20 -18 -13 0 -20 -7
-20 -20 0 -13 -7 -20 -20 -20 -16 0 -20 -7 -20 -30 l0 -30 70 0 71 0 -3 73
c-3 64 -5 72 -23 75 -12 2 -24 0 -28 -4z m38 -74 l0 -60 -57 0 c-44 0 -58 4
-58 14 0 8 10 16 23 18 14 2 22 10 22 23 0 13 8 21 23 23 14 2 22 10 22 23 0
10 6 19 13 19 8 0 12 -19 12 -60z"/>
<path d="M4026 4765 c-10 -7 -15 -18 -11 -24 10 -17 19 -13 32 14 13 28 7 31
-21 10z"/>
<path d="M4663 4867 c0 -7 9 -13 19 -13 10 0 18 1 18 3 0 1 -8 7 -18 12 -13 7
-19 6 -19 -2z"/>
<path d="M4683 4833 c-19 -7 -15 -33 5 -34 15 0 15 -1 -2 -8 -14 -5 -16 -10
-8 -15 7 -4 17 -4 22 -1 16 10 11 35 -7 36 -16 0 -16 1 1 8 21 8 10 21 -11 14z"/>
<path d="M4520 4820 c0 -5 4 -10 9 -10 5 0 7 -9 4 -20 -3 -11 0 -20 6 -20 6 0
11 14 11 30 0 20 -5 30 -15 30 -8 0 -15 -4 -15 -10z"/>
<path d="M4580 4820 c0 -5 6 -7 13 -4 7 2 13 -3 14 -14 1 -15 -4 -18 -23 -16
-13 1 -24 -2 -24 -6 0 -5 12 -8 28 -7 21 2 28 8 30 30 3 22 -1 27 -17 27 -12
0 -21 -4 -21 -10z"/>
<path d="M4636 4814 c-4 -9 -4 -19 -1 -22 3 -3 5 1 6 9 1 8 5 3 9 -11 8 -24 8
-23 9 8 1 34 -13 43 -23 16z"/>
<path d="M4499 4753 c-13 -16 -12 -17 4 -4 9 7 17 15 17 17 0 8 -8 3 -21 -13z"/>
<path d="M4683 4735 c0 -7 6 -11 14 -8 7 3 13 6 13 8 0 2 -6 5 -13 8 -8 3 -14
-1 -14 -8z"/>
<path d="M4705 3089 c-4 -6 -2 -16 4 -22 14 -14 15 -30 1 -22 -5 3 -10 1 -10
-4 0 -6 7 -11 15 -11 10 0 15 10 15 29 0 32 -14 48 -25 30z"/>
<path d="M4590 3080 c0 -5 5 -10 11 -10 6 0 9 -7 6 -15 -4 -8 -2 -17 3 -20 6
-4 10 7 10 24 0 21 -5 31 -15 31 -8 0 -15 -4 -15 -10z"/>
<path d="M4650 3080 c0 -6 7 -13 15 -16 24 -10 17 -22 -10 -19 -14 2 -25 -1
-25 -5 0 -5 12 -8 28 -7 21 2 28 8 30 30 3 22 -1 27 -17 27 -12 0 -21 -5 -21
-10z"/>
<path d="M4743 3063 c2 -17 8 -28 17 -28 9 0 15 11 17 28 1 20 -3 27 -17 27
-14 0 -18 -7 -17 -27z m27 -13 c0 -5 -4 -10 -10 -10 -5 0 -10 5 -10 10 0 6 5
10 10 10 6 0 10 -4 10 -10z"/>
<path d="M4363 2835 c0 -8 4 -12 9 -9 5 3 6 10 3 15 -9 13 -12 11 -12 -6z"/>
<path d="M4570 4266 c7 -7 14 -6 21 1 9 9 7 12 -9 10 -14 -1 -18 -5 -12 -11z"/>
<path d="M3854 3754 c3 -9 6 -23 6 -31 0 -26 15 -4 15 23 1 14 -5 24 -13 24
-9 0 -12 -6 -8 -16z"/>
<path d="M3910 3759 c0 -5 5 -7 10 -4 6 3 10 2 10 -4 0 -5 -4 -13 -10 -16 -18
-11 -11 -25 13 -24 12 0 16 3 10 6 -9 3 -10 10 -3 22 5 10 6 21 3 25 -10 10
-33 7 -33 -5z"/>
<path d="M3966 3743 c10 -40 14 -41 14 -5 0 18 -5 32 -10 32 -6 0 -8 -11 -4
-27z"/>
<path d="M3995 3760 c-10 -16 5 -50 21 -50 9 0 14 11 14 30 0 30 -21 42 -35
20z m22 -32 c-3 -7 -5 -2 -5 12 0 14 2 19 5 13 2 -7 2 -19 0 -25z"/>
<path d="M3944 2944 c-18 -14 -18 -15 4 -4 12 6 22 13 22 15 0 8 -5 6 -26 -11z"/>
<path d="M3969 2933 c-13 -16 -12 -17 4 -4 16 13 21 21 13 21 -2 0 -10 -8 -17
-17z"/>
<path d="M3776 2883 c10 -40 14 -41 14 -5 0 18 -5 32 -10 32 -6 0 -8 -11 -4
-27z"/>
<path d="M3830 2901 c0 -6 5 -13 10 -16 6 -3 10 -11 10 -16 0 -6 -4 -7 -10 -4
-5 3 -10 1 -10 -5 0 -6 7 -10 16 -8 8 2 15 6 15 11 -1 4 -1 16 -1 27 0 11 -7
20 -15 20 -8 0 -15 -4 -15 -9z"/>
<path d="M3875 2900 c-3 -5 -1 -10 5 -10 7 0 10 -7 7 -15 -4 -8 -2 -17 3 -20
6 -4 10 7 10 24 0 30 -13 41 -25 21z"/>
<path d="M3914 2895 c-8 -21 3 -48 19 -43 19 7 22 58 2 58 -8 0 -18 -7 -21
-15z m26 -17 c0 -16 -3 -19 -11 -11 -6 6 -8 16 -5 22 11 17 16 13 16 -11z"/>
<path d="M3986 2873 c-6 -14 -5 -15 5 -6 7 7 10 15 7 18 -3 3 -9 -2 -12 -12z"/>
<path d="M4518 2760 c2 -16 8 -30 13 -30 5 0 9 14 9 30 0 18 -5 30 -13 30 -9
0 -12 -10 -9 -30z"/>
<path d="M4570 2780 c0 -5 8 -14 18 -19 16 -10 16 -10 -2 -11 -15 0 -17 -3 -9
-11 16 -16 31 -4 31 26 0 18 -6 25 -19 25 -11 0 -19 -4 -19 -10z"/>
<path d="M4628 2760 c2 -16 6 -30 8 -30 2 0 4 14 4 30 0 17 -4 30 -8 30 -5 0
-7 -13 -4 -30z"/>
<path d="M4660 2775 c0 -8 7 -15 16 -15 8 0 12 -5 9 -10 -4 -6 -12 -7 -18 -4
-8 5 -8 3 1 -7 10 -10 14 -11 25 0 10 10 8 15 -6 26 -13 10 -15 14 -5 18 8 4
7 6 -4 6 -10 1 -18 -6 -18 -14z"/>
<path d="M4835 2631 c-3 -6 0 -11 8 -11 7 0 14 -7 14 -15 0 -9 -6 -14 -12 -11
-17 6 -40 -10 -26 -18 6 -4 11 -2 11 5 0 8 4 8 15 -1 12 -10 16 -9 21 3 13 34
-14 75 -31 48z"/>
<path d="M4885 2630 c-3 -5 -2 -10 3 -10 5 0 9 -7 9 -15 0 -8 -5 -15 -11 -15
-6 0 -5 -5 2 -12 16 -16 32 5 25 33 -7 24 -20 33 -28 19z"/>
<path d="M4930 2621 c0 -11 6 -22 13 -24 6 -3 3 -6 -7 -6 -15 -1 -17 -4 -9
-12 17 -17 32 -2 31 31 -1 33 -28 43 -28 11z"/>
<path d="M4776 2622 c7 -4 14 -16 17 -27 4 -15 5 -14 6 8 1 20 -4 27 -16 27
-12 0 -14 -3 -7 -8z"/>
<path d="M3681 2744 c-42 -54 -13 -118 54 -118 68 0 100 77 52 122 -33 31 -80
29 -106 -4z m98 -11 c45 -56 -24 -123 -83 -80 -39 29 -10 107 40 107 13 0 32
-12 43 -27z"/>
<path d="M3716 2724 c-9 -24 -7 -28 7 -15 10 8 17 7 27 -2 10 -10 12 -9 6 6
-3 10 -6 21 -6 23 0 12 -29 2 -34 -12z"/>
<path d="M3710 2683 c0 -20 25 -34 38 -21 16 16 15 33 -1 19 -10 -8 -17 -7
-25 1 -8 8 -12 8 -12 1z"/>
<path d="M3930 2750 c-25 -25 -26 -81 -2 -103 9 -8 29 -19 44 -22 22 -6 33 -1
58 23 36 37 38 65 5 97 -30 31 -77 33 -105 5z m88 -6 c26 -18 29 -60 5 -86
-23 -25 -68 -23 -87 4 -21 30 -20 54 4 78 24 24 48 25 78 4z"/>
<path d="M3959 2723 c-12 -15 -12 -16 5 -10 10 4 25 2 32 -4 17 -14 19 2 2 19
-16 16 -23 15 -39 -5z"/>
<path d="M3966 2669 c17 -19 19 -19 31 -3 7 10 10 20 7 23 -3 3 -9 -1 -13 -8
-6 -9 -11 -10 -15 -2 -4 6 -12 11 -18 11 -6 0 -3 -9 8 -21z"/>
<path d="M4161 2752 c-33 -26 -31 -79 3 -109 15 -12 36 -23 46 -23 10 0 31 11
46 23 53 46 23 127 -46 127 -15 0 -38 -8 -49 -18z m89 -12 c24 -24 26 -57 3
-82 -33 -37 -103 -11 -103 39 0 28 33 63 60 63 11 0 29 -9 40 -20z"/>
<path d="M4192 2728 c-17 -17 -15 -33 2 -19 7 6 22 8 32 4 17 -6 17 -5 5 10
-16 20 -23 21 -39 5z"/>
<path d="M4192 2670 c11 -18 14 -18 30 -3 10 9 16 19 13 22 -4 3 -10 -1 -14
-8 -6 -9 -11 -10 -15 -2 -4 6 -11 11 -17 11 -5 0 -4 -9 3 -20z"/>
<path d="M4564 2528 c-4 -7 -3 -8 4 -4 15 9 16 -6 1 -21 -17 -17 -1 -35 20
-23 12 6 22 5 29 -2 8 -8 14 -5 21 13 5 13 10 20 11 14 0 -5 5 -3 10 5 8 13
10 13 10 -2 0 -9 -6 -19 -12 -21 -8 -3 -6 -6 5 -6 11 -1 17 6 17 22 0 30 -10
40 -26 26 -8 -7 -14 -7 -19 1 -10 16 -21 12 -33 -15 -6 -14 -16 -25 -22 -25
-7 0 -4 7 4 16 16 15 13 34 -4 34 -5 0 -12 -5 -16 -12z m62 -35 c-11 -11 -19
6 -11 24 8 17 8 17 12 0 3 -10 2 -21 -1 -24z"/>
<path d="M4507 2505 c3 -14 9 -25 14 -25 12 0 5 43 -8 47 -6 2 -8 -7 -6 -22z"/>
<path d="M4675 2281 c3 -5 1 -12 -5 -16 -5 -3 -10 -10 -10 -16 0 -12 38 12 44
28 3 8 -3 13 -15 13 -11 0 -18 -4 -14 -9z"/>
<path d="M4760 2250 c0 -13 -7 -20 -20 -20 -11 0 -21 -4 -21 -10 -1 -5 -2 -16
-3 -22 0 -7 -11 -14 -23 -16 -17 -3 -23 -10 -23 -28 0 -23 3 -24 70 -24 l70 0
0 70 c0 68 -1 70 -25 70 -18 0 -25 -5 -25 -20z m40 -50 l0 -60 -55 0 c-42 0
-55 3 -55 15 0 8 9 15 20 15 15 0 20 7 20 25 0 18 5 25 20 25 13 0 20 7 20 20
0 11 7 20 15 20 12 0 15 -13 15 -60z"/>
<path d="M4677 2236 c-17 -13 -23 -36 -9 -36 8 0 35 40 30 45 -2 2 -11 -2 -21
-9z"/>
<path d="M3681 2264 c-42 -54 -13 -118 54 -118 68 0 100 77 52 122 -33 31 -80
29 -106 -4z m95 -9 c27 -27 26 -59 -4 -82 -58 -46 -127 32 -77 87 24 27 51 25
81 -5z"/>
<path d="M3716 2244 c-9 -24 -7 -28 7 -15 10 8 17 7 27 -2 10 -10 12 -9 6 6
-3 10 -6 21 -6 23 0 12 -29 2 -34 -12z"/>
<path d="M3710 2203 c0 -20 25 -34 38 -21 16 16 15 33 -1 19 -10 -8 -17 -7
-25 1 -8 8 -12 8 -12 1z"/>
<path d="M3936 2279 c-69 -54 6 -160 85 -118 48 25 44 105 -7 128 -35 16 -48
14 -78 -10z m86 -16 c24 -21 23 -58 -2 -83 -23 -23 -33 -24 -63 -9 -27 15 -37
28 -37 53 0 48 64 73 102 39z"/>
<path d="M3962 2250 c-7 -11 -8 -20 -3 -20 6 0 13 5 17 11 4 8 9 7 15 -2 4 -7
11 -10 15 -6 7 7 -13 37 -25 37 -3 0 -12 -9 -19 -20z"/>
<path d="M3950 2211 c0 -5 7 -14 15 -21 12 -10 18 -10 30 0 8 7 15 17 15 22 0
6 -7 4 -17 -3 -13 -11 -17 -11 -20 -1 -5 14 -23 17 -23 3z"/>
<path d="M4164 2277 c-53 -46 -23 -127 47 -127 68 0 95 80 43 128 -32 28 -56
28 -90 -1z m88 -14 c31 -28 22 -70 -19 -92 -30 -15 -40 -14 -63 9 -55 55 24
136 82 83z"/>
<path d="M4192 2250 c-7 -11 -8 -20 -3 -20 5 0 12 6 15 13 5 10 7 10 12 0 3
-7 10 -13 15 -13 5 0 4 9 -3 20 -7 11 -15 20 -18 20 -3 0 -11 -9 -18 -20z"/>
<path d="M4180 2212 c0 -5 7 -15 16 -22 12 -11 18 -10 31 3 9 9 13 20 9 24 -4
4 -11 1 -16 -7 -7 -11 -11 -11 -24 -1 -9 8 -16 9 -16 3z"/>
<path d="M5408 1662 c-32 -4 -36 -17 -11 -31 10 -5 15 -13 11 -17 -10 -10 -38
15 -38 33 0 13 -3 13 -15 3 -8 -7 -15 -20 -15 -29 0 -14 2 -14 10 -1 8 12 10
12 11 -5 0 -11 3 -14 6 -7 4 10 8 10 19 2 17 -15 34 -4 34 21 0 10 7 19 15 19
12 0 13 -4 5 -19 -15 -29 -12 -39 5 -17 29 38 15 55 -37 48z"/>
<path d="M5284 1644 c3 -9 6 -23 6 -32 0 -14 2 -14 9 -3 10 16 3 51 -11 51 -6
0 -7 -7 -4 -16z"/>
<path d="M5476 1612 c-2 -4 4 -8 14 -8 10 0 16 4 14 8 -3 4 -9 8 -14 8 -5 0
-11 -4 -14 -8z"/>
<path d="M4014 1992 c4 -3 14 -7 22 -8 9 -1 13 0 10 4 -4 3 -14 7 -22 8 -9 1
-13 0 -10 -4z"/>
<path d="M3861 1951 c-11 -7 -11 -9 0 -13 11 -4 12 -9 2 -26 -11 -18 -10 -20
2 -16 9 4 15 19 15 35 0 32 0 32 -19 20z"/>
<path d="M3935 1950 c-3 -5 -3 -15 1 -22 4 -6 3 -9 -2 -5 -5 3 -17 -1 -27 -8
-12 -8 -14 -15 -8 -20 6 -3 11 -1 11 6 0 6 8 9 20 6 17 -4 20 0 20 24 0 30 -5
36 -15 19z"/>
<path d="M3966 1951 c-4 -5 0 -11 6 -14 10 -3 10 -7 0 -19 -10 -13 -10 -17 2
-21 9 -4 18 -2 22 4 3 5 14 7 25 4 11 -4 19 -2 19 4 0 6 -5 11 -11 11 -8 0 -8
4 0 14 7 8 8 17 3 20 -5 3 -14 -6 -20 -19 -7 -14 -17 -25 -24 -25 -9 0 -9 3
-1 11 12 12 7 39 -7 39 -5 0 -11 -4 -14 -9z"/>
<path d="M3860 1859 c-12 -8 -10 -9 9 -4 17 5 22 4 16 -5 -5 -9 -4 -11 4 -6 6
4 9 12 6 17 -8 12 -16 11 -35 -2z"/>
<path d="M4000 1866 c0 -2 8 -10 18 -17 15 -13 16 -12 3 4 -13 16 -21 21 -21
13z"/>
<path d="M4044 1852 c4 -3 14 -7 22 -8 9 -1 13 0 10 4 -4 3 -14 7 -22 8 -9 1
-13 0 -10 -4z"/>
<path d="M4679 1793 c-12 -14 -12 -16 1 -11 11 4 16 -1 17 -13 1 -11 -2 -17
-8 -14 -5 4 -9 1 -9 -4 0 -6 7 -11 15 -11 10 0 15 10 15 29 0 36 -13 46 -31
24z"/>
<path d="M4616 1792 c7 -4 14 -18 17 -32 4 -21 4 -20 6 8 1 24 -3 32 -16 32
-12 0 -14 -3 -7 -8z"/>
<path d="M4722 1773 c4 -36 33 -39 33 -3 0 16 -6 26 -18 28 -15 3 -18 -2 -15
-25z m28 2 c0 -8 -4 -15 -10 -15 -5 0 -10 7 -10 15 0 8 5 15 10 15 6 0 10 -7
10 -15z"/>
<path d="M4778 1770 c2 -16 6 -30 8 -30 2 0 4 14 4 30 0 17 -4 30 -8 30 -5 0
-7 -13 -4 -30z"/>
<path d="M4660 1706 c0 -3 9 -10 20 -16 11 -6 20 -8 20 -6 0 3 -9 10 -20 16
-11 6 -20 8 -20 6z"/>
<path d="M3794 1679 c-5 -9 -2 -10 9 -6 11 4 15 0 14 -14 -1 -11 -7 -17 -14
-15 -7 3 -13 1 -13 -3 0 -16 31 -21 36 -6 13 33 -15 72 -32 44z"/>
<path d="M3856 1682 c-4 -6 -4 -17 0 -24 4 -7 3 -8 -4 -4 -7 4 -12 3 -12 -2 0
-12 28 -24 33 -14 2 4 1 18 -3 32 -4 17 -8 21 -14 12z"/>
<path d="M3698 1655 c2 -14 8 -25 13 -25 5 0 9 11 9 25 0 14 -6 25 -14 25 -9
0 -12 -8 -8 -25z"/>
<path d="M3759 1671 c8 -5 11 -16 8 -25 -4 -9 -2 -16 3 -16 6 0 10 11 10 25 0
17 -5 25 -17 25 -15 0 -15 -2 -4 -9z"/>
<path d="M4152 1675 c3 -3 16 -8 28 -10 12 -2 20 -1 16 2 -4 4 -16 8 -28 10
-12 2 -19 1 -16 -2z"/>
<path d="M4090 1658 c0 -4 9 -7 20 -5 29 5 33 13 5 13 -14 0 -25 -4 -25 -8z"/>
<path d="M4150 1625 c-10 -12 -9 -16 5 -21 19 -8 40 9 31 25 -10 15 -21 14
-36 -4z"/>
<path d="M4133 1555 c-9 -29 -9 -35 3 -35 8 0 14 -9 14 -20 0 -11 7 -20 15
-20 8 0 15 9 15 19 0 11 6 21 13 23 10 2 11 11 5 36 -7 24 -14 32 -32 32 -17
0 -25 -8 -33 -35z"/>
<path d="M4110 1456 c0 -2 7 -7 16 -10 8 -3 12 -2 9 4 -6 10 -25 14 -25 6z"/>
<path d="M4086 1407 c3 -10 9 -15 12 -12 3 3 0 11 -7 18 -10 9 -11 8 -5 -6z"/>
<path d="M4207 1374 c-13 -13 -7 -52 8 -58 17 -6 29 13 23 40 -3 19 -20 28
-31 18z m23 -29 c0 -8 -4 -15 -10 -15 -5 0 -10 7 -10 15 0 8 5 15 10 15 6 0
10 -7 10 -15z"/>
<path d="M4059 1361 c8 -5 11 -16 8 -25 -4 -9 -2 -16 3 -16 6 0 10 11 10 25 0
17 -5 25 -17 25 -15 0 -15 -2 -4 -9z"/>
<path d="M4113 1345 c-12 -14 -17 -27 -12 -31 5 -3 9 0 9 7 0 6 8 9 20 6 16
-4 20 0 20 19 0 30 -9 30 -37 -1z"/>
<path d="M4168 1345 c2 -14 8 -25 13 -25 5 0 9 11 9 25 0 14 -6 25 -14 25 -9
0 -12 -8 -8 -25z"/>
<path d="M4203 1276 c-3 -6 -3 -8 2 -4 4 4 13 3 20 -2 8 -7 12 -5 12 3 0 16
-25 18 -34 3z"/>
<path d="M4780 1471 c0 -6 4 -13 10 -16 6 -3 7 1 4 9 -7 18 -14 21 -14 7z"/>
<path d="M4633 1463 c-23 -8 -14 -33 12 -33 15 0 25 6 25 14 0 16 -19 25 -37
19z"/>
<path d="M4690 1466 c0 -2 8 -10 18 -17 15 -13 16 -12 3 4 -13 16 -21 21 -21
13z"/>
<path d="M4747 1448 c6 -7 13 -20 16 -28 3 -9 6 -3 6 13 1 19 -4 27 -15 27
-12 0 -14 -4 -7 -12z"/>
<path d="M4824 1444 c3 -8 2 -13 -3 -10 -11 7 -36 -22 -27 -31 3 -3 6 -1 6 6
0 8 8 11 20 8 16 -4 20 0 20 19 0 13 -5 24 -11 24 -6 0 -8 -7 -5 -16z"/>
<path d="M4850 1451 c0 -6 5 -13 10 -16 6 -3 10 -11 10 -16 0 -6 -5 -7 -12 -3
-7 4 -8 3 -4 -5 12 -18 35 6 29 29 -5 20 -33 29 -33 11z"/>
<path d="M4890 1450 c0 -5 8 -7 18 -3 16 6 16 5 0 -14 -24 -26 -23 -33 5 -33
16 0 18 3 8 9 -9 6 -10 11 -2 15 18 12 12 36 -9 36 -11 0 -20 -4 -20 -10z"/>
<path d="M4615 1412 c-9 -10 -5 -62 5 -62 6 0 10 -11 10 -25 0 -18 5 -25 19
-25 14 0 20 10 25 38 12 72 9 81 -24 80 -16 -1 -32 -3 -35 -6z m38 -37 c-3 -9
-8 -14 -10 -11 -3 3 -2 9 2 15 9 16 15 13 8 -4z"/>
<path d="M4754 1374 c3 -9 6 -22 6 -30 0 -8 5 -14 10 -14 6 0 10 14 10 30 0
21 -5 30 -16 30 -11 0 -14 -5 -10 -16z"/>
<path d="M4821 1373 c-11 -22 5 -38 39 -38 20 0 26 6 28 28 3 21 -1 27 -15 27
-10 0 -14 -4 -8 -8 6 -4 11 -15 13 -24 2 -16 0 -16 -22 -7 -14 7 -22 17 -19
25 7 20 -5 17 -16 -3z"/>
<path d="M4902 1363 c4 -36 33 -39 33 -3 0 16 -6 26 -18 28 -15 3 -18 -2 -15
-25z m15 -15 c-3 -7 -5 -2 -5 12 0 14 2 19 5 13 2 -7 2 -19 0 -25z"/>
<path d="M4790 1340 c0 -5 5 -10 11 -10 5 0 7 5 4 10 -3 6 -8 10 -11 10 -2 0
-4 -4 -4 -10z"/>
<path d="M4703 1315 c0 -8 4 -12 9 -9 5 3 6 10 3 15 -9 13 -12 11 -12 -6z"/>
<path d="M4726 1303 c-6 -14 -5 -15 5 -6 7 7 10 15 7 18 -3 3 -9 -2 -12 -12z"/>
<path d="M3604 1274 c-13 -5 -6 -54 7 -54 5 0 9 14 9 30 0 17 -1 30 -2 29 -2
0 -8 -3 -14 -5z"/>
<path d="M3694 1269 c-5 -9 -2 -10 9 -6 11 4 15 0 14 -14 -1 -10 -8 -19 -17
-19 -13 0 -13 -1 0 -10 19 -12 33 2 28 31 -3 26 -23 36 -34 18z"/>
<path d="M3746 1273 c-3 -4 -6 -17 -6 -30 0 -31 34 -28 38 3 3 21 -20 39 -32
27z m18 -28 c-4 -8 -8 -15 -10 -15 -2 0 -4 7 -4 15 0 8 4 15 10 15 5 0 7 -7 4
-15z"/>
<path d="M3659 1261 c8 -5 11 -16 8 -25 -4 -9 -2 -16 3 -16 6 0 10 11 10 25 0
17 -5 25 -17 25 -15 0 -15 -2 -4 -9z"/>
<path d="M3635 1220 c3 -5 8 -10 11 -10 2 0 4 5 4 10 0 6 -5 10 -11 10 -5 0
-7 -4 -4 -10z"/>
<path d="M3915 1200 c-3 -5 -2 -10 3 -10 6 0 8 -9 5 -20 -3 -11 0 -20 6 -20 6
0 11 14 11 30 0 29 -13 40 -25 20z"/>
<path d="M3986 1183 c10 -40 14 -41 14 -5 0 18 -5 32 -10 32 -6 0 -8 -11 -4
-27z"/>
<path d="M4020 1201 c0 -6 5 -13 10 -16 6 -3 10 -11 10 -16 0 -6 -4 -7 -10 -4
-5 3 -10 1 -10 -4 0 -6 7 -11 15 -11 10 0 15 10 15 30 0 20 -5 30 -15 30 -8 0
-15 -4 -15 -9z"/>
<path d="M4060 1200 c0 -5 7 -7 16 -3 15 5 15 3 -1 -20 -17 -27 -17 -27 6 -27
17 0 20 3 10 9 -9 6 -10 11 -2 15 18 12 12 36 -9 36 -11 0 -20 -4 -20 -10z"/>
<path d="M4530 896 c0 -2 8 -10 18 -17 15 -13 16 -12 3 4 -13 16 -21 21 -21
13z"/>
<path d="M4746 867 c3 -10 9 -15 12 -12 3 3 0 11 -7 18 -10 9 -11 8 -5 -6z"/>
<path d="M5080 870 c-9 -6 -10 -10 -3 -10 6 0 15 5 18 10 8 12 4 12 -15 0z"/>
<path d="M5169 863 c-13 -16 -12 -17 4 -4 9 7 17 15 17 17 0 8 -8 3 -21 -13z"/>
<path d="M4596 858 c3 -5 10 -6 15 -3 13 9 11 12 -6 12 -8 0 -12 -4 -9 -9z"/>
<path d="M5123 855 c0 -8 4 -12 9 -9 5 3 6 10 3 15 -9 13 -12 11 -12 -6z"/>
<path d="M4543 830 c-2 -23 13 -35 23 -19 5 8 3 9 -6 4 -10 -6 -12 -4 -7 8 3
9 3 18 -1 21 -4 3 -8 -4 -9 -14z"/>
<path d="M4613 833 c4 -3 0 -15 -10 -25 -19 -21 -6 -24 20 -4 22 17 22 36 0
36 -9 0 -13 -3 -10 -7z"/>
<path d="M5195 819 c-3 -9 -2 -26 3 -39 l9 -24 12 23 c11 19 10 26 -3 39 -13
14 -16 14 -21 1z m25 -13 c0 -3 -4 -8 -10 -11 -5 -3 -10 -1 -10 4 0 6 5 11 10
11 6 0 10 -2 10 -4z"/>
<path d="M4690 800 c0 -13 -7 -20 -20 -20 -15 0 -20 -7 -20 -25 0 -18 -5 -25
-20 -25 -16 0 -20 -7 -20 -30 l0 -30 70 0 70 0 0 75 0 75 -30 0 c-23 0 -30 -4
-30 -20z m45 -50 l0 -60 -57 0 c-44 0 -58 4 -58 14 0 8 10 16 23 18 14 2 21 9
19 20 -2 11 5 18 20 20 15 2 24 11 26 26 2 12 9 22 15 22 8 0 12 -21 12 -60z"/>
<path d="M5086 812 c7 -4 14 -18 17 -32 4 -21 4 -20 6 8 1 24 -3 32 -16 32
-12 0 -14 -3 -7 -8z"/>
<path d="M5164 804 c3 -8 2 -13 -2 -10 -4 2 -15 -2 -25 -9 -12 -8 -14 -15 -8
-20 6 -3 11 -1 11 6 0 6 8 9 20 6 16 -4 20 0 20 19 0 13 -5 24 -11 24 -6 0 -8
-7 -5 -16z"/>
<path d="M5241 801 c-8 -15 -7 -20 6 -25 21 -9 31 3 13 14 -10 7 -11 10 -2 10
6 0 12 5 12 10 0 17 -19 11 -29 -9z"/>
<path d="M4620 785 c-7 -8 -16 -12 -21 -9 -5 3 -9 -2 -9 -10 0 -9 8 -16 17
-16 9 0 13 3 10 7 -4 3 0 15 10 25 9 10 14 18 11 18 -3 0 -11 -7 -18 -15z"/>
<path d="M5236 733 c-6 -14 -5 -15 5 -6 7 7 10 15 7 18 -3 3 -9 -2 -12 -12z"/>
<path d="M4395 749 c-1 -65 1 -69 22 -69 26 0 31 18 8 26 -8 4 -15 10 -15 15
0 4 6 6 14 3 18 -7 31 15 17 29 -8 8 -11 6 -11 -8 0 -15 -2 -17 -9 -6 -7 11
-9 11 -14 0 -4 -10 -6 -8 -6 4 -1 11 8 21 19 24 11 3 20 10 20 15 0 6 -7 7
-16 4 -8 -3 -13 -2 -10 3 3 5 0 13 -7 19 -9 8 -12 -5 -12 -59z"/>
<path d="M4490 496 c7 -7 13 -7 20 0 6 6 3 10 -10 10 -13 0 -16 -4 -10 -10z"/>
<path d="M4526 493 c-6 -14 -5 -15 5 -6 7 7 10 15 7 18 -3 3 -9 -2 -12 -12z"/>
<path d="M4696 293 c10 -40 14 -41 14 -5 0 18 -5 32 -10 32 -6 0 -8 -11 -4
-27z"/>
<path d="M4753 306 c4 -10 7 -24 7 -32 0 -8 5 -14 11 -14 15 0 6 53 -10 58
-10 3 -12 0 -8 -12z"/>
<path d="M4795 310 c-3 -5 -1 -10 5 -10 7 0 10 -7 7 -15 -4 -8 -2 -17 3 -20 6
-4 10 7 10 24 0 30 -13 41 -25 21z"/>
<path d="M4840 305 c0 -8 5 -15 10 -15 6 0 10 -5 10 -11 0 -5 -4 -7 -10 -4 -5
3 -10 1 -10 -4 0 -6 7 -11 15 -11 8 0 15 9 15 20 0 11 -6 20 -12 20 -9 0 -8 4
2 10 13 8 12 10 -2 10 -10 0 -18 -7 -18 -15z"/>
<path d="M4643 295 c0 -8 4 -12 9 -9 5 3 6 10 3 15 -9 13 -12 11 -12 -6z"/>
<path d="M4646 262 c-3 -5 1 -9 9 -9 8 0 12 4 9 9 -3 4 -7 8 -9 8 -2 0 -6 -4
-9 -8z"/>
</g>
</svg>
