<?xml version="1.0" standalone="no"?>
<!DOCTYPE svg PUBLIC "-//W3C//DTD SVG 20010904//EN"
 "http://www.w3.org/TR/2001/REC-SVG-20010904/DTD/svg10.dtd">
<svg version="1.0" xmlns="http://www.w3.org/2000/svg"
 width="600.000000pt" height="600.000000pt" viewBox="0 0 600.000000 600.000000"
 preserveAspectRatio="xMidYMid meet">
<g transform="translate(0.000000,600.000000) scale(0.100000,-0.100000)"
fill="#000000" stroke="none">
<path d="M2370 5705 l0 -255 -176 0 -176 0 6 -27 c3 -16 53 -356 111 -758 58
-401 118 -818 134 -925 16 -107 28 -196 27 -196 0 -1 -473 -41 -1051 -89 -577
-48 -1051 -88 -1053 -90 -5 -5 19 -569 24 -574 3 -3 309 21 682 53 372 32 853
73 1067 91 215 18 392 32 393 30 4 -4 14 -80 77 -565 24 -190 60 -466 79 -615
20 -148 54 -412 76 -585 22 -173 49 -380 60 -460 45 -330 80 -595 80 -607 0
-11 291 -13 1520 -13 l1520 0 0 1035 0 1035 -355 0 -355 0 0 1630 0 1630
-1262 0 -1263 0 3 255 4 255 -86 0 -86 0 0 -255z m150 -7 l0 -248 -70 0 -70 0
0 248 0 247 70 0 70 0 0 -247z m690 -583 l0 -315 -540 0 c-297 0 -540 2 -540
3 0 2 -20 142 -45 310 -25 169 -45 309 -45 312 0 3 263 5 585 5 l585 0 0 -315z
m430 0 l0 -315 -210 0 -210 0 0 315 0 315 210 0 210 0 0 -315z m230 130 l0
-185 -110 0 -110 0 0 185 0 185 110 0 110 0 0 -185z m219 0 l2 -185 -106 0
-105 0 0 185 0 185 104 0 103 0 2 -185z m231 0 l0 -185 -110 0 -110 0 0 185 0
185 110 0 110 0 0 -185z m720 -220 l0 -405 -355 0 -355 0 0 405 0 405 355 0
355 0 0 -405z m-720 -190 l0 -215 -30 0 c-28 0 -30 -2 -30 -40 l0 -40 -140 0
-140 0 0 40 0 40 -400 0 -400 0 0 -825 0 -825 203 0 202 0 -3 -190 -3 -190
380 0 381 0 0 40 0 40 135 0 135 0 0 -40 0 -40 105 0 105 0 0 190 0 190 110 0
110 0 0 -295 0 -295 -285 0 -285 0 0 -125 0 -125 -65 0 -65 0 0 120 0 120
-379 0 -379 0 -1 -600 0 -600 114 0 115 0 0 65 0 65 150 0 150 0 0 -65 0 -65
115 0 115 0 0 105 0 105 80 0 80 0 0 -110 0 -110 280 0 280 0 0 160 0 160 123
0 122 0 -2 -353 -2 -352 -54 -3 -54 -3 5 -74 4 -75 -61 0 -61 0 0 185 0 185
-725 0 -725 0 0 -185 0 -185 -140 0 -140 0 0 430 0 430 -390 0 c-253 0 -390 4
-390 10 0 6 137 10 390 10 l390 0 0 380 0 380 -185 0 -185 0 0 48 c0 26 -1
492 -2 1037 l-3 990 -2 -987 -3 -987 -133 -3 -132 -3 3 318 c2 212 -1 317 -8
317 -7 0 -10 -107 -10 -317 l0 -318 -117 2 -118 2 -40 310 -39 311 -35 0 c-19
0 -380 -30 -801 -66 -421 -36 -886 -76 -1035 -88 -148 -13 -272 -21 -275 -19
-10 10 -25 546 -15 548 6 2 477 41 1048 88 571 47 1041 88 1045 91 4 5 -30
259 -72 540 -1 9 174 39 182 32 2 -3 23 -133 47 -291 23 -157 46 -289 49 -292
11 -12 5 42 -38 322 l-43 280 -29 -3 c-16 -1 -60 -7 -97 -13 -38 -6 -70 -9
-72 -8 -2 2 -25 156 -52 342 l-50 337 759 0 758 0 0 135 0 135 335 0 335 0 0
-215z m-360 -265 l0 -40 75 0 75 0 0 -770 0 -770 -457 0 -458 0 0 810 0 810
383 0 382 0 0 -40z m1080 -770 l0 -810 -455 0 -455 0 0 770 0 770 73 0 73 0
-3 40 -3 40 385 0 385 0 0 -810z m-715 -890 l0 -60 -362 0 -363 0 0 60 0 60
363 0 362 0 0 -60z m285 -80 l0 -140 -135 0 -135 0 0 140 0 140 135 0 135 0 0
-140z m200 -45 l0 -186 -92 3 -93 3 -3 183 -2 182 95 0 95 0 0 -185z m-975
-65 l0 -110 -117 0 -118 0 0 110 0 110 118 0 117 0 0 -110z m235 0 l0 -110
-110 0 -110 0 0 110 0 110 110 0 110 0 0 -110z m255 0 l0 -110 -120 0 -120 0
0 110 0 110 120 0 120 0 0 -110z m717 -475 l-3 -115 -280 0 -279 0 0 115 0
115 283 0 282 0 -3 -115z m-1207 10 l0 -95 -117 0 -118 0 0 95 0 95 118 0 117
0 0 -95z m242 0 l0 -95 -113 0 -114 0 0 95 0 95 114 0 113 0 0 -95z m248 0 l0
-95 -117 0 -118 0 0 95 0 95 118 0 117 0 0 -95z m-1355 35 l0 -50 179 0 180 0
3 -135 3 -135 -415 0 -416 0 -17 143 c-10 78 -21 161 -24 185 l-6 42 257 0
256 0 0 -50z m2790 -450 l0 -340 -360 0 -360 0 0 -55 0 -55 -180 0 -180 0 0
365 0 365 190 0 190 0 0 30 0 30 350 0 350 0 0 -340z m-1435 110 l0 -190 -362
0 -363 0 0 190 0 190 363 0 362 0 0 -190z m345 80 l0 -90 -165 0 -165 0 0 90
0 90 165 0 165 0 0 -90z m-1340 -295 l0 -225 -380 0 c-296 0 -381 3 -384 13
-2 6 -14 91 -26 187 -12 96 -24 192 -27 213 l-6 37 412 0 411 0 0 -225z m1340
-80 l0 -265 -165 0 -165 0 0 265 0 265 165 0 165 0 0 -265z m-710 -125 l0
-210 -85 0 -85 0 0 -65 0 -65 -95 0 -95 0 0 275 0 275 180 0 180 0 0 -210z
m363 -67 l-2 -278 -95 -3 -96 -3 0 181 0 180 -80 0 -80 0 0 100 0 100 178 0
177 0 -2 -277z m-213 -40 l0 -103 -70 0 -70 0 0 98 c0 54 2 101 4 103 3 2 34
4 70 4 l66 0 0 -102z m1650 -298 l0 -355 -220 0 -220 0 0 355 0 355 220 0 220
0 0 -355z m-2430 -96 l0 -441 -322 6 -323 5 -7 48 c-9 56 -108 808 -108 817 0
3 171 6 380 6 l380 0 0 -441z m1710 251 l0 -100 -260 0 -260 0 0 100 0 100
260 0 260 0 0 -100z m-750 -725 l0 -425 -322 0 -323 0 0 425 0 425 323 0 322
0 0 -425z m775 245 l0 -180 -377 0 -378 0 0 180 0 180 378 0 377 0 0 -180z
m695 -355 l0 -315 -275 0 -275 0 0 315 0 315 275 0 275 0 0 -315z m-567 -77
l2 -238 -442 0 -443 0 0 240 0 240 441 -2 441 -3 1 -237z m-1563 -3 l0 -235
-440 0 -440 0 -5 23 c-4 18 -55 409 -55 423 0 2 149 4 330 4 213 0 330 4 330
10 0 6 53 10 140 10 l140 0 0 -235z"/>
<path d="M2506 5332 c-7 -7 3 -22 15 -22 6 0 8 4 5 8 -3 5 8 9 24 9 23 0 27
-3 19 -13 -6 -7 -17 -10 -25 -7 -8 3 -14 0 -14 -6 0 -6 -7 -8 -17 -4 -10 4
-14 2 -10 -4 4 -6 39 -11 79 -12 45 0 68 2 59 8 -9 6 -10 11 -2 15 18 12 12
36 -9 36 -11 0 -20 -4 -20 -10 0 -5 7 -7 16 -3 14 5 14 3 4 -13 -7 -11 -24
-21 -38 -22 -20 -2 -23 1 -14 10 23 23 13 37 -28 36 -21 0 -41 -3 -44 -6z"/>
<path d="M2666 5324 c-9 -24 -7 -31 9 -38 11 -4 15 2 15 24 0 32 -14 40 -24
14z"/>
<path d="M2700 5325 c0 -8 7 -15 15 -15 8 0 15 -5 15 -11 0 -6 -7 -8 -17 -4
-14 5 -15 3 -6 -6 6 -6 16 -8 22 -5 17 11 13 36 -6 37 -15 0 -15 2 2 9 19 8
19 9 -2 9 -14 1 -23 -5 -23 -14z"/>
<path d="M2766 5293 c-6 -14 -5 -15 5 -6 7 7 10 15 7 18 -3 3 -9 -2 -12 -12z"/>
<path d="M3323 5322 c-16 -10 -11 -57 7 -57 8 0 16 8 18 18 2 9 -2 17 -10 17
-10 0 -10 2 1 9 7 5 9 11 4 14 -5 3 -14 3 -20 -1z m17 -42 c0 -5 -2 -10 -4
-10 -3 0 -8 5 -11 10 -3 6 -1 10 4 10 6 0 11 -4 11 -10z"/>
<path d="M3365 5320 c-3 -4 1 -10 7 -13 10 -3 10 -7 -1 -20 -7 -10 -10 -17 -5
-18 5 0 17 -2 27 -4 9 -2 17 1 17 6 0 5 -8 9 -17 9 -13 0 -14 3 -5 12 7 7 12
15 12 19 0 11 -29 19 -35 9z"/>
<path d="M3427 5324 c-13 -14 -7 -23 11 -17 16 6 16 5 -1 -14 -16 -19 -16 -21
-2 -27 9 -3 18 -6 20 -6 1 0 2 14 1 32 -1 31 -15 46 -29 32z"/>
<path d="M3473 5314 c-3 -9 0 -20 8 -25 11 -7 11 -9 1 -9 -7 0 -10 -5 -6 -11
4 -8 9 -8 17 0 7 7 14 7 23 0 7 -6 18 -8 24 -4 14 9 13 35 -2 35 -10 0 -9 3 1
9 7 5 9 11 4 14 -5 3 -15 1 -23 -4 -13 -8 -12 -12 4 -24 14 -11 16 -15 5 -15
-17 1 -58 30 -41 30 7 0 12 5 12 10 0 16 -20 12 -27 -6z"/>
<path d="M3475 5230 c-3 -6 1 -7 9 -4 18 7 21 14 7 14 -6 0 -13 -4 -16 -10z"/>
<path d="M3496 5212 c-3 -5 1 -9 9 -9 8 0 12 4 9 9 -3 4 -7 8 -9 8 -2 0 -6 -4
-9 -8z"/>
<path d="M3375 5109 c-10 -15 3 -25 16 -12 7 7 7 13 1 17 -6 3 -14 1 -17 -5z"/>
<path d="M3390 5085 c0 -3 5 -15 10 -25 7 -13 7 -21 0 -25 -5 -3 -10 -16 -9
-28 0 -18 3 -16 15 12 8 18 13 40 9 49 -5 13 -3 13 11 1 15 -12 17 -12 12 1
-4 14 -48 28 -48 15z"/>
<path d="M3483 5070 c-13 -19 -8 -30 14 -30 14 0 18 36 5 44 -4 2 -13 -4 -19
-14z"/>
<path d="M3420 5030 c0 -5 10 -10 23 -10 18 0 19 2 7 10 -19 13 -30 13 -30 0z"/>
<path d="M3470 5010 c0 -5 -9 -10 -20 -10 -11 0 -20 -4 -20 -10 0 -5 -9 -10
-20 -10 -11 0 -20 -4 -20 -10 0 -5 -9 -10 -20 -10 -11 0 -20 -7 -20 -15 0 -8
5 -15 10 -15 6 0 10 5 10 11 0 6 7 8 15 5 9 -3 18 1 21 9 4 8 15 15 25 15 10
0 19 5 19 11 0 6 7 9 15 5 8 -3 15 -1 15 5 0 5 10 14 23 19 21 8 21 9 -5 9
-16 1 -28 -3 -28 -9z"/>
<path d="M3292 4970 c0 -14 2 -19 5 -12 2 6 2 18 0 25 -3 6 -5 1 -5 -13z"/>
<path d="M3739 5346 c-3 -3 -3 -20 -1 -39 3 -28 7 -33 30 -32 24 0 27 4 26 35
0 36 -23 50 -31 20 -4 -13 -3 -13 6 0 7 11 10 7 9 -18 -1 -25 -4 -30 -14 -21
-8 6 -12 14 -10 18 5 9 -9 43 -15 37z"/>
<path d="M3693 5315 c0 -8 4 -12 9 -9 5 3 6 10 3 15 -9 13 -12 11 -12 -6z"/>
<path d="M3820 5310 c-9 -6 -10 -10 -3 -10 6 0 15 5 18 10 8 12 4 12 -15 0z"/>
<path d="M3777 5234 c5 -14 3 -15 -15 -5 -18 9 -22 9 -22 -2 0 -9 10 -14 25
-13 14 1 25 4 25 9 0 4 0 12 0 17 0 6 -4 10 -10 10 -5 0 -7 -7 -3 -16z"/>
<path d="M3780 5189 c0 -6 -10 -8 -22 -5 l-23 6 23 -11 c12 -7 22 -21 22 -32
0 -20 0 -21 -14 -1 -11 14 -17 16 -26 7 -18 -17 -4 -32 27 -30 24 2 27 7 29
40 2 20 -1 37 -7 37 -5 0 -9 -5 -9 -11z"/>
<path d="M3961 5296 c1 -28 4 -41 6 -28 4 19 7 21 19 11 19 -16 28 -5 31 36 2
31 0 34 -28 33 -28 -1 -29 -2 -28 -52z m44 14 c0 -32 -5 -36 -22 -19 -9 9 -9
16 0 30 17 27 22 24 22 -11z"/>
<path d="M4003 5237 c7 -18 -8 -24 -18 -7 -9 14 -25 12 -25 -3 0 -7 13 -14 30
-15 31 -2 42 19 18 34 -8 5 -9 2 -5 -9z"/>
<path d="M3960 5192 c0 -8 42 -32 55 -32 3 0 5 10 5 23 0 16 -3 18 -9 8 -7
-10 -13 -11 -30 -2 -11 7 -21 8 -21 3z"/>
<path d="M3963 5145 c-8 -23 5 -31 27 -17 14 9 20 9 23 -1 3 -7 6 -4 6 6 1 9
-6 17 -14 17 -8 0 -15 -4 -15 -10 0 -5 -5 -10 -11 -10 -6 0 -9 7 -5 15 3 8 3
15 0 15 -2 0 -7 -7 -11 -15z"/>
<path d="M4187 5353 c-9 -16 -7 -88 2 -74 6 9 11 10 15 2 16 -25 33 -10 33 29
0 43 -11 51 -34 23 -13 -17 -14 -16 -8 5 6 21 1 30 -8 15z m40 -42 c0 -26 -3
-29 -18 -20 -17 9 -17 11 -2 29 10 11 18 20 19 20 0 0 1 -13 1 -29z"/>
<path d="M4223 5237 c7 -18 -8 -24 -18 -7 -11 18 -25 11 -24 -12 0 -21 1 -21
8 -4 5 14 10 16 15 8 4 -7 14 -12 22 -12 17 0 19 26 2 36 -8 5 -9 2 -5 -9z"/>
<path d="M4230 5190 c0 -6 -12 -8 -27 -5 l-28 5 29 -13 c25 -13 26 -15 10 -22
-11 -5 -23 -7 -27 -6 -5 1 -7 -4 -5 -11 3 -7 15 -13 29 -13 20 0 24 5 26 38 2
20 1 37 -2 37 -3 0 -5 -5 -5 -10z m0 -50 c0 -5 -4 -10 -10 -10 -5 0 -10 5 -10
10 0 6 5 10 10 10 6 0 10 -4 10 -10z"/>
<path d="M4646 5103 c-6 -14 -5 -15 5 -6 7 7 10 15 7 18 -3 3 -9 -2 -12 -12z"/>
<path d="M4703 5105 c0 -8 4 -12 9 -9 5 3 6 10 3 15 -9 13 -12 11 -12 -6z"/>
<path d="M4747 5109 c7 -7 15 -10 18 -7 3 3 -2 9 -12 12 -14 6 -15 5 -6 -5z"/>
<path d="M4850 5115 c0 -2 6 -8 13 -14 10 -8 14 -7 14 2 0 8 -6 14 -14 14 -7
0 -13 -1 -13 -2z"/>
<path d="M4594 5099 c-5 -8 -3 -9 6 -4 7 4 16 2 22 -6 8 -12 9 -12 6 0 -6 20
-24 25 -34 10z"/>
<path d="M4590 5048 c0 -6 8 -17 18 -25 16 -14 16 -14 -1 -9 -11 3 -16 2 -12
-4 9 -15 35 -12 35 5 0 7 -7 18 -16 23 -13 7 -9 9 15 8 31 -1 40 -9 21 -21
-16 -10 -12 -25 8 -25 13 0 14 2 3 9 -9 6 -10 11 -2 15 25 16 10 34 -29 34
-22 1 -40 -4 -40 -10z"/>
<path d="M4700 5049 c0 -5 8 -6 18 -2 16 6 16 5 0 -14 -26 -29 -22 -34 20 -31
32 3 37 7 40 29 3 24 0 26 -37 26 -23 0 -41 -3 -41 -8z m49 -20 c-11 -11 -23
-19 -25 -16 -3 3 2 12 11 21 9 9 21 16 26 16 5 0 0 -9 -12 -21z m21 -9 c0 -5
-5 -10 -11 -10 -5 0 -7 5 -4 10 3 6 8 10 11 10 2 0 4 -4 4 -10z"/>
<path d="M4790 5045 c0 -8 5 -15 10 -15 6 0 10 -5 10 -11 0 -5 -4 -7 -10 -4
-5 3 -10 1 -10 -4 0 -15 27 -14 36 1 4 6 -1 17 -10 24 -16 12 -16 13 1 17 14
4 14 5 -4 6 -14 1 -23 -5 -23 -14z"/>
<path d="M4865 5051 c-3 -5 -2 -12 3 -15 5 -3 9 1 9 9 0 17 -3 19 -12 6z"/>
<path d="M4705 4969 c-3 -4 2 -6 10 -5 21 3 28 13 10 13 -9 0 -18 -4 -20 -8z"/>
<path d="M2275 4050 c4 -6 1 -17 -5 -25 -16 -19 -3 -19 16 -1 19 19 18 36 -2
36 -8 0 -12 -5 -9 -10z"/>
<path d="M2383 4052 c-17 -3 -23 -10 -23 -28 0 -18 -5 -24 -21 -24 -17 0 -20
-5 -16 -21 4 -15 0 -23 -14 -26 -13 -4 -19 -14 -19 -35 0 -32 -10 -31 105 -13
l35 6 -6 57 c-9 76 -15 88 -41 84z m18 -24 c0 -7 4 -34 8 -60 6 -35 5 -48 -4
-48 -7 0 -33 -3 -59 -6 -38 -6 -46 -4 -46 10 0 9 8 16 20 16 14 0 20 7 20 24
0 15 7 26 19 29 14 3 18 11 14 26 -4 15 -1 21 11 21 9 0 16 -6 17 -12z"/>
<path d="M2286 4004 c-3 -8 -10 -12 -16 -9 -5 3 -10 -1 -10 -9 0 -25 24 -19
37 9 6 14 8 25 3 25 -4 0 -11 -7 -14 -16z"/>
<path d="M2483 2593 c4 -3 0 -15 -10 -25 -19 -21 -6 -24 20 -4 22 17 22 36 0
36 -9 0 -13 -3 -10 -7z"/>
<path d="M2783 2593 c4 -3 0 -15 -10 -25 -19 -21 -6 -24 20 -4 22 17 22 36 0
36 -9 0 -13 -3 -10 -7z"/>
<path d="M2569 2570 c-1 -5 -2 -16 -3 -22 0 -7 -12 -14 -24 -16 -18 -3 -23 -8
-19 -23 4 -15 0 -19 -19 -19 -20 0 -24 -5 -24 -30 l0 -30 70 0 70 0 0 75 c0
73 -1 75 -25 75 -14 0 -26 -4 -26 -10z m36 -65 l0 -58 -52 -3 c-46 -2 -53 1
-53 17 0 12 7 19 20 19 13 0 20 7 20 20 0 13 7 20 20 20 15 0 20 7 20 26 0 16
5 24 13 22 8 -3 12 -25 12 -63z"/>
<path d="M2867 2573 c-4 -3 -7 -15 -7 -25 0 -11 -7 -18 -20 -18 -13 0 -20 -7
-20 -20 0 -13 -7 -20 -20 -20 -16 0 -20 -7 -20 -30 l0 -30 70 0 70 0 0 75 c0
72 -1 75 -23 75 -13 0 -27 -3 -30 -7z m38 -69 l0 -59 -55 0 c-42 0 -55 4 -55
15 0 8 10 16 23 18 14 2 22 10 22 23 0 12 7 19 20 19 15 0 20 7 20 26 0 16 5
24 13 22 8 -3 12 -25 12 -64z"/>
<path d="M2481 2541 c-17 -13 -20 -20 -12 -26 11 -6 40 20 41 38 0 10 -2 9
-29 -12z"/>
<path d="M2790 2545 c-7 -8 -16 -12 -21 -9 -5 3 -9 -2 -9 -10 0 -23 23 -20 38
5 16 25 10 36 -8 14z"/>
<path d="M3766 3828 c3 -4 9 -8 15 -8 5 0 9 4 9 8 0 5 -7 9 -15 9 -8 0 -12 -4
-9 -9z"/>
<path d="M3549 3798 c-1 -2 -3 -15 -5 -30 -2 -22 1 -28 17 -28 21 0 26 25 7
33 -10 4 -10 6 0 6 15 1 6 21 -9 21 -5 0 -10 -1 -10 -2z"/>
<path d="M3594 3789 c-4 -8 -3 -9 4 -5 16 10 15 -17 0 -32 -9 -9 -9 -12 3 -12
8 0 16 10 17 25 2 27 -13 42 -24 24z"/>
<path d="M3655 3790 c-3 -5 2 -10 11 -10 16 0 16 -1 -1 -20 -18 -19 -17 -20 6
-19 13 0 18 3 11 6 -10 4 -10 8 -2 19 12 13 6 34 -10 34 -5 0 -12 -4 -15 -10z"/>
<path d="M3745 3787 c-15 -38 9 -66 29 -35 8 14 7 21 -6 35 -16 15 -18 15 -23
0z m12 -29 c-3 -7 -5 -2 -5 12 0 14 2 19 5 13 2 -7 2 -19 0 -25z"/>
<path d="M3708 3765 c2 -14 6 -25 8 -25 2 0 4 11 4 25 0 14 -4 25 -9 25 -4 0
-6 -11 -3 -25z"/>
<path d="M3760 3713 c8 -3 24 -10 35 -15 20 -9 20 -9 1 6 -11 9 -27 16 -35 15
-14 0 -14 -1 -1 -6z"/>
<path d="M3820 3715 c0 -5 5 -17 10 -25 5 -8 10 -10 10 -5 0 6 -5 17 -10 25
-5 8 -10 11 -10 5z"/>
<path d="M4536 3812 c-3 -5 -17 -7 -31 -4 -27 5 -35 -15 -10 -24 8 -4 15 -11
15 -16 0 -6 -8 -7 -17 -3 -14 5 -15 3 -6 -6 14 -14 36 -2 29 16 -2 7 2 16 10
19 24 9 26 7 14 -13 -14 -27 -13 -31 8 -30 9 0 12 3 5 6 -10 3 -10 9 0 23 8
14 9 22 0 31 -6 6 -13 7 -17 1z"/>
<path d="M4595 3810 c-4 -6 -2 -17 4 -23 14 -14 15 -30 1 -22 -5 3 -10 1 -10
-4 0 -6 7 -11 15 -11 8 0 15 5 15 11 0 8 5 8 15 -1 11 -10 18 -10 29 -1 11 9
15 9 18 0 7 -21 28 0 28 28 0 20 -4 24 -20 20 -11 -3 -23 -1 -26 4 -3 5 -12 5
-23 -1 -12 -6 -22 -5 -28 1 -8 8 -13 7 -18 -1z m69 -19 c3 -5 0 -14 -8 -20
-10 -8 -16 -8 -25 3 -9 11 -9 15 1 19 20 8 26 8 32 -2z m36 -13 c0 -18 -2 -20
-9 -8 -6 8 -7 18 -5 22 9 14 14 9 14 -14z"/>
<path d="M4639 3703 c-13 -16 -12 -17 4 -4 16 13 21 21 13 21 -2 0 -10 -8 -17
-17z"/>
<path d="M4530 3706 c0 -2 7 -7 16 -10 8 -3 12 -2 9 4 -6 10 -25 14 -25 6z"/>
<path d="M3849 2948 c-1 -2 -3 -15 -5 -30 -2 -22 1 -28 17 -28 24 0 25 27 2
33 -17 4 -17 5 0 6 10 0 15 6 12 11 -6 9 -23 14 -26 8z"/>
<path d="M3890 2940 c0 -6 5 -8 10 -5 13 8 13 -1 0 -26 -8 -14 -7 -19 3 -19
18 0 17 52 0 58 -7 2 -13 -1 -13 -8z"/>
<path d="M3955 2940 c-3 -5 -1 -10 6 -10 10 0 10 -3 1 -12 -21 -21 -13 -27 28
-25 22 1 40 5 40 9 0 4 -5 8 -11 8 -8 0 -8 4 0 14 8 10 9 16 1 21 -5 3 -10 2
-10 -4 0 -13 -29 -41 -43 -41 -6 0 -3 6 8 13 10 8 15 19 11 25 -9 15 -23 15
-31 2z"/>
<path d="M4040 2929 c0 -11 5 -17 10 -14 6 3 10 1 10 -4 0 -6 -5 -11 -11 -11
-5 0 -7 -5 -4 -10 5 -8 11 -7 21 1 13 10 12 15 -3 32 -10 11 -12 17 -5 13 6
-4 12 -2 12 3 0 6 -7 11 -15 11 -8 0 -15 -9 -15 -21z"/>
<path d="M4445 2871 c-3 -5 0 -13 6 -17 8 -5 9 -3 4 6 -6 10 -4 12 9 7 10 -4
15 -3 11 3 -8 13 -22 13 -30 1z"/>
<path d="M4363 2837 c-3 -5 2 -16 11 -23 16 -12 16 -12 -1 -16 -10 -2 7 -4 37
-5 30 0 45 2 32 4 -19 4 -21 7 -11 19 6 8 9 18 5 22 -12 11 -66 11 -73 -1z
m56 -23 c-8 -10 -15 -11 -30 -1 -28 17 -23 24 11 19 24 -3 28 -7 19 -18z"/>
<path d="M4464 2839 c-5 -9 -2 -10 9 -6 18 7 24 -8 7 -18 -15 -9 -12 -25 4
-25 8 0 13 10 12 27 -1 29 -20 42 -32 22z"/>
<path d="M4514 2838 c-4 -7 -3 -8 4 -4 7 4 12 3 12 -3 0 -5 -4 -13 -10 -16
-15 -9 -12 -25 5 -25 10 0 15 10 15 30 0 30 -13 40 -26 18z"/>
<path d="M4557 2844 c-4 -4 -7 -18 -7 -31 0 -17 6 -23 21 -23 16 0 20 5 17 27
-3 26 -18 39 -31 27z m23 -29 c0 -8 -4 -15 -10 -15 -5 0 -10 7 -10 15 0 8 5
15 10 15 6 0 10 -7 10 -15z"/>
<path d="M3669 2771 c-34 -35 -36 -59 -8 -95 41 -53 129 -23 129 44 0 36 -39
80 -70 80 -12 0 -35 -13 -51 -29z m100 -23 c31 -54 -31 -109 -84 -74 -50 33
-21 110 39 104 21 -2 35 -12 45 -30z"/>
<path d="M3700 2755 c-7 -9 -9 -19 -5 -23 4 -4 10 -1 12 6 4 10 8 10 19 1 22
-18 27 -5 5 15 -16 15 -19 15 -31 1z"/>
<path d="M3705 2691 c13 -14 17 -14 30 0 14 14 13 16 -15 16 -28 0 -29 -2 -15
-16z"/>
<path d="M3912 2767 c-12 -13 -22 -36 -22 -51 0 -34 41 -76 75 -76 14 0 37 11
50 25 14 13 25 36 25 50 0 35 -42 75 -78 75 -17 0 -37 -9 -50 -23z m86 -3 c25
-17 31 -71 10 -92 -21 -21 -75 -15 -92 10 -22 31 -20 45 9 73 28 29 42 31 73
9z"/>
<path d="M3952 2748 c-16 -16 -15 -33 1 -19 10 8 17 7 25 -1 8 -8 12 -8 12 -1
0 20 -25 34 -38 21z"/>
<path d="M3940 2703 c0 -20 25 -34 38 -21 16 16 15 33 -1 19 -10 -8 -17 -7
-25 1 -8 8 -12 8 -12 1z"/>
<path d="M4143 2764 c-20 -20 -24 -31 -19 -57 4 -18 16 -40 29 -49 72 -56 161
48 94 110 -31 30 -72 28 -104 -4z m92 -9 c28 -27 30 -37 14 -66 -22 -42 -91
-40 -105 3 -9 30 5 68 29 78 33 13 36 12 62 -15z"/>
<path d="M4182 2748 c-17 -17 -15 -33 2 -19 10 8 16 9 21 1 12 -19 26 -11 15
10 -12 23 -21 25 -38 8z"/>
<path d="M4170 2701 c0 -5 7 -14 15 -21 13 -11 18 -10 29 6 17 23 12 31 -9 14
-10 -8 -15 -9 -15 -1 0 6 -4 11 -10 11 -5 0 -10 -4 -10 -9z"/>
<path d="M4820 2331 c0 -5 4 -11 9 -13 4 -1 11 -14 15 -28 5 -17 4 -21 -2 -11
-7 9 -12 10 -16 2 -4 -6 -2 -11 3 -11 6 0 12 -12 12 -27 1 -21 2 -23 6 -8 6
24 23 44 23 27 0 -7 9 -12 20 -12 11 0 20 -4 20 -10 0 -5 -7 -10 -15 -10 -8 0
-15 -4 -15 -10 0 -5 -9 -10 -20 -10 -11 0 -20 -4 -20 -10 0 -5 -9 -10 -20 -10
-11 0 -20 -7 -20 -16 0 -11 6 -14 23 -8 12 3 24 11 25 15 2 5 12 9 23 9 10 0
19 5 19 10 0 6 9 10 20 10 11 0 20 5 20 10 0 6 7 10 15 10 31 0 14 16 -27 26
-29 6 -43 16 -50 33 -8 21 -7 22 8 10 15 -12 17 -12 12 1 -2 8 -14 16 -26 18
-12 2 -22 8 -22 13 0 5 -4 9 -10 9 -5 0 -10 -4 -10 -9z"/>
<path d="M4703 2305 c0 -8 4 -12 9 -9 5 3 6 10 3 15 -9 13 -12 11 -12 -6z"/>
<path d="M4776 2307 c3 -10 9 -15 12 -12 3 3 0 11 -7 18 -10 9 -11 8 -5 -6z"/>
<path d="M4932 2303 c-16 -29 -15 -33 8 -33 22 0 23 4 11 35 -8 19 -8 19 -19
-2z"/>
<path d="M4520 2276 c-10 -13 -9 -17 4 -22 9 -3 16 -10 16 -15 0 -4 -7 -5 -17
-2 -10 4 -14 2 -9 -5 4 -6 33 -10 74 -9 65 2 67 3 69 30 1 22 -2 27 -20 26
-19 -1 -19 -2 -3 -6 15 -4 16 -7 5 -14 -10 -6 -10 -9 -1 -9 29 0 9 -15 -23
-16 -31 -1 -33 0 -24 19 13 23 -7 43 -26 27 -7 -6 -15 -6 -22 1 -7 7 -14 5
-23 -5z m59 -23 c-9 -11 -15 -11 -28 -1 -9 7 -17 13 -18 14 -2 0 10 1 27 1 24
0 27 -3 19 -14z"/>
<path d="M4673 2250 c2 -36 21 -34 25 3 2 19 -1 27 -12 27 -11 0 -15 -9 -13
-30z"/>
<path d="M4721 2266 c-11 -13 -10 -18 2 -30 18 -18 28 -2 18 27 -6 17 -8 17
-20 3z"/>
<path d="M4613 2185 c0 -7 6 -11 14 -8 7 3 13 6 13 8 0 2 -6 5 -13 8 -8 3 -14
-1 -14 -8z"/>
<path d="M3661 2304 c-29 -36 -26 -60 9 -96 25 -24 36 -29 58 -23 41 10 62 34
62 72 0 70 -86 101 -129 47z m99 -4 c11 -11 20 -29 20 -40 0 -26 -34 -60 -62
-60 -53 0 -79 74 -36 104 30 21 54 20 78 -4z"/>
<path d="M3702 2288 c-17 -17 -15 -33 2 -19 7 6 22 8 32 4 17 -6 17 -5 5 10
-16 20 -23 21 -39 5z"/>
<path d="M3700 2229 c11 -20 12 -20 31 -3 22 20 17 33 -6 14 -10 -8 -15 -9
-15 -1 0 6 -5 11 -10 11 -7 0 -7 -7 0 -21z"/>
<path d="M3915 2310 c-27 -29 -22 -80 10 -107 32 -28 55 -29 89 -2 33 26 36
79 6 109 -26 26 -81 26 -105 0z m95 -10 c24 -24 26 -57 3 -82 -33 -37 -103
-11 -103 39 0 28 33 63 60 63 11 0 29 -9 40 -20z"/>
<path d="M3952 2288 c-17 -17 -15 -33 2 -19 7 6 22 8 32 4 17 -6 17 -5 5 10
-16 20 -23 21 -39 5z"/>
<path d="M3952 2230 c11 -18 14 -18 30 -3 22 19 15 31 -7 13 -10 -8 -15 -9
-15 -1 0 6 -5 11 -10 11 -6 0 -5 -8 2 -20z"/>
<path d="M4170 2310 c-30 -30 -27 -83 6 -109 36 -28 60 -26 95 8 34 35 36 59
8 95 -26 33 -79 36 -109 6z m88 -6 c44 -31 17 -104 -39 -104 -30 0 -59 31 -59
62 0 23 35 58 58 58 10 0 28 -7 40 -16z"/>
<path d="M4199 2283 c-12 -15 -12 -16 5 -10 10 4 25 2 32 -4 17 -14 19 2 2 19
-16 16 -23 15 -39 -5z"/>
<path d="M4205 2230 c17 -19 19 -19 31 -2 7 9 10 19 8 22 -3 2 -9 -2 -13 -9
-6 -9 -11 -10 -15 -2 -4 6 -12 11 -18 11 -6 0 -3 -9 7 -20z"/>
<path d="M2746 2122 c-7 -7 3 -22 15 -22 6 0 8 4 5 8 -3 5 8 9 24 9 27 0 28
-1 13 -24 -15 -23 -15 -23 18 -22 31 1 32 2 9 8 -17 5 -21 9 -12 15 27 16 12
35 -28 34 -21 0 -41 -3 -44 -6z"/>
<path d="M2855 2120 c-3 -5 -2 -10 4 -10 5 0 12 -10 14 -22 3 -17 5 -14 6 10
1 31 -11 43 -24 22z"/>
<path d="M2912 2118 c-16 -16 -15 -35 3 -42 11 -4 15 2 15 24 0 34 -1 35 -18
18z"/>
<path d="M2944 2115 c-8 -19 2 -45 16 -45 16 0 26 33 12 38 -7 2 -10 8 -6 13
3 5 0 9 -6 9 -6 0 -13 -7 -16 -15z m26 -25 c0 -5 -4 -10 -10 -10 -5 0 -10 5
-10 10 0 6 5 10 10 10 6 0 10 -4 10 -10z"/>
<path d="M2770 2090 c0 -5 -8 -7 -17 -3 -14 5 -16 3 -6 -7 6 -7 19 -10 27 -7
18 7 22 27 6 27 -5 0 -10 -4 -10 -10z"/>
<path d="M2880 2033 c6 -13 15 -23 20 -23 15 0 21 18 9 26 -8 4 -9 3 -5 -4 11
-19 -5 -14 -21 6 -13 15 -13 15 -3 -5z"/>
<path d="M2945 2040 c-3 -6 1 -7 9 -4 18 7 21 14 7 14 -6 0 -13 -4 -16 -10z"/>
<path d="M5156 1912 c-3 -5 1 -9 9 -9 8 0 12 4 9 9 -3 4 -7 8 -9 8 -2 0 -6 -4
-9 -8z"/>
<path d="M5256 1912 c-3 -4 4 -9 15 -9 23 -2 25 3 4 10 -8 4 -16 3 -19 -1z"/>
<path d="M5110 1847 c0 -5 8 -16 18 -24 16 -13 15 -13 -7 -7 -14 4 -21 2 -17
-4 10 -16 102 -14 116 3 7 9 10 18 7 22 -4 3 -9 -2 -13 -11 -3 -9 -16 -16 -27
-16 -16 0 -18 3 -9 12 23 23 13 37 -28 36 -22 0 -40 -5 -40 -11z m57 -18 c-7
-12 -14 -14 -18 -7 -4 6 -12 14 -18 18 -7 3 1 7 18 7 25 0 28 -3 18 -18z"/>
<path d="M5234 1835 c4 -38 16 -43 16 -7 0 18 -4 32 -9 32 -5 0 -8 -11 -7 -25z"/>
<path d="M5260 1851 c0 -6 5 -13 10 -16 6 -3 10 -11 10 -16 0 -6 -4 -7 -10 -4
-5 3 -10 2 -10 -4 0 -5 17 -9 37 -7 27 1 39 7 41 19 2 9 -2 17 -10 17 -10 0
-9 3 2 10 13 8 12 10 -2 10 -10 0 -18 -7 -18 -15 0 -8 5 -15 10 -15 6 0 10 -4
10 -9 0 -5 -9 -7 -20 -4 -11 3 -20 14 -20 24 0 11 -7 19 -15 19 -8 0 -15 -4
-15 -9z"/>
<path d="M5052 1846 c4 -5 2 -16 -5 -25 -11 -14 -10 -15 7 -1 11 8 20 13 22
10 1 -3 6 0 11 5 4 6 4 7 -1 3 -5 -4 -16 -2 -25 4 -9 7 -13 8 -9 4z"/>
<path d="M5060 1780 c-9 -6 -10 -10 -3 -10 6 0 15 5 18 10 8 12 4 12 -15 0z"/>
<path d="M3778 1993 c6 -3 9 -9 6 -15 -4 -6 2 -5 15 1 27 15 27 16 -7 17 -15
1 -21 -1 -14 -3z"/>
<path d="M3834 1982 c-16 -11 -14 -50 2 -56 8 -3 18 1 21 11 4 10 1 19 -6 21
-10 3 -11 6 -1 12 7 4 8 10 3 13 -5 3 -13 3 -19 -1z"/>
<path d="M3875 1980 c-3 -4 1 -10 7 -13 10 -3 10 -7 -1 -20 -7 -10 -10 -17 -5
-18 5 0 17 -2 27 -4 9 -2 17 1 17 6 0 5 -8 9 -17 9 -13 0 -14 3 -5 12 7 7 12
15 12 19 0 11 -29 19 -35 9z"/>
<path d="M3995 1980 c-3 -5 -4 -14 -1 -18 2 -4 -7 -9 -21 -10 -22 -2 -24 0
-13 13 7 8 8 15 2 15 -14 0 -36 -29 -28 -37 3 -3 22 -7 41 -8 32 -1 35 2 35
27 0 29 -5 35 -15 18z"/>
<path d="M4025 1977 c-9 -21 -3 -49 12 -54 19 -7 27 37 9 55 -14 14 -16 14
-21 -1z m12 -29 c-3 -8 -6 -5 -6 6 -1 11 2 17 5 13 3 -3 4 -12 1 -19z"/>
<path d="M4395 2050 c-3 -6 1 -13 9 -16 9 -3 16 -11 16 -16 0 -6 -7 -7 -16 -4
-8 3 -12 2 -9 -4 14 -22 34 -10 33 20 -1 29 -20 41 -33 20z"/>
<path d="M4440 2049 c0 -5 5 -7 10 -4 6 3 10 2 10 -4 0 -5 -4 -13 -10 -16 -19
-12 -10 -25 18 -24 26 1 26 1 3 8 -21 6 -22 8 -7 20 8 7 13 17 10 22 -7 13
-34 11 -34 -2z"/>
<path d="M4517 2053 c-5 -7 -5 -18 -1 -25 4 -7 3 -8 -4 -4 -7 4 -12 2 -12 -3
0 -12 1 -12 45 -15 26 -1 30 3 33 27 2 19 -1 27 -12 27 -23 0 -28 -18 -9 -29
21 -11 13 -24 -10 -15 -9 3 -17 15 -19 27 -2 15 -5 18 -11 10z"/>
<path d="M4590 2030 c0 -24 4 -31 17 -28 11 2 17 12 17 28 0 16 -6 26 -17 28
-13 3 -17 -4 -17 -28z"/>
<path d="M3005 1889 c-4 -6 -4 -13 0 -17 4 -4 10 -1 12 6 3 6 10 9 15 6 7 -4
8 -2 4 4 -9 15 -23 15 -31 1z"/>
<path d="M3054 1888 c-4 -7 -3 -8 4 -4 16 10 15 -17 0 -32 -9 -9 -4 -12 23
-11 24 1 27 3 11 6 -18 4 -21 7 -12 18 12 14 6 35 -10 35 -5 0 -12 -5 -16 -12z"/>
<path d="M3115 1890 c-3 -5 -2 -10 4 -10 5 0 12 -10 14 -22 3 -17 5 -14 6 10
1 31 -11 43 -24 22z"/>
<path d="M3162 1876 c-9 -20 -8 -25 9 -29 16 -4 19 0 19 24 0 35 -13 38 -28 5z"/>
<path d="M3200 1886 c0 -8 8 -17 18 -21 16 -7 15 -8 -3 -15 -16 -7 -17 -9 -3
-9 25 -1 34 20 14 35 -16 12 -16 13 1 17 14 4 14 5 -4 6 -14 1 -23 -5 -23 -13z"/>
<path d="M3026 1858 c5 -8 2 -9 -9 -5 -10 3 -17 2 -17 -3 0 -6 9 -10 20 -10
11 0 20 7 20 15 0 8 -5 15 -11 15 -5 0 -7 -5 -3 -12z"/>
<path d="M3009 1788 c-1 -2 -3 -15 -5 -30 -2 -22 1 -28 17 -28 21 0 26 25 7
33 -10 4 -10 6 0 6 15 1 6 21 -9 21 -5 0 -10 -1 -10 -2z"/>
<path d="M3054 1778 c-4 -7 -3 -8 4 -4 7 4 12 1 12 -8 0 -8 -5 -18 -12 -22 -8
-5 -2 -11 17 -16 35 -9 47 -2 15 10 -15 6 -19 11 -12 16 7 4 12 11 12 16 0 13
-29 20 -36 8z"/>
<path d="M3167 1770 c-16 -23 -16 -25 0 -31 19 -7 27 8 21 39 -3 14 -6 13 -21
-8z"/>
<path d="M3204 1776 c-3 -9 -4 -20 0 -23 3 -4 6 -1 6 5 0 7 5 12 10 12 7 0 7
-6 0 -20 -6 -11 -7 -20 -1 -20 17 0 22 33 7 49 -14 13 -16 13 -22 -3z"/>
<path d="M3116 1772 c7 -4 14 -16 17 -27 4 -15 5 -14 6 8 1 20 -4 27 -16 27
-12 0 -14 -3 -7 -8z"/>
<path d="M3004 1669 c-3 -6 2 -17 12 -25 18 -14 18 -14 0 -7 -13 4 -17 3 -12
-5 10 -17 36 -15 36 3 0 7 -7 18 -16 23 -13 7 -9 9 15 8 31 -1 40 -9 21 -21
-21 -13 -9 -25 23 -24 23 1 26 3 10 6 -19 4 -21 8 -13 23 6 10 7 21 3 23 -16
9 -73 5 -79 -4z"/>
<path d="M3115 1670 c-3 -5 -2 -10 4 -10 5 0 12 -10 14 -22 3 -17 5 -14 6 10
1 31 -11 43 -24 22z"/>
<path d="M3154 1668 c-5 -7 -2 -9 7 -6 10 4 15 -1 15 -12 0 -11 -5 -16 -15
-12 -9 3 -12 1 -7 -6 14 -24 36 -13 36 18 0 31 -22 42 -36 18z"/>
<path d="M3200 1665 c0 -8 5 -15 10 -15 6 0 10 -5 10 -11 0 -5 -4 -7 -10 -4
-5 3 -10 1 -10 -4 0 -15 27 -14 36 1 4 6 -1 17 -10 24 -16 12 -16 13 1 17 14
4 14 5 -4 6 -14 1 -23 -5 -23 -14z"/>
<path d="M4406 1744 c-4 -10 -4 -15 -1 -12 4 4 18 3 31 -2 17 -7 23 -6 21 3
-1 7 4 11 11 9 8 -1 11 2 7 8 -4 6 -13 5 -26 -3 -16 -10 -21 -9 -28 1 -6 11
-10 10 -15 -4z"/>
<path d="M4559 1733 c-13 -16 -12 -17 4 -4 16 13 21 21 13 21 -2 0 -10 -8 -17
-17z"/>
<path d="M4399 1698 c-1 -2 -3 -15 -5 -30 -2 -22 1 -28 17 -28 24 0 25 18 2
37 -17 14 -17 14 0 9 9 -3 17 -1 17 4 0 9 -28 15 -31 8z"/>
<path d="M4440 1689 c0 -5 5 -7 10 -4 6 3 10 2 10 -4 0 -5 -4 -13 -10 -16 -19
-12 -10 -25 18 -24 15 1 20 3 11 6 -11 3 -15 12 -11 28 3 18 0 25 -12 25 -9 0
-16 -5 -16 -11z"/>
<path d="M4512 1679 c-16 -26 -13 -30 32 -36 33 -4 36 -3 36 21 0 30 -17 43
-33 26 -9 -10 -8 -12 6 -7 21 8 23 -9 1 -17 -22 -8 -22 -8 -26 14 -3 21 -3 21
-16 -1z"/>
<path d="M4599 1691 c10 -7 11 -13 2 -30 -7 -11 -8 -21 -3 -21 6 0 12 8 16 18
3 9 9 23 12 30 4 8 -3 12 -18 12 -17 0 -19 -3 -9 -9z"/>
<path d="M4493 1615 c0 -8 4 -12 9 -9 5 3 6 10 3 15 -9 13 -12 11 -12 -6z"/>
<path d="M3663 1672 c-16 -10 -11 -57 7 -57 8 0 16 8 18 18 2 9 -2 17 -10 17
-10 0 -10 2 1 9 7 5 9 11 4 14 -5 3 -14 3 -20 -1z m17 -42 c0 -5 -2 -10 -4
-10 -3 0 -8 5 -11 10 -3 6 -1 10 4 10 6 0 11 -4 11 -10z"/>
<path d="M3706 1673 c-10 -10 -7 -25 4 -18 6 3 10 2 10 -4 0 -5 -4 -13 -10
-16 -15 -9 -12 -22 5 -22 9 0 14 6 11 13 -3 8 -1 16 4 19 6 4 10 10 10 15 0
10 -26 20 -34 13z"/>
<path d="M3855 1667 c-9 -21 -3 -49 12 -54 19 -7 27 37 9 55 -14 14 -16 14
-21 -1z m12 -29 c-3 -8 -6 -5 -6 6 -1 11 2 17 5 13 3 -3 4 -12 1 -19z"/>
<path d="M3771 1651 c-8 -15 -7 -20 5 -25 22 -9 24 -8 24 10 0 9 -5 12 -12 8
-9 -5 -9 -2 1 9 8 11 9 17 3 17 -6 0 -16 -9 -21 -19z"/>
<path d="M3818 1640 c2 -16 6 -30 8 -30 2 0 4 14 4 30 0 17 -4 30 -8 30 -5 0
-7 -13 -4 -30z"/>
<path d="M3752 1567 c-14 -16 -6 -27 20 -27 13 0 18 6 16 17 -4 22 -22 27 -36
10z"/>
<path d="M3733 1495 c-9 -29 -9 -35 3 -35 8 0 14 -9 14 -20 0 -11 7 -20 15
-20 8 0 15 9 15 20 0 11 7 20 15 20 18 0 18 -1 4 39 -16 45 -52 43 -66 -4z"/>
<path d="M3730 1390 c-9 -6 -10 -10 -3 -10 6 0 15 5 18 10 8 12 4 12 -15 0z"/>
<path d="M4024 1672 c-13 -9 -15 -50 -2 -58 5 -3 15 -1 21 6 9 9 8 15 -6 25
-18 13 -18 13 0 17 10 2 14 6 8 10 -6 4 -15 4 -21 0z"/>
<path d="M4066 1671 c-4 -5 0 -11 6 -14 10 -4 11 -7 1 -18 -17 -17 -16 -29 0
-29 9 0 14 12 15 30 1 30 -12 48 -22 31z"/>
<path d="M4171 1671 c-11 -7 -10 -10 4 -12 17 -4 17 -5 2 -18 -15 -11 -18 -10
-25 9 -7 20 -9 20 -22 5 -12 -14 -12 -18 0 -25 8 -5 17 -7 21 -4 4 2 10 0 14
-6 8 -13 35 -13 35 1 0 5 -5 7 -11 3 -7 -4 -7 1 1 16 13 25 2 44 -19 31z"/>
<path d="M4211 1658 c-9 -24 4 -52 20 -42 12 7 11 51 -1 59 -6 3 -14 -4 -19
-17z m16 -20 c-3 -8 -6 -5 -6 6 -1 11 2 17 5 13 3 -3 4 -12 1 -19z"/>
<path d="M4214 1569 c-7 -12 15 -31 31 -26 6 2 11 11 13 20 4 19 -32 24 -44 6z"/>
<path d="M4205 1531 c-9 -9 -5 -61 5 -61 6 0 10 -11 10 -25 0 -18 5 -25 19
-25 15 0 20 10 26 51 4 27 4 53 1 56 -7 8 -55 11 -61 4z"/>
<path d="M4163 1455 c0 -8 4 -12 9 -9 5 3 6 10 3 15 -9 13 -12 11 -12 -6z"/>
<path d="M5375 1190 c-3 -5 0 -12 6 -16 8 -4 9 -3 5 4 -9 15 6 16 20 2 7 -7
11 -7 11 3 0 15 -34 21 -42 7z"/>
<path d="M5585 1191 c-3 -5 -2 -12 3 -15 5 -3 9 1 9 9 0 17 -3 19 -12 6z"/>
<path d="M5550 1148 c-32 -35 -29 -39 30 -42 26 -1 30 2 30 27 0 31 -16 36
-25 7 -3 -11 -11 -20 -16 -20 -13 0 -11 24 3 38 7 7 9 12 5 12 -3 0 -15 -10
-27 -22z"/>
<path d="M5425 1149 c-4 -6 -4 -13 0 -17 4 -4 10 -1 12 6 3 6 9 10 14 6 5 -3
9 0 9 5 0 14 -27 14 -35 0z"/>
<path d="M5470 1149 c0 -5 5 -7 10 -4 6 3 10 2 10 -4 0 -5 -4 -13 -10 -16 -19
-12 -10 -25 18 -24 17 1 21 3 9 6 -14 4 -16 8 -7 18 7 8 9 19 5 25 -8 13 -35
13 -35 -1z"/>
<path d="M5620 1145 c0 -8 5 -15 10 -15 6 0 10 -5 10 -11 0 -5 -4 -7 -10 -4
-5 3 -10 1 -10 -4 0 -15 27 -14 36 1 4 6 -1 17 -10 24 -16 12 -16 13 1 17 14
4 14 5 -4 6 -14 1 -23 -5 -23 -14z"/>
<path d="M5446 1118 c5 -8 2 -9 -9 -5 -10 3 -17 2 -17 -3 0 -6 9 -10 20 -10
11 0 20 7 20 15 0 8 -5 15 -11 15 -5 0 -7 -5 -3 -12z"/>
<path d="M5655 1070 c-10 -11 -16 -22 -14 -24 2 -2 12 7 22 20 22 29 17 32 -8
4z"/>
<path d="M5615 1069 c-4 -6 -13 -8 -19 -6 -7 3 -13 0 -13 -7 0 -14 31 -15 34
-2 1 5 7 13 15 17 9 6 9 9 1 9 -6 0 -15 -5 -18 -11z"/>
<path d="M5455 1049 c-3 -4 2 -6 10 -5 21 3 28 13 10 13 -9 0 -18 -4 -20 -8z"/>
<path d="M2626 1327 c3 -10 9 -15 12 -12 3 3 0 11 -7 18 -10 9 -11 8 -5 -6z"/>
<path d="M2802 930 c1 -26 3 -27 52 -28 36 0 44 2 26 7 -17 5 -21 9 -12 15 26
16 12 33 -27 33 -37 0 -40 -2 -39 -27z m68 10 c0 -20 -26 -26 -42 -10 -17 16
-16 17 12 17 17 0 30 -4 30 -7z"/>
<path d="M2916 933 c10 -40 14 -41 14 -5 0 18 -5 32 -10 32 -6 0 -8 -11 -4
-27z"/>
<path d="M2958 955 c-8 -8 3 -55 13 -55 5 0 9 14 9 30 0 28 -9 38 -22 25z"/>
<path d="M3000 945 c0 -8 5 -15 10 -15 6 0 10 -5 10 -11 0 -6 -7 -8 -16 -5 -8
3 -12 2 -9 -4 11 -18 35 -11 35 10 0 11 -6 20 -12 20 -9 0 -8 4 2 10 13 8 12
10 -2 10 -10 0 -18 -7 -18 -15z"/>
<path d="M4904 1332 c9 -15 -35 -33 -63 -25 -13 3 -21 1 -21 -6 0 -7 5 -9 10
-6 6 3 10 2 10 -4 0 -5 -4 -13 -10 -16 -22 -14 -8 -25 28 -22 30 2 37 6 38 25
1 12 7 28 13 36 9 11 9 16 0 22 -8 4 -9 3 -5 -4z m-35 -53 c-11 -11 -23 -19
-25 -16 -6 6 25 37 37 37 5 0 0 -9 -12 -21z m21 -9 c0 -5 -4 -10 -10 -10 -5 0
-10 5 -10 10 0 6 5 10 10 10 6 0 10 -4 10 -10z"/>
<path d="M4670 1297 c0 -5 8 -16 18 -24 16 -13 15 -13 -7 -7 -15 4 -21 2 -17
-4 4 -7 36 -10 76 -9 69 2 70 2 70 30 0 15 -5 27 -11 27 -6 0 -8 -9 -4 -22 5
-18 4 -19 -4 -8 -9 12 -11 12 -17 -3 -3 -9 -16 -17 -27 -17 -16 0 -18 3 -9 12
23 23 13 37 -28 36 -22 0 -40 -5 -40 -11z m58 -20 c-7 -15 -12 -16 -18 -7 -4
7 -13 16 -19 20 -7 3 2 7 18 7 27 0 29 -2 19 -20z"/>
<path d="M4921 1246 c-9 -10 -7 -17 6 -27 16 -12 17 -12 6 2 -10 12 -10 18 -1
27 7 7 9 12 6 12 -3 0 -11 -6 -17 -14z"/>
<path d="M4647 1227 c-3 -8 1 -14 8 -14 7 0 11 6 8 14 -3 7 -6 13 -8 13 -2 0
-5 -6 -8 -13z"/>
<path d="M3880 636 c0 -2 8 -10 18 -17 15 -13 16 -12 3 4 -13 16 -21 21 -21
13z"/>
<path d="M4053 625 c0 -8 4 -15 9 -15 4 0 8 4 8 9 0 6 -4 12 -8 15 -5 3 -9 -1
-9 -9z"/>
<path d="M3857 583 c-4 -3 1 -15 10 -26 17 -19 17 -20 0 -14 -11 4 -16 3 -12
-3 14 -22 34 -10 33 20 -1 28 -16 39 -31 23z"/>
<path d="M3900 579 c0 -5 5 -7 10 -4 6 3 10 2 10 -4 0 -5 -4 -13 -10 -16 -24
-15 -7 -26 33 -23 45 4 47 6 47 41 -1 21 -1 21 -18 -5 -19 -32 -59 -41 -43 -9
6 10 7 21 4 25 -10 10 -33 7 -33 -5z"/>
<path d="M4005 580 c-10 -16 5 -50 21 -50 9 0 14 11 14 30 0 30 -21 42 -35 20z
m25 -21 c0 -11 -4 -18 -10 -14 -5 3 -7 12 -3 20 7 21 13 19 13 -6z"/>
<path d="M4058 585 c-8 -8 3 -55 13 -55 5 0 6 12 3 28 -8 32 -9 34 -16 27z"/>
<path d="M4042 501 c-11 -7 -11 -9 0 -14 9 -3 15 1 15 9 0 8 -1 14 -1 14 -1 0
-7 -4 -14 -9z"/>
<path d="M4423 938 c-19 -25 -23 -37 -14 -42 5 -3 15 2 22 11 10 12 10 14 2 9
-16 -9 -17 6 -1 22 7 7 9 12 6 12 -3 0 -10 -6 -15 -12z"/>
<path d="M4457 894 c-8 -8 1 -24 14 -24 5 0 9 7 9 15 0 15 -12 20 -23 9z"/>
<path d="M4487 869 c-15 -9 -16 -13 -6 -25 9 -11 9 -18 1 -26 -15 -15 -16 -48
-2 -48 6 0 10 11 10 24 0 14 9 31 20 39 16 11 17 16 7 30 -9 12 -16 14 -30 6z"/>
<path d="M4805 870 c-3 -6 1 -7 10 -4 12 5 14 2 8 -12 -6 -16 -5 -17 9 -4 11
11 12 17 4 22 -15 10 -24 10 -31 -2z"/>
<path d="M4567 856 c-10 -27 -8 -36 7 -36 22 0 27 15 12 35 -12 17 -13 17 -19
1z"/>
<path d="M4460 829 c0 -5 5 -7 10 -4 6 3 10 8 10 11 0 2 -4 4 -10 4 -5 0 -10
-5 -10 -11z"/>
<path d="M4729 838 c-1 -2 -3 -15 -5 -30 -2 -22 1 -28 17 -28 24 0 25 27 2 33
-17 4 -17 5 0 6 10 0 15 6 12 11 -6 9 -23 14 -26 8z"/>
<path d="M4770 830 c0 -6 5 -8 10 -5 6 3 10 2 10 -4 0 -5 -4 -13 -10 -16 -15
-9 -12 -25 4 -25 17 0 16 52 -1 58 -7 2 -13 -1 -13 -8z"/>
<path d="M4846 832 c-4 -6 -4 -17 0 -24 4 -7 3 -8 -4 -4 -7 4 -12 3 -12 -2 0
-12 28 -24 33 -14 2 4 1 18 -3 32 -4 17 -8 21 -14 12z"/>
<path d="M4873 823 c-4 -9 -1 -19 5 -21 7 -2 10 -7 8 -11 -3 -4 11 -7 29 -7
32 1 35 4 35 31 l-1 30 -18 -22 c-18 -22 -19 -22 -24 -3 -6 24 -25 26 -34 3z"/>
<path d="M4510 809 c0 -5 9 -9 20 -9 11 0 20 -4 20 -10 0 -5 -9 -10 -20 -10
-11 0 -20 -4 -20 -10 0 -5 -9 -10 -20 -10 -11 0 -20 -5 -20 -11 0 -6 -7 -9
-15 -6 -19 8 -31 -11 -16 -26 8 -8 11 -8 11 1 0 7 9 12 20 12 11 0 20 5 20 10
0 6 9 10 20 10 11 0 20 5 20 10 0 6 9 10 20 10 11 0 20 5 20 11 0 6 7 9 15 5
9 -3 15 0 15 9 0 9 -6 12 -15 9 -8 -3 -28 -1 -45 4 -18 7 -30 7 -30 1z"/>
<path d="M4906 733 c-6 -14 -5 -15 5 -6 7 7 10 15 7 18 -3 3 -9 -2 -12 -12z"/>
<path d="M5426 441 c-4 -5 0 -11 6 -14 10 -4 11 -7 1 -18 -7 -7 -13 -17 -13
-21 0 -4 6 -8 13 -8 6 0 13 13 14 30 2 30 -11 48 -21 31z"/>
<path d="M5533 435 c-3 -10 0 -21 8 -26 11 -7 10 -9 -5 -9 -15 0 -17 -3 -9
-11 6 -6 16 -8 22 -5 15 10 14 36 -1 36 -10 0 -9 3 1 9 9 6 10 11 2 15 -6 4
-14 0 -18 -9z"/>
<path d="M5573 433 c-4 -9 -1 -19 5 -21 7 -2 12 -8 12 -13 0 -6 -4 -7 -10 -4
-5 3 -10 1 -10 -4 0 -16 27 -13 34 4 3 8 -2 19 -12 24 -10 6 -12 11 -4 11 14
0 17 20 2 20 -6 0 -14 -8 -17 -17z"/>
<path d="M5370 430 c0 -6 7 -13 15 -16 21 -9 19 -25 -2 -17 -14 5 -15 3 -6 -7
16 -17 31 -5 31 25 0 18 -6 25 -19 25 -11 0 -19 -5 -19 -10z"/>
<path d="M5491 426 c-11 -13 -10 -18 2 -30 18 -18 28 -2 18 27 -6 17 -8 17
-20 3z"/>
<path d="M5370 345 c0 -2 6 -8 13 -14 10 -8 14 -7 14 2 0 8 -6 14 -14 14 -7 0
-13 -1 -13 -2z"/>
<path d="M4734 452 c4 -3 14 -7 22 -8 9 -1 13 0 10 4 -4 3 -14 7 -22 8 -9 1
-13 0 -10 -4z"/>
<path d="M4635 409 c-4 -6 1 -17 11 -25 18 -15 18 -15 1 -10 -11 3 -16 2 -12
-4 8 -14 35 -13 35 1 0 7 -8 18 -17 26 -17 14 -17 14 0 9 9 -3 17 -1 17 4 0
13 -27 13 -35 -1z"/>
<path d="M4680 409 c0 -5 5 -7 10 -4 6 3 10 2 10 -4 0 -5 -4 -13 -10 -16 -19
-12 -10 -25 18 -24 16 1 20 3 10 6 -14 3 -16 9 -8 22 5 10 6 21 3 25 -10 10
-33 7 -33 -5z"/>
<path d="M4756 412 c-4 -6 -4 -17 0 -24 4 -7 3 -8 -4 -4 -7 4 -12 3 -12 -2 0
-12 28 -24 33 -14 2 4 1 18 -3 32 -4 17 -8 21 -14 12z"/>
<path d="M4791 402 c-11 -21 2 -48 18 -38 15 10 14 36 -1 36 -9 0 -8 4 2 10 9
6 10 10 3 10 -7 0 -17 -8 -22 -18z"/>
<path d="M4830 405 c0 -8 5 -15 10 -15 6 0 10 -5 10 -11 0 -5 -4 -7 -10 -4 -5
3 -10 1 -10 -4 0 -15 27 -14 36 1 4 6 -1 17 -10 24 -16 12 -16 13 1 17 14 4
14 5 -4 6 -14 1 -23 -5 -23 -14z"/>
<path d="M4565 390 c-7 -11 -8 -11 23 -14 13 -2 26 2 29 8 3 6 3 8 -2 4 -4 -4
-16 -3 -26 2 -12 7 -20 7 -24 0z"/>
<path d="M2960 396 c0 -2 7 -7 16 -10 8 -3 12 -2 9 4 -6 10 -25 14 -25 6z"/>
<path d="M3135 389 c-4 -6 -5 -12 -2 -15 2 -3 7 2 10 11 7 17 1 20 -8 4z"/>
<path d="M3166 389 c3 -5 9 -7 14 -4 4 3 11 0 13 -5 3 -6 4 -5 3 1 -1 7 -10
13 -19 15 -9 1 -15 -2 -11 -7z"/>
<path d="M3047 384 c-3 -3 -3 -12 0 -20 4 -11 9 -12 19 -3 8 6 11 15 8 20 -6
10 -18 12 -27 3z"/>
<path d="M3163 324 c-4 -10 -2 -19 5 -22 7 -2 12 -8 12 -13 0 -6 -6 -7 -12 -3
-10 6 -10 4 0 -7 10 -10 14 -11 25 0 10 10 8 15 -6 26 -13 9 -14 14 -6 17 10
3 10 6 1 12 -7 4 -15 0 -19 -10z"/>
<path d="M2960 320 c0 -6 7 -13 15 -16 8 -4 15 -11 15 -16 0 -6 -7 -7 -16 -4
-8 3 -12 2 -9 -4 14 -22 34 -10 33 20 -1 22 -6 30 -20 30 -10 0 -18 -5 -18
-10z"/>
<path d="M3010 319 c0 -5 5 -7 10 -4 6 3 10 2 10 -4 0 -5 -4 -13 -10 -16 -18
-11 -10 -25 15 -25 14 0 25 4 25 10 0 5 -7 7 -15 4 -17 -7 -21 11 -5 21 6 4 8
11 5 16 -8 12 -35 11 -35 -2z"/>
<path d="M3070 320 c0 -5 4 -10 10 -10 5 0 7 -6 4 -14 -3 -8 -1 -17 5 -21 7
-4 11 5 11 24 0 21 -5 31 -15 31 -8 0 -15 -4 -15 -10z"/>
<path d="M3114 315 c-8 -21 3 -48 19 -43 19 7 22 58 2 58 -8 0 -18 -7 -21 -15z
m26 -16 c0 -11 -4 -18 -10 -14 -5 3 -7 12 -3 20 7 21 13 19 13 -6z"/>
<path d="M3096 252 c-3 -5 1 -9 9 -9 8 0 12 4 9 9 -3 4 -7 8 -9 8 -2 0 -6 -4
-9 -8z"/>
</g>
</svg>
