<?xml version="1.0" encoding="UTF-8" standalone="no"?>
<!-- Created with Inkscape (http://www.inkscape.org/) -->

<!-- ***************************************************************************************************
DUE TO MISSING FLOOR PLANS WITH ROOM NUMBERS, THE ROOMS HAVE BEEN ID FROM 201-203 IN CHRONOLOGICAL ORDER
*****************************************************************************************************-->

<svg
   width="1024"
   height="1024"
   viewBox="0 0 1024 1024"
   id="svg2"
   version="1.1"
   inkscape:version="1.4.3 (0d15f75042, 2025-12-25)"
   sodipodi:docname="VE_1.svg"
   inkscape:export-filename="G:\SOEN 390 Floorplans\VL-2.png"
   inkscape:export-xdpi="90"
   inkscape:export-ydpi="90"
   xmlns:inkscape="http://www.inkscape.org/namespaces/inkscape"
   xmlns:sodipodi="http://sodipodi.sourceforge.net/DTD/sodipodi-0.dtd"
   xmlns="http://www.w3.org/2000/svg"
   xmlns:svg="http://www.w3.org/2000/svg"
   xmlns:rdf="http://www.w3.org/1999/02/22-rdf-syntax-ns#"
   xmlns:cc="http://creativecommons.org/ns#"
   xmlns:dc="http://purl.org/dc/elements/1.1/">
  <defs
     id="defs4">
    <clipPath
       id="clip5_1_300">
      <rect
         width="33"
         height="33"
         fill="#ffffff"
         transform="translate(701,259)"
         id="rect196"
         x="0"
         y="0" />
    </clipPath>
    <clipPath
       id="clip4_1_300">
      <rect
         width="7.0714302"
         height="7.0714302"
         fill="#ffffff"
         transform="translate(708.661,266.661)"
         id="rect195"
         x="0"
         y="0" />
    </clipPath>
  </defs>
  <sodipodi:namedview
     id="base"
     pagecolor="#ffffff"
     bordercolor="#666666"
     borderopacity="1.0"
     inkscape:pageopacity="0.0"
     inkscape:pageshadow="2"
     inkscape:zoom="1.1505246"
     inkscape:cx="797.46233"
     inkscape:cy="93.001057"
     inkscape:document-units="px"
     inkscape:current-layer="g4664"
     showgrid="false"
     inkscape:snap-page="false"
     units="px"
     inkscape:object-paths="true"
     inkscape:snap-intersection-paths="true"
     inkscape:object-nodes="true"
     inkscape:snap-bbox="false"
     inkscape:window-width="1600"
     inkscape:window-height="996"
     inkscape:window-x="0"
     inkscape:window-y="0"
     inkscape:window-maximized="1"
     inkscape:snap-nodes="true"
     inkscape:snap-others="false"
     inkscape:showpageshadow="2"
     inkscape:pagecheckerboard="0"
     inkscape:deskcolor="#d1d1d1" />
  <metadata
     id="metadata7">
    <rdf:RDF>
      <cc:Work
         rdf:about="">
        <dc:format>image/svg+xml</dc:format>
        <dc:type
           rdf:resource="http://purl.org/dc/dcmitype/StillImage" />
        <dc:title />
      </cc:Work>
    </rdf:RDF>
  </metadata>
  <g
     style="display:inline"
     inkscape:label="VE1 vec copy"
     id="g4664"
     inkscape:groupmode="layer">
    <path
       id="path4672"
       d="m 790.17773,42.214844 0,94.642576 -97.21289,0 0,32.04883 0,25.75781 14.64649,0 0,6.0625 33.83984,0 0,-31.82031 48.72656,0 0,1.00977 33.60157,0 0,-47.34375 6.5664,0 0,-80.357426 -6.5664,0 -33.60157,0 z"
       style="fill:#f7d6d6;fill-opacity:1;stroke:#000000;stroke-width:2;stroke-miterlimit:4;stroke-dasharray:none;stroke-opacity:1"
       inkscape:connector-curvature="0" />
    <rect
       y="168.90587"
       x="707.61188"
       height="31.819807"
       width="33.840092"
       id="rect4102"
       style="fill:#8f505b;fill-opacity:1;stroke:#000000;stroke-width:2;stroke-miterlimit:4;stroke-dasharray:none;stroke-opacity:1" />
    <text
       x="710.26294"
       y="195.53033"
       font-family="Arial"
       font-size="15px"
       fill="#000000"
       stroke-width="0"
       id="text1"
       style="font-style:normal;font-variant:normal;font-weight:normal;font-stretch:normal;font-size:17.3333px;line-height:0%;font-family:Arial;-inkscape-font-specification:'Arial, Normal';font-variant-ligatures:normal;font-variant-caps:normal;font-variant-numeric:normal;font-variant-east-asian:normal;fill:#ffffff">102</text>
    <path
       inkscape:connector-curvature="0"
       id="path4101"
       d="M 790.98014,44.14062 V 171.8418 h 33.60157 v -47.34375 h 6.5664 V 44.14062 h -6.5664 z"
       style="fill:#8f505b;fill-opacity:1;stroke:#000000;stroke-width:2;stroke-miterlimit:4;stroke-dasharray:none;stroke-opacity:1" />
    <text
       x="797.10785"
       y="94.986565"
       font-family="Arial"
       font-size="15px"
       fill="#000000"
       stroke-width="0"
       id="text2"
       style="font-style:normal;font-variant:normal;font-weight:normal;font-stretch:normal;font-size:17.3333px;line-height:0%;font-family:Arial;-inkscape-font-specification:'Arial, Normal';font-variant-ligatures:normal;font-variant-caps:normal;font-variant-numeric:normal;font-variant-east-asian:normal;fill:#ffffff">101</text>
    <rect
       y="168.90587"
       x="692.96466"
       height="25.758892"
       width="14.647231"
       id="rect4103"
       style="fill:#8f505b;fill-opacity:1;stroke:#000000;stroke-width:2;stroke-miterlimit:4;stroke-dasharray:none;stroke-opacity:1" />
    <text
       x="-194.30727"
       y="705.97461"
       font-family="Arial"
       font-size="8px"
       fill="#000000"
       stroke-width="0"
       id="text3"
       style="font-style:normal;font-variant:normal;font-weight:normal;font-stretch:normal;font-size:17.3333px;line-height:0%;font-family:Arial;-inkscape-font-specification:'Arial, Normal';font-variant-ligatures:normal;font-variant-caps:normal;font-variant-numeric:normal;font-variant-east-asian:normal;fill:#ffffff"
       transform="rotate(-90)">103</text>
    <rect
       x="692"
       y="138"
       height="5"
       width="100"
       style="fill:none;stroke:none"
       id="rect3" />
    <rect
       x="692"
       y="165"
       height="5"
       width="100"
       style="fill:none;stroke:none"
       id="rect4" />
    <!-- Displaying icons on the map -->
    <!-- Displaying stair icon on the map -->
    <svg
       x="690"
       y="150"
       id="entrance"
       version="1.1" />
    <!-- PATH ARROW HERE  -->
    <g
       clip-path="url(#clip4_1_300)"
       id="g184"
       transform="translate(5.8794782,-106.97889)">
      <path
         d="m 714.4,270.3 c -0.462,-1.203 -2.109,-1.267 -1.712,-3.015 0.03,-0.129 -0.109,-0.229 -0.221,-0.162 -1.069,0.631 -1.838,1.895 -1.193,3.551 0.053,0.135 -0.106,0.262 -0.221,0.174 -0.533,-0.404 -0.589,-0.985 -0.542,-1.4 0.018,-0.153 -0.183,-0.227 -0.268,-0.1 -0.2,0.306 -0.404,0.801 -0.404,1.547 0.112,1.65 1.506,2.157 2.007,2.221 0.716,0.092 1.491,-0.041 2.048,-0.551 0.612,-0.568 0.836,-1.476 0.506,-2.265 z m -2.734,1.482 c 0.424,-0.104 0.642,-0.41 0.701,-0.681 0.098,-0.421 -0.283,-0.834 -0.026,-1.5 0.097,0.551 0.963,0.896 0.963,1.497 0.024,0.745 -0.783,1.385 -1.638,0.684 z"
         fill="#000000"
         id="path184" />
    </g>
    <g
       clip-path="url(#clip5_1_300)"
       id="g185"
       transform="translate(5.8794782,-106.97889)">
      <path
         d="m 727.125,265.875 v 19.25 h -19.25 v -19.25 z m 0,-2.75 h -19.25 c -1.513,0 -2.75,1.237 -2.75,2.75 v 19.25 c 0,1.513 1.237,2.75 2.75,2.75 h 19.25 c 1.513,0 2.75,-1.237 2.75,-2.75 v -19.25 c 0,-1.513 -1.237,-2.75 -2.75,-2.75 z m -1.375,4.125 h -6.078 v 4.579 h -3.547 v 4.578 h -3.547 V 281 h -3.328 v 2.75 h 6.078 v -4.579 h 3.547 v -4.578 h 3.547 V 270 h 3.328 z"
         fill="#000000"
         id="path185" />
    </g>
  </g>
</svg>
