<?xml version="1.0" standalone="no"?>
<!DOCTYPE svg PUBLIC "-//W3C//DTD SVG 20010904//EN"
 "http://www.w3.org/TR/2001/REC-SVG-20010904/DTD/svg10.dtd">
<svg version="1.0" xmlns="http://www.w3.org/2000/svg"
 width="600.000000pt" height="600.000000pt" viewBox="0 0 600.000000 600.000000"
 preserveAspectRatio="xMidYMid meet">
<g transform="translate(0.000000,600.000000) scale(0.100000,-0.100000)"
fill="#000000" stroke="none">
<path d="M1210 5605 l0 -295 -55 0 -55 0 0 -160 0 -160 50 0 50 0 0 -465 0
-465 -55 0 -55 0 0 -150 0 -150 38 0 37 0 0 -215 0 -215 -135 0 -135 0 0 -161
0 -161 -150 -2 -150 -1 0 -163 0 -162 -142 0 -143 0 0 -180 0 -180 -65 0 c-64
0 -65 0 -66 -27 0 -16 0 -318 0 -673 l0 -645 83 -3 83 -3 -3 -189 -3 -190 -84
0 -85 0 0 -127 0 -128 960 0 960 -1 0 468 0 468 105 0 105 0 -4 -40 c-2 -23
-2 -50 1 -60 5 -20 23 -20 1354 -20 l1349 0 0 765 0 765 363 0 362 -1 2 126 2
125 -84 0 -85 0 0 510 0 510 -35 0 c-24 0 -35 5 -35 15 0 13 -30 15 -210 15
l-210 0 0 745 0 745 -55 0 -55 0 0 -90 0 -90 -45 0 -45 0 0 305 0 305 -1830 0
-1830 0 0 -295z m3650 -15 c0 -293 0 -300 -20 -300 -19 0 -20 -7 -20 -140 l0
-140 -245 0 -245 0 0 -90 0 -90 -90 0 c-83 0 -90 1 -90 20 0 17 -7 20 -47 20
l-48 0 3 160 3 160 289 0 290 0 0 285 0 285 -1615 0 -1615 0 0 -275 0 -275
-90 0 -90 0 0 340 0 340 1815 0 1815 0 0 -300z m-2669 -2 l-3 -158 56 0 56 0
0 -110 0 -110 -440 0 -440 0 0 268 0 268 388 0 387 -1 -4 -157z m294 117 c-1
-22 -2 -91 -3 -153 l-2 -112 -135 1 -135 1 0 154 0 154 138 -3 137 -2 0 -40z
m295 -110 l0 -155 -140 0 -140 0 0 153 0 152 140 3 140 2 0 -155z m298 2 l-3
-152 -137 -3 -138 -2 0 154 0 155 140 0 141 0 -3 -152z m282 -2 l0 -155 -135
0 -135 0 0 154 0 154 135 1 135 0 0 -154z m880 -122 l0 -273 -430 0 -430 0 0
273 0 273 430 -1 430 0 0 -272z m380 0 l0 -273 -180 0 -180 0 0 273 0 272 180
0 180 0 0 -272z m430 -763 l0 -740 215 0 c184 0 215 -2 215 -15 0 -10 11 -15
35 -15 l35 0 0 -515 0 -515 80 0 80 0 0 -110 0 -110 -530 0 -530 0 0 1070 0
1070 -155 0 -155 0 0 85 0 85 240 0 240 0 0 -620 0 -620 75 0 75 0 0 845 0
845 40 0 40 0 0 -740z m-2160 600 l0 -120 43 0 42 0 0 -75 0 -75 -682 0 -683
0 0 80 0 80 356 0 355 0 -3 115 -3 115 288 0 287 0 0 -120z m280 5 l0 -116
-132 3 -133 3 -2 113 -2 112 134 0 135 0 0 -115z m190 0 l0 -115 -90 0 -90 0
1 88 c0 75 2 83 12 57 l10 -30 13 30 13 30 1 -27 c0 -20 5 -28 18 -27 10 0 12
3 5 6 -7 2 -13 16 -13 29 0 15 -6 24 -15 24 -8 0 -15 -8 -15 -17 0 -15 -2 -14
-15 3 -8 10 -15 29 -15 42 0 21 3 22 90 22 l90 0 0 -115z m-2150 -169 l0 -144
-50 1 -50 0 0 144 0 143 50 0 50 0 0 -144z m3748 -5 l3 -131 -63 0 -63 0 0
130 c0 144 -4 136 74 134 l46 -1 3 -132z m-3358 -21 l0 -80 -90 0 -90 0 0 -65
0 -65 -105 0 -105 0 0 40 c0 22 5 40 10 40 6 0 10 42 10 105 l0 105 185 0 185
0 0 -80z m2440 -10 l0 -80 -140 0 -140 0 0 -500 0 -500 340 0 340 0 0 -85 0
-85 -45 0 -45 0 0 -296 0 -296 55 4 55 3 0 -292 0 -293 -100 0 -100 0 0 -285
0 -285 -390 0 -390 0 0 -475 0 -475 -585 0 -585 0 0 60 0 60 -115 0 -115 0 0
-115 0 -115 -170 0 -170 0 0 -355 0 -355 -780 0 -780 0 0 115 0 115 90 0 90 0
0 195 0 195 90 0 90 0 0 665 0 665 445 0 445 0 0 495 0 495 740 0 740 0 0 290
0 290 -850 0 -850 0 0 510 0 510 105 0 105 0 0 -435 0 -435 885 0 885 0 0 25
0 25 140 0 140 0 0 450 0 450 -140 0 -140 0 0 35 0 35 -100 0 -100 0 0 75 0
75 525 0 525 0 0 -80z m-2170 -225 l0 -135 -220 0 -220 0 0 135 0 135 220 0
220 0 0 -135z m440 -357 l0 -493 -440 0 -440 0 0 348 0 347 225 0 225 0 0 145
0 145 215 0 215 0 0 -492z m868 2 l-3 -490 -428 -3 -427 -2 0 493 0 492 430 0
431 0 -3 -490z m862 410 l0 -70 -135 0 -135 0 0 70 0 70 135 0 135 0 0 -70z
m920 25 l0 -35 -65 0 -64 0 1 35 1 35 64 0 63 0 0 -35z m-1510 -440 l0 -435
-130 0 -130 0 0 435 0 435 130 0 130 0 0 -435z m1510 10 l0 -385 -62 0 -63 0
2 382 c2 211 3 384 3 386 0 1 27 2 60 2 l60 0 0 -385z m-820 120 l0 -200 -130
0 -130 0 0 63 0 62 -55 0 -55 0 0 135 0 134 138 3 c75 2 158 3 185 3 l47 0 0
-200z m500 -20 l0 -185 -242 0 -243 0 2 182 c1 101 2 184 2 186 1 1 109 2 241
2 l240 0 0 -185z m-772 -177 l-3 -102 -47 -3 -48 -4 0 106 0 105 50 0 51 0 -3
-102z m272 -215 l0 -198 -185 3 -185 3 0 144 0 145 55 0 55 0 0 50 0 50 130 0
130 0 0 -197z m500 -5 l0 -193 -242 2 -241 2 -1 191 -1 190 243 0 242 0 0
-192z m320 -148 l0 -40 -64 0 -65 0 1 40 0 40 64 0 64 0 0 -40z m-3760 -200
c0 -93 -4 -150 -10 -150 -5 0 -10 7 -10 15 0 11 -11 15 -40 15 l-40 0 0 135 0
135 50 0 50 0 0 -150z m3440 55 l0 -85 -95 0 -95 0 0 85 0 85 95 0 95 0 0 -85z
m318 -42 l-3 -127 -59 -1 -60 0 0 127 -1 128 63 0 63 0 -3 -127z m-3538 -105
l0 -58 -105 0 -105 0 0 58 0 57 105 0 105 0 0 -57z m304 -22 c2 -42 0 -76 -5
-76 -5 0 -9 12 -9 26 0 15 -4 23 -10 19 -6 -4 -8 -16 -5 -28 5 -17 4 -19 -4
-7 -9 12 -11 12 -17 -3 -3 -9 -13 -17 -22 -17 -13 0 -12 3 3 20 14 15 16 23 7
32 -13 13 -42 4 -42 -13 0 -8 4 -8 15 1 22 18 20 -8 -2 -32 -17 -19 -16 -19
37 -14 l55 5 0 -49 0 -50 -147 0 -148 0 1 78 c1 68 2 73 11 45 12 -37 23 -42
31 -15 2 9 8 25 12 35 4 10 3 17 -4 17 -6 0 -11 -9 -11 -20 0 -11 -3 -20 -7
-20 -15 0 -33 55 -33 99 l0 46 145 -2 146 -1 3 -76z m1166 -193 l0 -273 -575
-2 -575 -3 0 275 0 275 575 0 575 0 0 -272z m1750 132 l0 -130 -140 0 -140 0
0 132 0 131 140 -1 140 -2 0 -130z m-3220 -345 c0 -198 -3 -360 -7 -360 -5 -1
-119 -2 -256 -3 l-247 -2 0 158 0 157 135 0 135 0 0 204 0 205 120 0 120 1 0
-360z m302 68 l-3 -133 -145 0 -144 0 0 133 0 132 148 0 147 0 -3 -132z m2918
-8 l0 -140 -140 0 -140 0 0 140 0 140 140 0 140 0 0 -140z m0 -447 l0 -293
-85 0 -85 0 0 293 0 292 85 0 85 0 0 -292z m-3740 -148 l0 -155 -145 0 -145 0
0 155 0 155 145 0 145 0 0 -155z m357 -7 l-2 -163 83 -3 82 -3 0 -169 0 -170
-135 0 -135 0 0 180 0 180 -120 0 -120 0 0 155 0 155 174 0 174 0 -1 -162z
m163 77 l0 -85 -75 0 -75 0 0 85 0 85 75 0 75 0 0 -85z m0 -165 l0 -60 -75 0
-75 0 0 60 0 60 75 0 75 0 0 -60z m3130 -426 l0 -363 -46 -3 -46 -3 1 -117 0
-118 -95 0 -94 0 0 485 0 485 140 -2 140 -1 0 -363z m90 -44 l0 -410 98 0 97
0 0 -75 0 -75 -97 0 -98 0 0 -55 0 -55 -110 0 -110 0 0 45 c0 41 2 45 25 45
l25 0 0 120 0 120 50 0 50 0 0 375 0 375 35 0 35 0 0 -410z m340 250 l0 -160
-165 0 -165 0 0 160 0 160 165 0 165 0 0 -160z m-4380 -30 l0 -170 -35 0 -35
0 0 -195 0 -195 -170 0 -170 0 0 185 0 184 68 3 67 3 0 178 0 177 138 0 137 0
0 -170z m140 60 l0 -110 -65 0 -65 0 0 110 0 110 65 0 65 0 0 -110z m390 -60
l0 -170 -260 0 -260 0 0 55 0 55 76 0 75 0 -3 115 -3 115 188 0 187 0 0 -170z
m3850 -465 l0 -315 -65 0 -65 0 0 165 0 165 -100 0 -100 0 0 150 0 150 165 0
165 0 0 -315z m-1210 -120 l0 -195 -135 0 -135 0 0 195 0 195 135 0 135 0 0
-195z m490 -10 l0 -205 70 0 70 0 0 -260 0 -260 -155 0 -155 0 0 145 0 145
-155 0 -155 0 0 320 0 320 240 0 240 0 0 -205z m572 53 l-3 -73 -87 2 -87 1
-3 71 -3 71 93 0 93 0 -3 -72z m-4302 -128 l0 -90 -170 0 -170 0 0 90 0 90
170 0 170 0 0 -90z m0 -245 l0 -135 -170 0 -170 0 0 135 0 135 170 0 170 0 0
-135z m3240 -142 l0 -263 -135 0 -135 0 0 263 0 262 135 0 135 0 0 -262z
m1210 2 l0 -265 -165 0 -165 0 0 265 0 265 165 0 165 0 0 -265z m-340 -60 l0
-205 -110 0 -110 0 0 205 0 205 110 0 110 0 0 -205z m-570 -65 l0 -140 -145 0
-145 0 0 140 0 140 145 0 145 0 0 -140z m-3540 -25 l0 -135 -170 0 -170 0 0
135 0 135 170 0 170 0 0 -135z m0 -156 c0 -5 -10 -7 -22 -4 -30 7 -51 -8 -46
-31 3 -14 12 -19 36 -19 31 0 32 -1 32 -42 l0 -43 -170 0 -170 0 0 73 0 74
170 0 c96 1 170 -3 170 -8z m-23 -35 c-3 -3 -12 -4 -19 -1 -8 3 -5 6 6 6 11 1
17 -2 13 -5z m1573 -209 l0 -165 -160 0 -160 0 0 165 0 165 160 0 160 0 0
-165z m0 -360 l0 -175 -160 0 -160 0 0 175 0 175 160 0 160 0 0 -175z"/>
<path d="M2098 5716 c-10 -7 -18 -25 -18 -40 0 -25 3 -26 50 -26 47 0 50 1 50
26 0 28 -24 53 -50 53 -8 0 -23 -6 -32 -13z m72 -27 c0 -10 -37 -18 -60 -12
-11 3 -18 8 -16 12 6 9 76 9 76 0z"/>
<path d="M1890 5586 c7 -7 13 -7 20 0 6 6 3 10 -10 10 -13 0 -16 -4 -10 -10z"/>
<path d="M1696 5579 c3 -5 9 -7 14 -4 5 3 16 -5 24 -17 9 -12 16 -17 16 -11 0
6 -7 17 -16 24 -19 15 -47 21 -38 8z"/>
<path d="M1630 5570 c-9 -6 -10 -10 -3 -10 6 0 15 5 18 10 8 12 4 12 -15 0z"/>
<path d="M1663 5495 c13 -43 22 -44 36 -3 13 37 6 52 -8 17 l-10 -24 -7 23
c-3 12 -10 22 -14 22 -5 0 -3 -16 3 -35z"/>
<path d="M1722 5498 c-2 -34 1 -38 21 -37 15 1 17 3 5 6 -10 2 -18 17 -21 36
-4 31 -4 31 -5 -5z"/>
<path d="M1795 5520 c-3 -5 -1 -10 4 -10 6 0 11 -11 11 -25 0 -14 4 -25 8 -25
4 0 6 16 4 35 -4 35 -15 45 -27 25z"/>
<path d="M1844 5519 c-4 -8 1 -9 16 -4 24 8 22 -2 -8 -37 -14 -17 -13 -18 14
-18 21 0 25 3 15 9 -12 8 -12 12 -2 25 7 8 10 20 6 26 -8 13 -32 13 -41 -1z"/>
<path d="M1912 5523 c16 -4 17 -7 3 -34 -9 -16 -12 -29 -7 -29 9 0 32 44 32
60 0 6 -10 9 -22 9 -17 -1 -19 -2 -6 -6z"/>
<path d="M1980 5510 c0 -11 7 -20 15 -20 8 0 15 -5 15 -11 0 -6 -7 -9 -15 -5
-8 3 -15 1 -15 -4 0 -6 9 -10 20 -10 25 0 28 38 3 47 -15 6 -15 7 3 14 17 7
17 8 -3 8 -17 1 -23 -5 -23 -19z"/>
<path d="M1760 5490 c0 -5 7 -10 15 -10 8 0 15 5 15 10 0 6 -7 10 -15 10 -8 0
-15 -4 -15 -10z"/>
<path d="M1950 5490 c0 -5 5 -10 10 -10 6 0 10 5 10 10 0 6 -4 10 -10 10 -5 0
-10 -4 -10 -10z"/>
<path d="M2046 5473 c-6 -14 -5 -15 5 -6 7 7 10 15 7 18 -3 3 -9 -2 -12 -12z"/>
<path d="M2166 5373 c-6 -14 -5 -15 5 -6 7 7 10 15 7 18 -3 3 -9 -2 -12 -12z"/>
<path d="M2400 5730 c0 -5 -7 -10 -15 -10 -8 0 -15 -4 -15 -10 0 -5 23 -10 50
-10 54 0 60 5 33 26 -21 16 -53 18 -53 4z"/>
<path d="M2370 5674 c0 -10 14 -14 50 -14 35 0 50 4 50 13 0 9 -16 13 -50 14
-36 0 -50 -3 -50 -13z"/>
<path d="M2221 5670 c0 -8 6 -28 13 -45 l13 -30 12 38 c7 21 11 41 7 44 -3 3
-8 -8 -12 -23 l-7 -29 -13 30 c-7 17 -13 23 -13 15z"/>
<path d="M2284 5645 c1 -29 6 -41 19 -43 9 -2 17 1 17 7 0 6 -6 11 -14 11 -9
0 -16 13 -19 33 -4 26 -4 24 -3 -8z"/>
<path d="M2330 5640 c-13 -8 -12 -10 3 -10 9 0 17 5 17 10 0 12 -1 12 -20 0z"/>
<path d="M2230 5560 c-9 -6 -10 -10 -3 -10 6 0 14 -15 16 -32 3 -29 4 -27 5
10 1 23 1 42 0 42 -2 0 -10 -5 -18 -10z"/>
<path d="M2277 5563 c-12 -12 -7 -22 8 -17 8 4 15 2 15 -4 0 -5 -7 -15 -15
-22 -22 -18 -18 -30 10 -30 14 0 25 5 25 10 0 6 -7 10 -15 10 -12 0 -12 3 2
20 10 11 23 20 30 20 16 0 16 -5 2 -32 -6 -11 -8 -22 -6 -25 6 -6 37 50 37 67
0 5 -11 10 -25 10 -14 0 -25 -5 -25 -12 0 -9 -3 -9 -12 0 -14 14 -22 15 -31 5z"/>
<path d="M2427 5563 c-4 -6 -4 -19 -1 -30 3 -10 2 -14 -3 -7 -4 6 -19 8 -33 4
l-25 -6 30 -8 c16 -4 33 -12 36 -18 10 -16 16 14 9 47 -3 18 -8 25 -13 18z"/>
<path d="M2688 5726 c-28 -21 -22 -26 35 -26 l52 0 -25 20 c-29 23 -39 24 -62
6z m39 -2 c-3 -3 -12 -4 -19 -1 -8 3 -5 6 6 6 11 1 17 -2 13 -5z"/>
<path d="M2670 5673 c0 -10 12 -13 47 -11 65 4 68 26 3 25 -35 -1 -50 -5 -50
-14z"/>
<path d="M2537 5645 c17 -35 17 -35 30 -13 7 13 12 30 12 38 0 9 -5 5 -13 -9
l-14 -24 -6 21 c-4 12 -11 22 -17 22 -5 0 -1 -16 8 -35z"/>
<path d="M2592 5648 c-2 -34 0 -38 24 -38 14 0 23 4 19 10 -3 5 -12 7 -20 4
-9 -4 -15 4 -18 28 l-4 33 -1 -37z"/>
<path d="M2630 5645 c0 -2 9 -9 20 -15 16 -9 18 -8 14 5 -5 13 -34 22 -34 10z"/>
<path d="M2690 5590 c-9 -6 -10 -10 -3 -10 6 0 15 5 18 10 8 12 4 12 -15 0z"/>
<path d="M2535 5560 c-3 -5 -2 -10 4 -10 5 0 12 -12 14 -27 3 -23 4 -21 6 10
1 35 -11 49 -24 27z"/>
<path d="M2584 5559 c-3 -5 2 -6 12 -2 13 5 15 2 10 -18 l-7 -24 20 23 c21 24
47 30 38 10 -3 -7 -8 -21 -12 -30 -4 -10 -3 -18 3 -18 5 0 12 8 15 18 2 9 8
25 12 34 6 15 1 17 -39 16 -26 0 -49 -4 -52 -9z"/>
<path d="M2714 5559 c-5 -9 -2 -10 10 -6 13 5 17 3 13 -7 -3 -8 -1 -16 6 -19
8 -2 8 -5 0 -10 -6 -4 -19 0 -27 9 -9 8 -21 14 -27 12 -7 -2 0 -12 15 -22 35
-23 55 -15 53 21 -3 29 -29 43 -43 22z"/>
<path d="M2580 5510 c0 -5 12 -10 28 -9 24 0 25 1 7 9 -27 12 -35 12 -35 0z"/>
<path d="M2978 5726 c-28 -21 -22 -26 32 -26 28 0 50 5 50 10 0 6 -7 10 -15
10 -8 0 -15 5 -15 10 0 14 -32 12 -52 -4z"/>
<path d="M2960 5674 c0 -10 14 -14 50 -14 36 0 50 4 50 14 0 10 -14 14 -50 14
-36 0 -50 -4 -50 -14z"/>
<path d="M2821 5673 c-1 -17 21 -63 30 -63 4 0 10 12 15 28 l7 27 6 -30 c4
-21 13 -31 29 -33 12 -2 22 1 22 7 0 6 -7 11 -15 11 -10 0 -15 10 -15 28 0 37
-28 39 -42 3 l-10 -26 -13 30 c-7 17 -14 25 -14 18z"/>
<path d="M2930 5640 c0 -6 7 -10 15 -10 8 0 15 2 15 4 0 2 -7 6 -15 10 -8 3
-15 1 -15 -4z"/>
<path d="M2830 5560 c-9 -6 -10 -10 -3 -10 6 0 13 -15 15 -32 2 -18 6 -28 9
-23 3 6 3 25 0 42 -5 26 -9 31 -21 23z"/>
<path d="M2880 5560 c-8 -5 -11 -12 -7 -17 5 -4 12 -1 16 6 5 8 11 9 15 3 3
-5 -3 -17 -14 -27 -11 -10 -17 -22 -14 -26 7 -12 44 -11 44 1 0 6 -5 10 -11
10 -8 0 -8 5 1 15 12 15 7 45 -7 45 -4 0 -15 -4 -23 -10z"/>
<path d="M2930 5559 c0 -6 7 -9 15 -5 19 7 19 2 0 -34 -9 -17 -11 -30 -6 -30
8 0 31 52 31 71 0 5 -9 9 -20 9 -11 0 -20 -5 -20 -11z"/>
<path d="M3009 5554 c-12 -15 -11 -16 10 -9 l24 7 -22 -28 -23 -29 22 -3 c24
-4 42 8 22 15 -10 4 -10 8 -1 19 12 15 6 44 -9 44 -5 0 -16 -7 -23 -16z"/>
<path d="M3115 5663 c4 -10 10 -26 12 -35 3 -10 9 -18 13 -18 10 0 32 61 25
68 -4 5 -6 0 -18 -38 -3 -10 -8 -6 -16 13 -6 15 -13 27 -17 27 -3 0 -3 -8 1
-17z"/>
<path d="M3184 5645 c1 -29 6 -41 19 -43 9 -2 17 1 17 7 0 6 -6 11 -14 11 -9
0 -16 13 -19 33 -4 26 -4 24 -3 -8z"/>
<path d="M3220 5640 c0 -6 7 -10 15 -10 8 0 15 2 15 4 0 2 -7 6 -15 10 -8 3
-15 1 -15 -4z"/>
<path d="M3134 5564 c-12 -5 -6 -61 7 -70 5 -3 9 13 9 35 0 23 -1 41 -2 40 -2
0 -8 -3 -14 -5z"/>
<path d="M3177 5563 c-13 -13 -7 -22 10 -16 17 7 17 6 0 -20 -21 -33 -21 -32
3 -34 11 -1 20 2 20 8 0 5 -5 9 -11 9 -8 0 -8 5 1 15 20 24 -2 59 -23 38z"/>
<path d="M3230 5560 c-9 -6 -10 -10 -3 -10 6 0 14 -15 16 -32 3 -29 4 -27 5
10 1 23 1 42 0 42 -2 0 -10 -5 -18 -10z"/>
<path d="M3307 5563 c-12 -12 -7 -22 8 -17 8 4 15 2 15 -4 0 -5 -7 -15 -15
-22 -21 -17 -19 -30 5 -30 11 0 20 5 20 10 0 6 -5 10 -11 10 -8 0 -8 5 1 15
20 24 -2 59 -23 38z"/>
<path d="M3278 5523 c7 -3 16 -2 19 1 4 3 -2 6 -13 5 -11 0 -14 -3 -6 -6z"/>
<path d="M3825 5579 c-3 -4 2 -6 10 -5 21 3 28 13 10 13 -9 0 -18 -4 -20 -8z"/>
<path d="M3746 5538 c3 -5 10 -6 15 -3 13 9 11 12 -6 12 -8 0 -12 -4 -9 -9z"/>
<path d="M3655 5513 c4 -10 10 -26 12 -35 3 -10 8 -18 12 -18 9 0 32 62 25 69
-2 3 -7 -5 -11 -17 -7 -27 -23 -29 -23 -2 0 11 -5 20 -11 20 -7 0 -8 -7 -4
-17z"/>
<path d="M3719 5498 c-5 -36 -3 -38 21 -37 15 1 19 3 8 6 -10 3 -18 17 -20 36
l-3 32 -6 -37z"/>
<path d="M3795 5520 c-3 -5 -2 -10 4 -10 5 0 12 -12 14 -27 3 -23 4 -21 6 10
1 35 -11 49 -24 27z"/>
<path d="M3844 5518 c-5 -8 -2 -9 9 -5 22 8 22 -11 0 -35 -15 -17 -15 -18 13
-17 18 1 22 3 11 6 -17 4 -17 6 -2 23 18 20 13 40 -10 40 -8 0 -17 -5 -21 -12z"/>
<path d="M3908 5525 c-8 -8 3 -65 13 -65 5 0 9 16 9 35 0 32 -8 43 -22 30z"/>
<path d="M3760 5490 c0 -5 7 -10 16 -10 8 0 12 5 9 10 -3 6 -10 10 -16 10 -5
0 -9 -4 -9 -10z"/>
<path d="M4341 5555 c0 -11 5 -30 12 -43 l13 -23 12 26 c7 14 12 34 11 43 0
10 -5 4 -11 -12 l-11 -29 -13 29 c-10 23 -12 25 -13 9z"/>
<path d="M4402 5533 c-2 -40 0 -43 23 -43 14 0 25 5 25 10 0 6 -9 10 -19 10
-15 0 -21 8 -24 33 -3 28 -4 26 -5 -10z"/>
<path d="M4509 5507 c6 -8 7 -18 3 -22 -4 -5 -1 -5 6 -1 10 6 10 11 1 22 -6 8
-14 14 -16 14 -3 0 0 -6 6 -13z"/>
<path d="M4543 5503 c4 -3 1 -13 -6 -22 -11 -14 -10 -14 5 -2 16 12 16 31 1
31 -4 0 -3 -3 0 -7z"/>
<path d="M4353 5453 c-7 -2 -13 -9 -13 -14 0 -6 4 -8 9 -4 5 3 12 -9 14 -27 3
-29 4 -28 5 10 1 23 1 42 0 41 -2 0 -9 -3 -15 -6z"/>
<path d="M4403 5453 c-7 -3 -13 -9 -13 -14 0 -4 7 -6 15 -3 8 4 15 2 15 -4 0
-5 -7 -15 -15 -22 -22 -18 -18 -30 10 -30 14 0 25 5 25 11 0 6 -7 9 -15 5 -13
-5 -13 -3 0 18 12 19 13 25 3 33 -7 6 -19 8 -25 6z"/>
<path d="M4533 5453 c-7 -3 -13 -9 -13 -14 0 -4 7 -6 15 -3 11 5 13 2 9 -10
-3 -9 -1 -16 6 -16 6 0 9 -4 5 -10 -3 -5 -13 -6 -22 -3 -11 4 -14 3 -9 -6 15
-23 40 -7 42 26 2 32 -10 44 -33 36z"/>
<path d="M4458 5415 c2 -19 8 -35 13 -35 5 0 9 16 9 35 0 22 -5 35 -13 35 -9
0 -12 -11 -9 -35z"/>
<path d="M4498 5413 c7 -3 16 -2 19 1 4 3 -2 6 -13 5 -11 0 -14 -3 -6 -6z"/>
<path d="M3073 5405 c-7 -8 -13 -26 -13 -40 0 -25 2 -26 47 -23 27 2 48 8 51
16 3 10 -4 13 -24 11 -45 -3 -66 0 -59 10 3 6 23 8 45 5 24 -3 40 -1 40 6 0 5
-7 10 -15 10 -8 0 -15 5 -15 10 0 15 -43 11 -57 -5z"/>
<path d="M2921 5403 c-1 -16 20 -63 29 -63 4 0 12 15 18 33 l10 32 1 -31 c1
-23 7 -33 21 -37 11 -3 23 -1 26 4 3 5 -2 9 -10 9 -11 0 -16 9 -16 30 0 41
-35 42 -45 3 l-7 -28 -13 30 c-7 17 -14 25 -14 18z"/>
<path d="M2930 5290 c-9 -6 -10 -10 -3 -10 6 0 14 -12 16 -27 3 -23 4 -21 6
10 0 20 0 37 -1 37 -2 0 -10 -5 -18 -10z"/>
<path d="M2977 5293 c-13 -12 -7 -25 6 -14 24 19 28 -2 5 -26 -12 -13 -20 -23
-17 -24 2 0 14 -2 27 -5 12 -2 22 1 22 6 0 6 -5 10 -11 10 -8 0 -8 5 1 15 22
26 -10 62 -33 38z"/>
<path d="M3030 5289 c0 -6 7 -9 15 -5 19 7 19 -4 -1 -32 -8 -12 -11 -22 -6
-22 9 0 32 43 32 60 0 6 -9 10 -20 10 -11 0 -20 -5 -20 -11z"/>
<path d="M3118 5260 c6 -44 22 -47 22 -6 0 23 -5 36 -13 36 -9 0 -12 -10 -9
-30z"/>
<path d="M3265 5350 c-3 -5 1 -10 10 -10 9 0 13 5 10 10 -3 6 -8 10 -10 10 -2
0 -7 -4 -10 -10z"/>
<path d="M3197 5293 c-2 -5 -1 -19 4 -33 7 -23 7 -23 8 8 1 31 -3 40 -12 25z"/>
<path d="M3226 5291 c-4 -5 0 -11 6 -14 10 -3 10 -7 -1 -20 -12 -15 -11 -17
10 -16 13 0 18 3 11 6 -10 4 -10 8 -2 19 12 13 6 34 -10 34 -5 0 -11 -4 -14
-9z"/>
<path d="M3276 5273 c10 -40 14 -41 14 -5 0 18 -5 32 -10 32 -6 0 -8 -11 -4
-27z"/>
<path d="M3325 5290 c-3 -5 -2 -10 4 -10 5 0 12 -10 14 -22 4 -20 4 -20 6 4 1
28 -13 45 -24 28z"/>
<path d="M3040 3122 c0 -24 61 -177 96 -241 43 -78 118 -173 175 -220 68 -56
54 -28 -23 47 -88 85 -156 194 -201 320 -31 87 -47 119 -47 94z"/>
<path d="M2800 3057 c0 -45 122 -348 135 -335 3 3 -10 38 -29 80 -38 80 -86
217 -86 242 0 8 -4 18 -10 21 -5 3 -10 0 -10 -8z"/>
<path d="M2970 2661 c0 -31 214 -261 243 -261 7 0 -18 27 -54 59 -36 33 -92
94 -124 135 -58 77 -65 84 -65 67z"/>
<path d="M4165 2618 c-59 -40 -172 -86 -249 -103 -98 -22 -231 -16 -326 14
-76 24 -70 23 -70 12 0 -20 164 -54 260 -54 143 0 315 55 405 128 36 29 22 32
-20 3z"/>
<path d="M1720 4946 c7 -7 13 -7 20 0 6 6 3 10 -10 10 -13 0 -16 -4 -10 -10z"/>
<path d="M1527 4936 c-4 -10 -1 -13 8 -9 8 3 12 9 9 14 -7 12 -11 11 -17 -5z"/>
<path d="M1605 4930 c-3 -6 1 -7 9 -4 18 7 21 14 7 14 -6 0 -13 -4 -16 -10z"/>
<path d="M1815 4921 c-3 -5 -2 -12 3 -15 5 -3 9 1 9 9 0 17 -3 19 -12 6z"/>
<path d="M1615 4911 c-3 -5 0 -13 6 -17 7 -4 9 -3 5 4 -3 5 0 13 6 15 9 4 10
6 1 6 -6 1 -14 -3 -18 -8z"/>
<path d="M1511 4895 c0 -11 6 -31 14 -45 l13 -25 11 28 c14 37 13 59 -1 29
l-12 -23 -12 28 c-10 22 -12 24 -13 8z"/>
<path d="M1707 4904 c-13 -14 -7 -23 11 -17 15 6 15 5 3 -10 -9 -11 -10 -17
-2 -17 6 0 11 -5 11 -11 0 -6 -7 -8 -17 -4 -15 5 -16 4 -5 -6 17 -18 34 2 30
37 -3 27 -18 41 -31 28z"/>
<path d="M1761 4896 c-19 -23 -10 -61 14 -61 14 0 21 8 23 26 4 33 -20 56 -37
35z m19 -32 c0 -14 -4 -23 -10 -19 -5 3 -10 15 -10 26 0 10 5 19 10 19 6 0 10
-12 10 -26z"/>
<path d="M1571 4868 c-1 -35 1 -38 27 -37 23 0 24 1 7 8 -11 4 -23 21 -26 37
-6 27 -7 27 -8 -8z"/>
<path d="M1650 4890 c0 -5 4 -10 9 -10 4 0 6 -11 3 -25 -2 -15 0 -25 7 -25 6
0 11 16 11 35 0 24 -5 35 -15 35 -8 0 -15 -4 -15 -10z"/>
<path d="M1615 4860 c3 -5 10 -10 16 -10 5 0 9 5 9 10 0 6 -7 10 -16 10 -8 0
-12 -4 -9 -10z"/>
<path d="M1811 4816 c-10 -11 -9 -14 1 -12 14 2 23 15 15 22 -2 2 -10 -2 -16
-10z"/>
<path d="M1928 4553 c-11 -14 -10 -15 10 -9 25 8 29 -5 7 -24 -22 -18 -18 -30
8 -30 17 0 19 2 7 10 -12 7 -12 12 -2 22 6 6 12 17 12 24 0 19 -28 24 -42 7z"/>
<path d="M1993 4563 c-19 -7 -16 -62 3 -70 21 -8 32 11 26 43 -5 27 -11 33
-29 27z m17 -23 c0 -5 -2 -10 -4 -10 -3 0 -8 5 -11 10 -3 6 -1 10 4 10 6 0 11
-4 11 -10z m0 -30 c0 -5 -4 -10 -10 -10 -5 0 -10 5 -10 10 0 6 5 10 10 10 6 0
10 -4 10 -10z"/>
<path d="M1740 4553 c0 -6 5 -24 11 -40 l11 -28 15 34 c8 18 12 35 9 38 -2 2
-7 -6 -11 -18 l-7 -22 -14 24 c-7 13 -13 19 -14 12z"/>
<path d="M1802 4528 c-2 -34 0 -38 24 -38 14 0 23 4 19 10 -3 5 -12 7 -20 4
-9 -4 -15 4 -18 28 l-4 33 -1 -37z"/>
<path d="M1875 4550 c-3 -5 -1 -10 4 -10 6 0 11 -11 11 -25 0 -14 5 -25 10
-25 6 0 10 16 10 35 0 34 -20 49 -35 25z"/>
<path d="M2056 4542 c-3 -5 1 -9 9 -9 8 0 12 4 9 9 -3 4 -7 8 -9 8 -2 0 -6 -4
-9 -8z"/>
<path d="M1840 4526 c0 -2 7 -6 15 -10 8 -3 15 -1 15 4 0 6 -7 10 -15 10 -8 0
-15 -2 -15 -4z"/>
<path d="M1696 4492 c-3 -5 1 -9 9 -9 8 0 12 4 9 9 -3 4 -7 8 -9 8 -2 0 -6 -4
-9 -8z"/>
<path d="M3135 4520 c0 -201 1 -283 2 -182 2 100 2 264 0 365 -1 100 -2 18 -2
-183z"/>
<path d="M2806 4627 c3 -10 9 -15 12 -12 3 3 0 11 -7 18 -10 9 -11 8 -5 -6z"/>
<path d="M2672 4533 c-2 -39 0 -43 21 -42 16 1 17 3 5 6 -11 3 -18 17 -21 41
l-4 37 -1 -42z"/>
<path d="M2799 4554 c-12 -15 -12 -16 10 -9 l24 7 -22 -31 -22 -31 28 1 c18 1
22 3 10 6 -18 5 -18 6 -1 24 16 18 16 21 2 35 -13 13 -16 13 -29 -2z"/>
<path d="M2861 4556 c-16 -20 -10 -61 9 -61 8 0 16 10 18 23 2 16 -2 22 -15
22 -15 0 -16 2 -3 10 8 5 12 12 9 15 -4 3 -12 -1 -18 -9z m19 -42 c0 -8 -4
-12 -10 -9 -5 3 -10 10 -10 16 0 5 5 9 10 9 6 0 10 -7 10 -16z"/>
<path d="M2600 4555 c0 -4 7 -20 16 -37 l16 -32 14 34 c8 18 12 35 9 38 -2 3
-9 -6 -14 -19 l-10 -24 -7 23 c-5 19 -24 32 -24 17z"/>
<path d="M2744 4548 c-4 -6 -3 -8 4 -4 7 4 12 -6 15 -26 4 -33 4 -33 5 5 2 36
-10 49 -24 25z"/>
<path d="M2715 4520 c4 -6 11 -8 16 -5 14 9 11 15 -7 15 -8 0 -12 -5 -9 -10z"/>
<path d="M2930 4516 c0 -2 8 -10 18 -17 15 -13 16 -12 3 4 -13 16 -21 21 -21
13z"/>
<path d="M3253 4593 c-19 -40 -17 -73 5 -73 19 0 42 42 42 77 0 32 -32 30 -47
-4z"/>
<path d="M3340 4575 c0 -19 -5 -25 -17 -23 -12 2 -19 -4 -21 -19 -2 -15 -10
-23 -23 -23 -15 0 -19 -7 -19 -35 l0 -36 73 3 72 3 0 75 0 75 -32 3 c-30 3
-33 1 -33 -23z m40 -52 l0 -58 -50 -1 c-36 -1 -50 3 -50 12 0 8 9 14 20 14 13
0 20 7 20 20 0 13 7 20 20 20 15 0 20 7 20 25 0 14 5 25 10 25 6 0 10 -26 10
-57z"/>
<path d="M3794 4794 c3 -9 9 -27 12 -40 7 -28 20 -31 27 -6 2 9 8 25 12 35 4
10 3 17 -3 17 -6 0 -12 -10 -15 -22 -3 -22 -4 -22 -15 5 -12 28 -29 39 -18 11z"/>
<path d="M4038 4793 c-11 -14 -10 -15 12 -8 24 8 24 7 7 -18 -22 -34 -21 -37
6 -37 17 0 19 2 7 10 -12 7 -12 12 -2 22 6 6 12 17 12 24 0 19 -28 24 -42 7z"/>
<path d="M3862 4768 c-2 -32 1 -38 18 -38 11 0 20 4 20 10 0 5 -6 7 -14 4 -11
-4 -16 4 -19 28 l-4 33 -1 -37z"/>
<path d="M3930 4789 c0 -5 4 -8 9 -4 5 3 12 -9 14 -27 4 -33 4 -33 5 5 2 27
-2 37 -13 37 -8 0 -15 -5 -15 -11z"/>
<path d="M3994 4784 c3 -9 6 -24 6 -35 0 -10 5 -19 10 -19 6 0 10 16 10 35 0
25 -4 35 -16 35 -11 0 -14 -5 -10 -16z"/>
<path d="M3908 4763 c7 -3 16 -2 19 1 4 3 -2 6 -13 5 -11 0 -14 -3 -6 -6z"/>
<path d="M4030 4649 c0 -14 5 -19 17 -17 26 5 29 38 4 38 -15 0 -21 -6 -21
-21z"/>
<path d="M4010 4591 c0 -17 5 -31 10 -31 6 0 10 -11 10 -25 0 -18 5 -25 20
-25 15 0 20 7 20 25 0 14 5 25 11 25 6 0 9 12 7 28 -3 23 -8 27 -40 30 -36 3
-38 2 -38 -27z"/>
<path d="M4296 4781 c-4 -5 -2 -12 3 -15 5 -4 12 -2 15 3 4 5 2 12 -3 15 -5 4
-12 2 -15 -3z"/>
<path d="M4564 4778 c-4 -7 -4 -10 1 -6 4 4 15 2 24 -5 14 -11 14 -10 2 6 -16
20 -18 21 -27 5z"/>
<path d="M4304 4724 c5 -10 11 -27 13 -36 3 -10 9 -18 13 -18 10 0 32 61 25
69 -3 3 -8 -5 -12 -17 -6 -25 -23 -30 -23 -8 0 8 -5 18 -12 22 -8 5 -9 2 -4
-12z"/>
<path d="M4372 4708 c-2 -34 1 -38 21 -37 15 1 17 3 5 6 -10 2 -18 17 -21 36
-4 31 -4 31 -5 -5z"/>
<path d="M4445 4730 c-3 -5 -2 -10 4 -10 5 0 12 -12 14 -27 3 -23 4 -21 6 10
1 35 -11 49 -24 27z"/>
<path d="M4500 4730 c-10 -6 -11 -10 -2 -10 6 0 12 -11 12 -25 0 -14 4 -25 10
-25 5 0 9 16 8 35 -1 37 -4 40 -28 25z"/>
<path d="M4550 4716 c0 -14 -1 -29 -2 -33 -2 -5 7 -9 19 -11 20 -3 23 1 20 30
-3 42 -37 54 -37 14z m30 4 c0 -5 -4 -10 -10 -10 -5 0 -10 5 -10 10 0 6 5 10
10 10 6 0 10 -4 10 -10z m0 -30 c0 -5 -4 -10 -10 -10 -5 0 -10 5 -10 10 0 6 5
10 10 10 6 0 10 -4 10 -10z"/>
<path d="M4266 4702 c-3 -5 1 -9 9 -9 8 0 12 4 9 9 -3 4 -7 8 -9 8 -2 0 -6 -4
-9 -8z"/>
<path d="M4410 4700 c0 -5 7 -10 15 -10 8 0 15 5 15 10 0 6 -7 10 -15 10 -8 0
-15 -4 -15 -10z"/>
<path d="M4230 4640 c0 -15 5 -20 18 -18 9 2 17 10 17 18 0 8 -8 16 -17 18
-13 2 -18 -3 -18 -18z"/>
<path d="M4216 4588 c-9 -36 -7 -48 8 -48 9 0 12 -7 9 -20 -4 -14 0 -20 11
-20 9 0 16 8 16 20 0 11 7 20 15 20 12 0 14 7 9 28 -10 39 -12 42 -38 42 -16
0 -26 -7 -30 -22z"/>
<path d="M4290 4511 c0 -6 4 -13 10 -16 6 -3 7 1 4 9 -7 18 -14 21 -14 7z"/>
<path d="M3996 4388 c3 -5 10 -6 15 -3 13 9 11 12 -6 12 -8 0 -12 -4 -9 -9z"/>
<path d="M4064 4392 c3 -6 -2 -13 -11 -15 -16 -4 -16 -5 -1 -6 21 -1 32 15 17
25 -7 4 -9 3 -5 -4z"/>
<path d="M3960 4380 c-9 -6 -10 -10 -3 -10 6 0 15 5 18 10 8 12 4 12 -15 0z"/>
<path d="M3801 4320 c0 -8 6 -26 14 -40 l14 -25 15 35 15 35 1 -32 c0 -29 3
-33 28 -32 22 1 24 2 7 7 -13 5 -20 16 -20 32 0 36 -31 38 -40 3 l-7 -28 -13
30 c-7 17 -14 23 -14 15z"/>
<path d="M3945 4320 c-3 -5 -1 -10 5 -10 6 0 8 -11 6 -25 -3 -14 0 -25 5 -25
5 0 9 16 9 35 0 34 -12 46 -25 25z"/>
<path d="M3995 4320 c-3 -5 -2 -10 4 -10 5 0 12 -12 14 -27 3 -23 4 -21 6 10
1 35 -11 49 -24 27z"/>
<path d="M4044 4316 c-10 -26 0 -51 21 -51 16 0 20 7 20 30 0 33 -30 49 -41
21z m29 -39 c-9 -16 -24 9 -17 28 7 18 8 18 14 -1 4 -10 5 -23 3 -27z"/>
<path d="M3910 4290 c0 -5 5 -10 10 -10 6 0 10 5 10 10 0 6 -4 10 -10 10 -5 0
-10 -4 -10 -10z"/>
<path d="M4037 4244 c-14 -14 -7 -35 11 -32 9 2 17 10 17 17 0 16 -18 25 -28
15z"/>
<path d="M4020 4188 c0 -7 -3 -23 -6 -35 -5 -17 -2 -23 9 -23 10 0 13 -6 10
-20 -4 -14 0 -20 11 -20 9 0 16 8 16 20 0 11 7 20 15 20 18 0 19 9 5 44 -7 19
-17 26 -35 26 -14 0 -25 -6 -25 -12z"/>
<path d="M4300 4360 c0 -6 7 -25 17 -43 l16 -32 14 39 c7 22 11 41 8 44 -4 5
-6 0 -18 -38 -3 -10 -8 -6 -16 13 -11 27 -21 36 -21 17z"/>
<path d="M4561 4356 c-16 -20 -10 -61 9 -61 8 0 16 10 18 23 2 16 -2 22 -15
22 -15 0 -16 2 -3 10 8 5 12 12 9 15 -4 3 -12 -1 -18 -9z m19 -36 c0 -5 -4
-10 -10 -10 -5 0 -10 5 -10 10 0 6 5 10 10 10 6 0 10 -4 10 -10z"/>
<path d="M4372 4328 c-2 -32 1 -38 18 -38 11 0 20 5 20 11 0 6 -6 9 -14 6 -11
-4 -16 3 -19 26 -4 31 -4 31 -5 -5z"/>
<path d="M4440 4349 c0 -5 4 -8 9 -4 5 3 12 -9 14 -27 4 -33 4 -33 5 5 2 27
-2 37 -13 37 -8 0 -15 -5 -15 -11z"/>
<path d="M4508 4325 c2 -19 8 -35 13 -35 5 0 9 16 9 35 0 22 -5 35 -13 35 -9
0 -12 -11 -9 -35z"/>
<path d="M4418 4323 c7 -3 16 -2 19 1 4 3 -2 6 -13 5 -11 0 -14 -3 -6 -6z"/>
<path d="M4247 4303 c3 -7 6 -13 8 -13 2 0 5 6 8 13 3 8 -1 14 -8 14 -7 0 -11
-6 -8 -14z"/>
<path d="M4586 4261 c-4 -5 -2 -12 3 -15 5 -4 12 -2 15 3 4 5 2 12 -3 15 -5 4
-12 2 -15 -3z"/>
<path d="M4227 4244 c-10 -11 3 -24 24 -24 10 0 19 7 19 15 0 15 -31 21 -43 9z"/>
<path d="M4296 4232 c-3 -5 1 -9 9 -9 8 0 12 4 9 9 -3 4 -7 8 -9 8 -2 0 -6 -4
-9 -8z"/>
<path d="M4215 4202 c-9 -10 -5 -62 5 -62 6 0 10 -11 10 -25 0 -18 5 -25 20
-25 14 0 20 7 20 23 0 13 5 28 11 34 6 6 9 21 7 34 -2 19 -10 24 -35 25 -18 1
-35 -1 -38 -4z"/>
<path d="M4461 4010 c0 -8 4 -24 9 -35 7 -19 9 -18 19 8 14 36 14 48 -1 22
-11 -19 -11 -19 -19 0 -5 13 -8 14 -8 5z"/>
<path d="M4509 4005 c-3 -11 -4 -26 -2 -32 5 -15 33 -17 33 -3 0 6 8 10 17 10
14 0 15 2 4 13 -11 10 -14 10 -18 0 -7 -21 -21 -15 -25 10 -3 21 -4 21 -9 2z"/>
<path d="M4580 3976 c0 -2 8 -10 18 -17 15 -13 16 -12 3 4 -13 16 -21 21 -21
13z"/>
<path d="M4570 3956 c0 -2 8 -10 18 -17 15 -13 16 -12 3 4 -13 16 -21 21 -21
13z"/>
<path d="M4504 3928 c-4 -7 -3 -8 4 -4 15 9 15 1 2 -25 -10 -18 -8 -19 27 -17
33 3 38 7 38 28 0 32 -29 34 -33 3 -2 -13 -7 -23 -11 -23 -5 0 -6 11 -3 25 4
26 -11 34 -24 13z m66 -23 c0 -8 -4 -15 -10 -15 -5 0 -10 7 -10 15 0 8 5 15
10 15 6 0 10 -7 10 -15z"/>
<path d="M4468 3905 c2 -14 6 -25 8 -25 2 0 4 11 4 25 0 14 -4 25 -9 25 -4 0
-6 -11 -3 -25z"/>
<path d="M1501 3740 c0 -8 -4 -25 -7 -37 -6 -20 -3 -23 22 -22 16 1 21 3 12 6
-10 2 -18 17 -21 36 -2 18 -5 25 -6 17z"/>
<path d="M1575 3740 c-3 -5 -2 -10 4 -10 5 0 12 -12 14 -27 3 -23 4 -21 6 10
1 35 -11 49 -24 27z"/>
<path d="M1540 3710 c0 -5 7 -10 16 -10 8 0 12 5 9 10 -3 6 -10 10 -16 10 -5
0 -9 -4 -9 -10z"/>
<path d="M2186 3665 c-11 -8 -15 -15 -9 -15 6 0 16 7 23 15 16 19 11 19 -14 0z"/>
<path d="M2343 3665 c0 -8 4 -12 9 -9 5 3 6 10 3 15 -9 13 -12 11 -12 -6z"/>
<path d="M2160 3616 c0 -2 7 -21 16 -42 l17 -39 13 30 c7 17 13 37 13 45 0 8
-7 2 -14 -15 l-13 -30 -11 28 c-9 23 -21 36 -21 23z"/>
<path d="M2358 3603 c-11 -14 -10 -15 12 -8 24 7 24 7 9 -11 -31 -37 -32 -44
-2 -44 21 0 25 3 13 10 -12 7 -12 12 -2 22 6 6 12 17 12 24 0 19 -28 24 -42 7z"/>
<path d="M2417 3613 c-12 -12 -7 -22 8 -17 8 4 15 2 15 -4 0 -5 -7 -15 -15
-22 -22 -18 -18 -30 11 -30 14 0 23 4 19 10 -4 6 -11 8 -16 5 -13 -9 -11 9 2
22 7 7 9 19 6 27 -7 17 -19 21 -30 9z"/>
<path d="M2232 3578 c-2 -32 1 -38 18 -38 11 0 20 5 20 11 0 6 -6 9 -14 6 -11
-4 -16 3 -19 26 -4 31 -4 31 -5 -5z"/>
<path d="M2300 3599 c0 -5 4 -8 9 -4 5 3 12 -9 14 -27 4 -33 4 -33 5 5 2 27
-2 37 -13 37 -8 0 -15 -5 -15 -11z"/>
<path d="M2278 3573 c7 -3 16 -2 19 1 4 3 -2 6 -13 5 -11 0 -14 -3 -6 -6z"/>
<path d="M4413 3760 c6 -16 14 -30 18 -30 9 0 22 51 14 58 -3 3 -5 -3 -5 -14
-1 -18 -1 -18 -14 -1 -20 26 -26 21 -13 -13z"/>
<path d="M4461 3763 c-1 -28 2 -33 22 -32 15 1 17 3 5 6 -9 2 -19 16 -21 31
-4 24 -4 24 -6 -5z"/>
<path d="M4498 3753 c7 -3 16 -2 19 1 4 3 -2 6 -13 5 -11 0 -14 -3 -6 -6z"/>
<path d="M4418 3670 c2 -16 8 -30 13 -30 5 0 9 14 9 30 0 18 -5 30 -13 30 -9
0 -12 -10 -9 -30z"/>
<path d="M4454 3685 c-8 -21 3 -48 19 -43 19 7 22 58 2 58 -8 0 -18 -7 -21
-15z m26 -10 c0 -8 -4 -15 -10 -15 -5 0 -10 7 -10 15 0 8 5 15 10 15 6 0 10
-7 10 -15z"/>
<path d="M4500 3677 c0 -32 8 -38 31 -24 19 12 26 28 12 26 -5 -1 -15 -1 -23
0 -13 1 -13 2 0 11 13 8 12 10 -2 10 -12 0 -18 -8 -18 -23z"/>
<path d="M4560 3689 c0 -5 5 -7 10 -4 6 3 10 2 10 -4 0 -5 -4 -13 -10 -16 -18
-11 -11 -25 13 -25 17 0 19 2 8 9 -12 7 -12 13 -3 24 7 7 9 17 5 20 -10 11
-33 8 -33 -4z"/>
<path d="M1213 3613 c-19 -40 -17 -73 5 -73 19 0 42 42 42 77 0 32 -32 30 -47
-4z"/>
<path d="M1300 3597 c0 -17 -5 -24 -17 -23 -12 0 -19 -7 -21 -21 -2 -15 -10
-23 -23 -23 -15 0 -19 -7 -19 -35 l0 -36 73 3 72 3 0 75 0 75 -32 3 c-29 3
-33 0 -33 -21z m40 -52 l0 -55 -50 0 c-27 0 -50 5 -50 10 0 6 9 10 20 10 13 0
20 7 20 20 0 13 7 20 20 20 15 0 20 7 20 25 0 14 5 25 10 25 6 0 10 -25 10
-55z"/>
<path d="M1445 3513 c4 -10 10 -26 12 -35 3 -10 9 -18 13 -18 10 0 32 61 25
68 -4 5 -6 0 -18 -38 -3 -10 -8 -6 -16 13 -6 15 -13 27 -17 27 -3 0 -3 -8 1
-17z"/>
<path d="M1512 3493 c-2 -37 1 -43 18 -43 11 0 20 5 20 10 0 6 -6 10 -14 10
-9 0 -16 13 -19 33 -3 28 -4 26 -5 -10z"/>
<path d="M1558 3483 c7 -3 16 -2 19 1 4 3 -2 6 -13 5 -11 0 -14 -3 -6 -6z"/>
<path d="M1465 3414 c-13 -5 -7 -74 6 -74 5 0 9 18 9 40 0 22 -1 40 -2 39 -2
0 -8 -3 -13 -5z"/>
<path d="M1507 3413 c-13 -13 -7 -22 10 -16 17 7 17 6 0 -20 -22 -33 -21 -37
3 -37 11 0 20 5 20 10 0 6 -5 10 -11 10 -8 0 -8 5 1 15 20 24 -2 59 -23 38z"/>
<path d="M1557 3413 c-12 -12 -7 -22 8 -17 19 8 19 -10 0 -26 -8 -7 -12 -16
-9 -21 7 -12 44 -11 44 1 0 6 -7 10 -17 10 -15 0 -15 1 0 18 13 14 14 21 5 30
-14 14 -22 15 -31 5z"/>
<path d="M1640 3410 c-9 -6 -10 -10 -3 -10 6 0 14 -15 16 -32 3 -29 4 -27 5
10 1 23 1 42 0 42 -2 0 -10 -5 -18 -10z"/>
<path d="M1608 3373 c7 -3 16 -2 19 1 4 3 -2 6 -13 5 -11 0 -14 -3 -6 -6z"/>
<path d="M4401 3495 c0 -5 6 -21 13 -34 l13 -24 11 29 10 29 1 -27 c1 -18 6
-28 17 -28 18 0 49 28 40 37 -3 4 -13 -2 -21 -13 -14 -18 -14 -18 -15 9 0 20
-5 27 -20 27 -12 0 -20 -7 -20 -17 0 -15 -2 -14 -15 3 -8 10 -14 15 -14 9z"/>
<path d="M4451 3403 c-11 -21 4 -57 20 -48 12 8 12 52 0 60 -6 3 -14 -3 -20
-12z m16 -25 c-3 -8 -6 -5 -6 6 -1 11 2 17 5 13 3 -3 4 -12 1 -19z"/>
<path d="M4502 3408 c-14 -14 -16 -44 -3 -52 5 -3 14 1 21 9 7 8 16 12 21 9 5
-3 9 0 9 5 0 6 -9 11 -21 11 -11 0 -17 -4 -14 -10 3 -5 1 -10 -4 -10 -15 0
-14 27 2 33 6 2 9 7 6 10 -3 4 -11 1 -17 -5z"/>
<path d="M4406 3402 c7 -4 14 -16 17 -27 4 -15 5 -14 6 8 1 20 -4 27 -16 27
-12 0 -14 -3 -7 -8z"/>
<path d="M4556 3402 c7 -4 14 -16 17 -27 4 -15 5 -14 6 8 1 20 -4 27 -16 27
-12 0 -14 -3 -7 -8z"/>
<path d="M823 2973 c-7 -2 -13 -16 -13 -29 0 -20 5 -24 30 -24 38 0 39 17 3
23 l-28 4 29 2 c24 1 27 3 16 16 -13 16 -17 17 -37 8z"/>
<path d="M640 2906 c0 -13 23 -66 30 -66 4 0 12 15 18 33 l10 32 1 -32 c1 -29
4 -33 29 -32 16 1 20 3 10 6 -12 3 -18 14 -18 34 0 36 -34 41 -44 7 l-7 -23
-9 23 c-8 19 -20 30 -20 18z"/>
<path d="M750 2870 c0 -5 5 -10 10 -10 6 0 10 5 10 10 0 6 -4 10 -10 10 -5 0
-10 -4 -10 -10z"/>
<path d="M645 2790 c-3 -5 -1 -10 4 -10 6 0 11 -11 11 -25 0 -14 4 -25 8 -25
5 0 8 10 6 23 -1 12 -3 28 -3 35 -1 14 -17 16 -26 2z"/>
<path d="M696 2782 c-9 -27 3 -54 23 -50 22 5 22 62 -1 66 -9 2 -19 -5 -22
-16z m34 -11 c0 -11 -4 -23 -10 -26 -6 -4 -10 5 -10 19 0 14 5 26 10 26 6 0
10 -9 10 -19z"/>
<path d="M750 2790 c0 -5 7 -7 15 -4 8 4 15 2 15 -4 0 -5 -7 -15 -15 -22 -23
-19 -18 -30 13 -29 23 0 24 2 8 8 -14 5 -16 10 -8 15 20 12 14 46 -8 46 -11 0
-20 -4 -20 -10z"/>
<path d="M847 2792 c-8 -11 4 -62 14 -62 5 0 9 16 9 35 0 32 -12 46 -23 27z"/>
<path d="M800 2761 c0 -5 9 -11 20 -14 12 -3 20 0 20 7 0 6 -9 12 -20 13 -11
1 -20 -2 -20 -6z"/>
<path d="M1192 2968 c-7 -7 -12 -20 -12 -30 0 -13 8 -18 30 -18 22 0 30 5 30
18 0 17 -18 42 -30 42 -3 0 -11 -5 -18 -12z m31 -25 c-7 -2 -19 -2 -25 0 -7 3
-2 5 12 5 14 0 19 -2 13 -5z"/>
<path d="M965 2893 c4 -10 10 -26 12 -35 8 -27 20 -22 32 14 13 37 6 52 -8 17
l-10 -24 -7 23 c-3 12 -11 22 -16 22 -6 0 -7 -8 -3 -17z"/>
<path d="M1032 2878 c-2 -34 1 -38 21 -37 15 1 17 3 5 6 -10 2 -18 17 -21 36
-4 31 -4 31 -5 -5z"/>
<path d="M1070 2870 c0 -5 7 -10 15 -10 8 0 15 5 15 10 0 6 -7 10 -15 10 -8 0
-15 -4 -15 -10z"/>
<path d="M965 2790 c-3 -5 -1 -10 4 -10 6 0 11 -11 11 -25 0 -14 5 -25 10 -25
6 0 10 16 10 35 0 34 -20 49 -35 25z"/>
<path d="M1020 2765 c0 -28 4 -35 20 -35 16 0 20 7 20 35 0 28 -4 35 -20 35
-16 0 -20 -7 -20 -35z m30 0 c0 -14 -4 -25 -10 -25 -5 0 -10 11 -10 25 0 14 5
25 10 25 6 0 10 -11 10 -25z"/>
<path d="M1075 2790 c-3 -6 1 -7 9 -4 20 8 21 -10 1 -26 -23 -19 -18 -30 13
-29 16 1 20 3 10 6 -16 4 -16 7 -3 27 8 12 12 26 8 29 -10 10 -31 8 -38 -3z"/>
<path d="M1150 2790 c0 -5 7 -7 15 -4 8 4 15 2 15 -4 0 -6 -6 -13 -12 -15 -10
-4 -10 -6 0 -6 6 -1 12 -6 12 -12 0 -6 -7 -9 -15 -5 -8 3 -15 1 -15 -4 0 -6 9
-10 20 -10 16 0 20 7 20 35 0 28 -4 35 -20 35 -11 0 -20 -4 -20 -10z"/>
<path d="M1120 2760 c0 -5 5 -10 10 -10 6 0 10 5 10 10 0 6 -4 10 -10 10 -5 0
-10 -4 -10 -10z"/>
<path d="M1300 2931 c-16 -31 -12 -49 14 -66 35 -23 76 -5 76 33 0 15 -5 33
-12 40 -19 19 -66 15 -78 -7z m64 -7 c20 -19 20 -28 2 -43 -11 -9 -12 -7 -9
13 6 27 -13 44 -30 27 -8 -8 -6 -11 6 -11 9 0 17 -4 17 -10 0 -5 -8 -6 -17 -3
-16 6 -17 5 -3 -12 13 -16 13 -18 0 -13 -20 6 -26 48 -8 59 18 12 24 11 42 -7z"/>
<path d="M1286 2774 c-10 -26 -6 -30 9 -10 13 17 15 18 15 3 0 -19 8 -21 30
-7 8 5 11 12 7 17 -5 4 -12 1 -17 -7 -8 -13 -10 -12 -10 3 0 21 -26 23 -34 1z"/>
<path d="M1282 2710 c0 -14 2 -19 5 -12 2 6 2 18 0 25 -3 6 -5 1 -5 -13z"/>
<path d="M1300 2723 c0 -17 16 -28 37 -28 24 1 28 7 20 28 -4 9 -8 8 -16 -3
-7 -10 -11 -11 -11 -2 0 6 -7 12 -15 12 -8 0 -15 -3 -15 -7z"/>
<path d="M1384 2710 c0 -11 4 -20 8 -20 4 0 8 9 8 20 0 11 -4 20 -8 20 -4 0
-8 -9 -8 -20z"/>
<path d="M4300 2146 c0 -3 5 -17 12 -31 l12 -26 13 23 12 23 1 -22 c0 -17 6
-23 23 -22 12 0 16 3 10 6 -7 2 -13 16 -13 29 0 31 -27 32 -40 2 -6 -17 -9
-18 -9 -6 -1 14 -21 38 -21 24z"/>
<path d="M4405 2120 c-16 -7 -17 -9 -3 -9 9 -1 20 4 23 9 7 11 7 11 -20 0z"/>
<path d="M4316 2033 c10 -40 14 -41 14 -5 0 18 -5 32 -10 32 -6 0 -8 -11 -4
-27z"/>
<path d="M4348 2043 c-6 -24 1 -43 17 -43 14 0 24 28 18 48 -7 18 -30 15 -35
-5z m19 -25 c-3 -7 -5 -2 -5 12 0 14 2 19 5 13 2 -7 2 -19 0 -25z"/>
<path d="M4390 2051 c0 -5 5 -13 10 -16 15 -9 12 -27 -2 -19 -10 5 -10 4 -2
-5 9 -10 16 -10 33 1 11 7 21 17 21 22 0 4 -7 3 -16 -5 -14 -11 -15 -10 -12 6
2 12 -4 21 -14 23 -10 2 -18 -1 -18 -7z"/>
<path d="M4468 2030 c2 -16 6 -30 8 -30 2 0 4 14 4 30 0 17 -4 30 -8 30 -5 0
-7 -13 -4 -30z"/>
<path d="M4745 2578 c-13 -40 -11 -72 5 -75 17 -4 40 39 40 74 0 31 -35 31
-45 1z"/>
<path d="M4833 2574 c-3 -7 -2 -17 1 -23 4 -5 -4 -11 -16 -13 -15 -2 -24 -11
-26 -25 -2 -15 -10 -23 -23 -23 -14 0 -19 -7 -19 -30 l0 -30 75 0 75 0 0 74 0
74 -31 4 c-20 3 -33 0 -36 -8z m47 -69 l0 -55 -55 0 c-54 0 -77 15 -33 22 12
2 25 12 28 23 3 11 12 20 20 20 8 0 16 10 18 23 7 44 22 21 22 -33z"/>
<path d="M4935 2469 c-4 -6 -5 -12 -2 -15 2 -3 7 2 10 11 7 17 1 20 -8 4z"/>
<path d="M222 2248 c-7 -7 -12 -20 -12 -30 0 -14 8 -18 35 -18 29 0 35 4 33
18 -3 19 -22 42 -35 42 -5 0 -14 -5 -21 -12z m33 -28 c-3 -5 -12 -7 -20 -3
-21 7 -19 13 6 13 11 0 18 -4 14 -10z"/>
<path d="M214 2124 c5 -10 11 -27 13 -36 3 -10 9 -18 13 -18 10 0 32 61 25 69
-3 3 -8 -5 -12 -17 -6 -25 -23 -30 -23 -8 0 8 -5 18 -12 22 -8 5 -9 2 -4 -12z"/>
<path d="M282 2108 c-2 -34 1 -38 21 -37 15 1 17 3 5 6 -10 2 -18 17 -21 36
-4 31 -4 31 -5 -5z"/>
<path d="M360 2130 c-9 -6 -10 -10 -3 -10 6 0 14 -12 16 -27 3 -23 4 -21 6 10
0 20 0 37 -1 37 -2 0 -10 -5 -18 -10z"/>
<path d="M404 2116 c-8 -34 12 -62 33 -44 19 15 13 62 -9 66 -12 2 -19 -5 -24
-22z m36 -17 c0 -10 -4 -19 -10 -19 -5 0 -10 12 -10 26 0 14 4 23 10 19 6 -3
10 -15 10 -26z"/>
<path d="M460 2129 c0 -5 4 -8 9 -4 17 10 21 -12 6 -25 -20 -17 -19 -27 5 -33
11 -3 20 -1 20 4 0 5 -5 9 -11 9 -8 0 -8 5 1 15 7 8 10 22 6 30 -6 17 -36 21
-36 4z"/>
<path d="M320 2100 c0 -5 7 -10 16 -10 8 0 12 5 9 10 -3 6 -10 10 -16 10 -5 0
-9 -4 -9 -10z"/>
<path d="M363 2017 c0 -8 6 -14 14 -14 9 0 10 4 2 14 -6 7 -12 13 -14 13 -1 0
-2 -6 -2 -13z"/>
<path d="M416 2012 c-3 -5 1 -9 9 -9 8 0 12 4 9 9 -3 4 -7 8 -9 8 -2 0 -6 -4
-9 -8z"/>
<path d="M831 2570 c0 -8 6 -26 14 -40 l13 -25 11 28 c15 39 13 57 -3 29 l-12
-23 -12 23 c-6 13 -11 17 -11 8z"/>
<path d="M890 2545 c0 -32 3 -35 28 -34 27 0 27 0 3 10 -18 7 -22 15 -19 34 3
14 1 25 -3 25 -5 0 -9 -16 -9 -35z"/>
<path d="M935 2540 c3 -5 10 -10 16 -10 5 0 9 5 9 10 0 6 -7 10 -16 10 -8 0
-12 -4 -9 -10z"/>
<path d="M810 2500 c-9 -6 -10 -10 -3 -10 6 0 15 5 18 10 8 12 4 12 -15 0z"/>
<path d="M946 2473 c-12 -13 -5 -22 11 -16 17 7 17 6 0 -20 -22 -34 -22 -37 6
-36 19 0 20 1 4 8 -17 6 -17 8 -3 20 9 7 16 19 16 26 0 14 -25 27 -34 18z"/>
<path d="M830 2459 c0 -5 4 -8 9 -4 5 3 12 -9 14 -27 4 -33 4 -33 5 5 2 27 -2
37 -13 37 -8 0 -15 -5 -15 -11z"/>
<path d="M884 2456 c-10 -26 0 -51 21 -51 16 0 20 7 20 30 0 33 -30 49 -41 21z
m32 -32 c-5 -13 -10 -14 -18 -6 -6 6 -8 18 -4 28 5 13 10 14 18 6 6 -6 8 -18
4 -28z"/>
<path d="M1014 2458 c-5 -8 -2 -9 9 -5 21 8 22 -2 1 -31 -15 -21 -14 -22 13
-21 18 1 22 3 10 6 -17 4 -17 6 -2 23 18 20 13 40 -10 40 -8 0 -17 -5 -21 -12z"/>
<path d="M990 2430 c0 -5 5 -10 10 -10 6 0 10 5 10 10 0 6 -4 10 -10 10 -5 0
-10 -4 -10 -10z"/>
<path d="M647 2384 c-4 -4 -7 -17 -7 -29 0 -18 6 -22 31 -23 27 -1 30 2 27 26
-3 26 -34 42 -51 26z"/>
<path d="M4735 2290 c10 -11 20 -20 23 -20 3 0 -3 9 -13 20 -10 11 -20 20 -23
20 -3 0 3 -9 13 -20z"/>
<path d="M4724 2237 c3 -10 6 -23 6 -28 0 -17 17 -9 28 14 10 22 11 22 11 -5
1 -22 6 -28 24 -28 20 1 21 2 5 14 -10 7 -18 21 -18 30 0 22 -30 21 -30 -1 -1
-16 -2 -16 -17 2 -14 18 -15 18 -9 2z"/>
<path d="M4810 2220 c0 -5 5 -10 10 -10 6 0 10 5 10 10 0 6 -4 10 -10 10 -5 0
-10 -4 -10 -10z"/>
<path d="M4728 2164 c-8 -7 3 -54 13 -54 12 0 12 47 0 54 -4 3 -10 3 -13 0z"/>
<path d="M4763 2154 c-4 -10 -2 -19 5 -22 7 -2 9 -8 6 -14 -4 -6 -1 -9 7 -6
17 6 19 50 2 55 -7 3 -16 -3 -20 -13z"/>
<path d="M4819 2161 c10 -7 11 -13 2 -30 -8 -14 -8 -21 -1 -21 5 0 10 6 10 14
0 8 8 13 18 11 9 -1 11 0 5 2 -7 3 -13 11 -13 19 0 8 -8 14 -17 14 -14 0 -15
-2 -4 -9z"/>
<path d="M4878 2164 c-8 -7 3 -54 13 -54 12 0 12 47 0 54 -4 3 -10 3 -13 0z"/>
<path d="M3700 2026 c-8 -6 -16 -19 -16 -28 -1 -14 6 -18 32 -18 26 0 34 4 34
18 0 25 -32 43 -50 28z m32 -28 c-9 -9 -15 -9 -24 0 -9 9 -7 12 12 12 19 0 21
-3 12 -12z"/>
<path d="M3520 1953 c1 -5 7 -19 15 -33 l14 -25 10 25 c9 24 10 24 10 3 1 -17
7 -23 24 -22 12 0 16 3 10 6 -7 2 -13 16 -13 29 0 28 -24 32 -39 7 -10 -17
-10 -17 -11 0 0 9 -4 17 -10 17 -5 0 -10 -3 -10 -7z"/>
<path d="M3610 1931 c0 -8 20 -17 57 -26 7 -2 15 1 18 5 3 5 -3 7 -14 5 -11
-2 -25 3 -32 11 -13 16 -29 19 -29 5z"/>
<path d="M3706 1922 c-3 -5 1 -9 9 -9 8 0 12 4 9 9 -3 4 -7 8 -9 8 -2 0 -6 -4
-9 -8z"/>
<path d="M3574 1866 c-8 -21 -1 -49 13 -53 7 -3 15 7 19 21 3 14 10 23 15 21
4 -3 6 -12 3 -19 -3 -8 -1 -17 5 -21 7 -4 11 5 11 25 0 24 -4 31 -17 28 -10
-1 -24 1 -31 5 -7 5 -14 2 -18 -7z m13 -38 c-3 -7 -5 -2 -5 12 0 14 2 19 5 13
2 -7 2 -19 0 -25z"/>
<path d="M3538 1840 c2 -16 6 -30 8 -30 2 0 4 14 4 30 0 17 -4 30 -8 30 -5 0
-7 -13 -4 -30z"/>
<path d="M3688 1840 c2 -16 6 -30 8 -30 2 0 4 14 4 30 0 17 -4 30 -8 30 -5 0
-7 -13 -4 -30z"/>
<path d="M3650 1840 c0 -5 5 -10 10 -10 6 0 10 5 10 10 0 6 -4 10 -10 10 -5 0
-10 -4 -10 -10z"/>
<path d="M3540 1790 c-9 -6 -10 -10 -3 -10 6 0 15 5 18 10 8 12 4 12 -15 0z"/>
<path d="M3665 1791 c-6 -11 13 -26 22 -17 4 3 1 6 -6 6 -7 0 -9 5 -6 10 3 6
4 10 1 10 -3 0 -7 -4 -11 -9z"/>
<path d="M3573 1777 c0 -8 6 -14 14 -14 9 0 10 4 2 14 -6 7 -12 13 -14 13 -1
0 -2 -6 -2 -13z"/>
<path d="M3915 1830 c-4 -6 -11 -8 -16 -5 -5 3 -6 -1 -3 -10 4 -9 7 -15 8 -13
1 2 8 11 15 21 7 9 11 17 8 17 -3 0 -9 -5 -12 -10z"/>
<path d="M4090 1836 c0 -3 13 -14 28 -25 22 -16 29 -17 29 -5 0 7 -3 12 -5 9
-3 -3 -16 2 -29 10 -13 9 -23 13 -23 11z"/>
<path d="M3900 1773 c1 -5 7 -19 15 -33 l15 -25 6 22 c3 13 10 20 15 18 4 -3
6 -12 2 -20 -4 -11 2 -15 18 -14 13 0 18 3 12 6 -7 2 -13 16 -13 29 0 30 -23
31 -38 2 l-11 -23 0 23 c-1 12 -5 22 -11 22 -5 0 -10 -3 -10 -7z"/>
<path d="M4026 1753 c10 -40 14 -41 14 -5 0 18 -5 32 -10 32 -6 0 -8 -11 -4
-27z"/>
<path d="M4060 1750 c0 -20 5 -30 15 -30 8 0 15 5 15 10 0 7 6 7 19 1 10 -6
21 -8 23 -5 9 8 -4 54 -14 48 -5 -3 -7 -13 -4 -23 3 -9 -2 -6 -10 7 -23 32
-44 28 -44 -8z m22 -12 c-9 -9 -12 -7 -12 12 0 19 3 21 12 12 9 -9 9 -15 0
-24z"/>
<path d="M3990 1696 c0 -2 7 -7 16 -10 8 -3 12 -2 9 4 -6 10 -25 14 -25 6z"/>
<path d="M427 1848 c-8 -30 2 -68 18 -68 16 0 17 52 1 62 -8 6 -7 8 2 8 6 0
12 5 12 10 0 20 -28 10 -33 -12z"/>
<path d="M263 1853 c-7 -2 -13 -16 -13 -29 0 -22 4 -25 32 -22 23 2 34 9 36
22 6 27 -23 42 -55 29z m34 -29 c-3 -3 -12 -4 -19 -1 -8 3 -5 6 6 6 11 1 17
-2 13 -5z"/>
<path d="M352 1832 c-7 -20 -6 -31 4 -40 17 -16 21 -15 28 4 7 19 -3 64 -14
64 -4 0 -12 -12 -18 -28z"/>
<path d="M453 1678 c-20 -33 -13 -48 22 -48 30 0 35 3 35 24 0 32 -41 49 -57
24z m40 -25 c-7 -2 -19 -2 -25 0 -7 3 -2 5 12 5 14 0 19 -2 13 -5z"/>
<path d="M200 1667 c0 -2 5 -18 11 -36 11 -31 29 -42 29 -18 0 7 6 21 13 32
13 16 14 15 9 -13 -4 -30 -2 -32 24 -31 17 1 22 3 12 6 -12 3 -18 14 -18 34 0
34 -29 41 -37 9 -6 -23 -23 -27 -23 -6 0 8 -4 18 -10 21 -5 3 -10 4 -10 2z"/>
<path d="M310 1630 c0 -5 7 -10 16 -10 8 0 12 5 9 10 -3 6 -10 10 -16 10 -5 0
-9 -4 -9 -10z"/>
<path d="M356 1573 c-6 -14 -5 -15 5 -6 7 7 10 15 7 18 -3 3 -9 -2 -12 -12z"/>
<path d="M210 1550 c-10 -6 -11 -10 -2 -10 6 0 12 -11 12 -25 0 -14 5 -25 10
-25 6 0 10 16 10 35 0 37 -5 41 -30 25z"/>
<path d="M257 1540 c-8 -31 2 -50 25 -50 16 0 19 6 16 32 -4 39 -32 51 -41 18z
m33 -21 c0 -10 -4 -19 -10 -19 -5 0 -10 12 -10 26 0 14 4 23 10 19 6 -3 10
-15 10 -26z"/>
<path d="M315 1550 c-3 -5 -2 -10 4 -10 5 0 12 -12 14 -27 3 -23 4 -21 6 10 1
35 -11 49 -24 27z"/>
<path d="M397 1553 c22 -4 22 -6 8 -34 -9 -16 -12 -29 -7 -29 9 0 32 44 32 60
0 6 -12 9 -27 9 -24 -2 -25 -2 -6 -6z"/>
<path d="M360 1520 c0 -5 5 -10 10 -10 6 0 10 5 10 10 0 6 -4 10 -10 10 -5 0
-10 -4 -10 -10z"/>
<path d="M440 1491 c0 -6 4 -13 10 -16 6 -3 7 1 4 9 -7 18 -14 21 -14 7z"/>
<path d="M3693 1548 c-18 -25 -9 -43 25 -46 28 -3 32 0 32 21 0 33 -38 50 -57
25z m34 -24 c-3 -3 -12 -4 -19 -1 -8 3 -5 6 6 6 11 1 17 -2 13 -5z"/>
<path d="M3525 1469 c12 -38 24 -45 34 -18 10 24 10 24 10 2 1 -17 7 -23 24
-22 12 0 16 3 10 6 -7 2 -13 16 -13 29 0 28 -20 28 -37 -1 -10 -17 -12 -17
-13 -3 0 9 -5 20 -11 24 -8 4 -9 -1 -4 -17z"/>
<path d="M3615 1450 c4 -6 11 -8 16 -5 14 9 11 15 -7 15 -8 0 -12 -5 -9 -10z"/>
<path d="M3536 1373 c10 -40 14 -41 14 -5 0 18 -5 32 -10 32 -6 0 -8 -11 -4
-27z"/>
<path d="M3570 1370 c0 -19 5 -30 14 -30 20 0 29 16 21 40 -10 32 -35 25 -35
-10z m17 -12 c-3 -7 -5 -2 -5 12 0 14 2 19 5 13 2 -7 2 -19 0 -25z"/>
<path d="M3618 1395 c-8 -8 3 -55 13 -55 5 0 9 14 9 30 0 28 -9 38 -22 25z"/>
<path d="M3674 1388 c-5 -8 -2 -9 9 -5 22 8 22 -1 0 -25 -15 -17 -15 -18 13
-17 24 0 26 2 10 8 -14 5 -16 10 -8 15 7 4 12 14 12 22 0 17 -26 19 -36 2z"/>
<path d="M3687 1299 c7 -7 15 -10 18 -7 3 3 -2 9 -12 12 -14 6 -15 5 -6 -5z"/>
<path d="M3636 1292 c-2 -4 4 -8 14 -8 10 0 16 4 14 8 -3 4 -9 8 -14 8 -5 0
-11 -4 -14 -8z"/>
<path d="M4690 1485 c0 -11 24 -55 30 -55 4 0 10 10 14 23 10 37 6 44 -9 17
-14 -25 -14 -25 -15 -2 0 12 -4 22 -10 22 -5 0 -10 -2 -10 -5z"/>
<path d="M4749 1475 c-8 -28 0 -45 19 -45 11 0 13 3 6 8 -7 4 -14 18 -16 32
-3 22 -4 23 -9 5z"/>
<path d="M4818 1485 c-7 -7 3 -55 11 -55 4 0 6 14 3 30 -4 32 -5 33 -14 25z"/>
<path d="M4866 1482 c-4 -6 -4 -17 0 -24 4 -7 3 -8 -4 -4 -7 4 -12 2 -12 -3 0
-6 3 -11 8 -12 4 0 22 -2 40 -5 31 -4 33 -2 30 23 -4 34 -27 42 -36 12 l-6
-24 -6 25 c-4 17 -8 21 -14 12z m54 -27 c0 -8 -4 -15 -10 -15 -5 0 -10 7 -10
15 0 8 5 15 10 15 6 0 10 -7 10 -15z"/>
<path d="M4785 1450 c3 -5 8 -10 11 -10 2 0 4 5 4 10 0 6 -5 10 -11 10 -5 0
-7 -4 -4 -10z"/>
<path d="M4718 1383 c6 -2 10 -8 8 -12 -3 -4 1 -8 9 -8 11 0 12 4 4 14 -6 7
-17 13 -23 12 -7 0 -6 -2 2 -6z"/>
<path d="M4813 1375 c0 -8 4 -12 9 -9 5 3 6 10 3 15 -9 13 -12 11 -12 -6z"/>
<path d="M3821 1370 c13 -36 24 -38 33 -7 9 36 7 42 -9 21 -13 -17 -14 -17
-15 -1 0 9 -4 17 -9 17 -6 0 -6 -12 0 -30z"/>
<path d="M3871 1373 c-1 -28 2 -33 22 -32 15 1 17 3 5 6 -9 2 -19 16 -21 31
-4 24 -4 24 -6 -5z"/>
<path d="M3908 1363 c7 -3 16 -2 19 1 4 3 -2 6 -13 5 -11 0 -14 -3 -6 -6z"/>
<path d="M3824 1294 c3 -9 6 -23 6 -32 0 -10 3 -13 10 -6 11 11 2 54 -12 54
-6 0 -7 -7 -4 -16z"/>
<path d="M3860 1286 c0 -31 16 -42 36 -25 11 9 18 9 26 1 8 -8 14 -7 24 3 20
19 18 21 -15 19 -18 -1 -32 4 -35 12 -9 24 -36 16 -36 -10z m30 0 c0 -8 -4
-18 -10 -21 -5 -3 -10 3 -10 14 0 12 5 21 10 21 6 0 10 -6 10 -14z"/>
<path d="M3920 1300 c0 -5 5 -10 10 -10 6 0 10 5 10 10 0 6 -4 10 -10 10 -5 0
-10 -4 -10 -10z"/>
<path d="M3976 1283 c10 -40 14 -41 14 -5 0 18 -5 32 -10 32 -6 0 -8 -11 -4
-27z"/>
<path d="M3960 1221 c0 -6 4 -13 10 -16 6 -3 7 1 4 9 -7 18 -14 21 -14 7z"/>
<path d="M453 1392 c-7 -4 -11 -16 -9 -27 2 -14 12 -21 34 -23 28 -3 32 0 32
21 0 31 -30 46 -57 29z m34 -28 c-3 -3 -12 -4 -19 -1 -8 3 -5 6 6 6 11 1 17
-2 13 -5z"/>
<path d="M200 1356 c0 -2 7 -19 15 -37 l14 -34 13 33 c15 39 27 42 25 5 -2
-22 3 -29 21 -31 12 -2 22 2 22 8 0 7 -7 10 -15 6 -11 -4 -15 2 -15 24 0 23
-5 30 -19 30 -10 0 -22 -10 -26 -22 l-8 -23 -4 23 c-2 12 -9 22 -14 22 -5 0
-9 -2 -9 -4z"/>
<path d="M373 1318 c19 -18 43 -15 31 3 -3 5 -10 7 -15 3 -5 -3 -16 -2 -22 3
-7 4 -4 0 6 -9z"/>
<path d="M318 1323 c7 -3 16 -2 19 1 4 3 -2 6 -13 5 -11 0 -14 -3 -6 -6z"/>
<path d="M261 1237 c-10 -25 4 -60 22 -54 7 2 13 17 15 34 4 39 -24 54 -37 20z
m29 -16 c0 -11 -4 -23 -10 -26 -6 -4 -10 5 -10 19 0 14 5 26 10 26 6 0 10 -9
10 -19z"/>
<path d="M401 1246 c-16 -20 -10 -61 9 -61 8 0 16 10 18 23 2 16 -2 22 -15 22
-15 0 -16 2 -3 10 8 5 12 12 9 15 -4 3 -12 -1 -18 -9z m19 -42 c0 -8 -4 -12
-10 -9 -5 3 -10 10 -10 16 0 5 5 9 10 9 6 0 10 -7 10 -16z"/>
<path d="M218 1215 c2 -19 8 -35 13 -35 5 0 9 16 9 35 0 22 -5 35 -13 35 -9 0
-12 -11 -9 -35z"/>
<path d="M310 1239 c0 -5 4 -8 9 -4 5 3 12 -9 14 -27 4 -33 4 -33 5 5 2 27 -2
37 -13 37 -8 0 -15 -5 -15 -11z"/>
<path d="M203 1067 c4 -10 7 -23 7 -28 0 -5 5 -9 10 -9 15 0 12 20 -7 38 -16
16 -16 16 -10 -1z"/>
<path d="M233 1066 c4 -10 7 -22 7 -27 0 -5 10 -8 23 -8 17 1 18 2 4 6 -10 2
-16 12 -15 20 2 9 -3 18 -11 21 -10 3 -12 0 -8 -12z"/>
<path d="M301 1073 c0 -5 4 -17 9 -28 8 -18 9 -17 9 8 1 15 -3 27 -9 27 -5 0
-10 -3 -9 -7z"/>
<path d="M337 1073 c-13 -12 -7 -43 7 -43 19 0 28 14 20 34 -7 17 -16 20 -27
9z m10 -25 c-3 -8 -6 -5 -6 6 -1 11 2 17 5 13 3 -3 4 -12 1 -19z"/>
<path d="M378 1055 c2 -14 6 -25 8 -25 2 0 4 11 4 25 0 14 -4 25 -9 25 -4 0
-6 -11 -3 -25z"/>
<path d="M415 1064 l-20 -16 20 4 c12 2 19 -2 18 -9 -3 -15 13 -17 22 -4 3 5
1 12 -5 16 -6 4 -8 11 -5 16 9 14 -8 10 -30 -7z"/>
<path d="M2000 1007 c-25 -20 -13 -47 21 -47 31 0 40 25 17 48 -15 15 -19 15
-38 -1z m32 -29 c-9 -9 -15 -9 -24 0 -9 9 -7 12 12 12 19 0 21 -3 12 -12z"/>
<path d="M1785 943 c4 -10 10 -26 12 -35 8 -27 20 -22 32 14 13 37 6 52 -8 17
l-10 -24 -7 23 c-3 12 -11 22 -16 22 -6 0 -7 -8 -3 -17z"/>
<path d="M1852 928 c-2 -34 1 -38 21 -37 15 1 17 3 5 6 -10 2 -18 17 -21 36
-4 31 -4 31 -5 -5z"/>
<path d="M1890 920 c0 -5 7 -10 15 -10 8 0 15 5 15 10 0 6 -7 10 -15 10 -8 0
-15 -4 -15 -10z"/>
<path d="M1798 845 c-8 -8 3 -65 13 -65 5 0 9 16 9 35 0 32 -8 43 -22 30z"/>
<path d="M1847 844 c-4 -4 -7 -20 -7 -36 0 -22 5 -28 21 -28 17 0 20 5 17 32
-3 31 -17 45 -31 32z m23 -29 c0 -14 -4 -25 -10 -25 -5 0 -10 11 -10 25 0 14
5 25 10 25 6 0 10 -11 10 -25z"/>
<path d="M1895 840 c-3 -5 -2 -10 4 -10 5 0 12 -12 14 -27 3 -23 4 -21 6 10 1
35 -11 49 -24 27z"/>
<path d="M1975 840 c-3 -6 1 -7 9 -4 9 3 16 2 16 -4 0 -6 -6 -13 -12 -15 -10
-4 -10 -6 0 -6 6 -1 12 -6 12 -12 0 -6 -7 -9 -15 -5 -8 3 -15 1 -15 -4 0 -6 9
-10 20 -10 16 0 20 7 20 35 0 34 -20 49 -35 25z"/>
<path d="M1940 810 c0 -5 5 -10 10 -10 6 0 10 5 10 10 0 6 -4 10 -10 10 -5 0
-10 -4 -10 -10z"/>
<path d="M2000 647 c-8 -7 -16 -20 -18 -29 -2 -14 4 -18 33 -18 27 0 35 4 35
18 0 17 -18 42 -29 42 -4 0 -13 -6 -21 -13z m40 -21 c0 -9 -30 -14 -35 -6 -4
6 3 10 14 10 12 0 21 -2 21 -4z"/>
<path d="M1860 635 c0 -1 8 -9 17 -16 11 -10 14 -10 9 -1 -10 17 4 15 25 -4
16 -14 17 -14 15 2 -2 13 -12 19 -34 20 -18 1 -32 0 -32 -1z"/>
<path d="M1780 603 c0 -14 24 -73 30 -73 8 0 31 63 25 68 -2 3 -9 -6 -14 -19
l-9 -24 -11 28 c-10 25 -21 36 -21 20z"/>
<path d="M1852 568 c-2 -32 1 -38 18 -38 11 0 20 5 20 10 0 6 7 10 15 10 8 0
15 5 15 10 0 16 -27 12 -34 -5 -9 -26 -25 -17 -29 18 -4 31 -4 31 -5 -5z"/>
<path d="M1794 474 c3 -9 6 -24 6 -35 0 -10 5 -19 10 -19 6 0 10 16 10 35 0
25 -4 35 -16 35 -11 0 -14 -5 -10 -16z"/>
<path d="M1842 458 c2 -22 9 -34 21 -36 14 -3 17 4 17 32 0 30 -4 36 -21 36
-17 0 -20 -5 -17 -32z m28 -3 c0 -14 -4 -25 -10 -25 -5 0 -10 11 -10 25 0 14
5 25 10 25 6 0 10 -11 10 -25z"/>
<path d="M1895 480 c-3 -5 -2 -10 4 -10 5 0 12 -12 14 -27 3 -23 4 -21 6 10 1
35 -11 49 -24 27z"/>
<path d="M1982 470 c-16 -26 -15 -30 3 -30 8 0 15 -6 15 -12 0 -10 2 -10 9 0
9 14 3 62 -8 62 -3 0 -12 -9 -19 -20z m18 -10 c0 -5 -5 -10 -11 -10 -5 0 -7 5
-4 10 3 6 8 10 11 10 2 0 4 -4 4 -10z"/>
<path d="M1940 450 c0 -5 5 -10 10 -10 6 0 10 5 10 10 0 6 -4 10 -10 10 -5 0
-10 -4 -10 -10z"/>
<path d="M246 2648 c3 -5 10 -6 15 -3 13 9 11 12 -6 12 -8 0 -12 -4 -9 -9z"/>
</g>
</svg>
