<?xml version="1.0" standalone="no"?>
<!DOCTYPE svg PUBLIC "-//W3C//DTD SVG 20010904//EN"
 "http://www.w3.org/TR/2001/REC-SVG-20010904/DTD/svg10.dtd">
<svg version="1.0" xmlns="http://www.w3.org/2000/svg"
 width="600.000000pt" height="600.000000pt" viewBox="0 0 600.000000 600.000000"
 preserveAspectRatio="xMidYMid meet">
<g transform="translate(0.000000,600.000000) scale(0.100000,-0.100000)"
fill="#000000" stroke="none">
<path d="M1210 5605 l0 -295 -55 0 -55 0 0 -160 0 -160 50 0 50 0 0 -465 0
-465 -55 0 -55 0 0 -150 0 -150 38 0 37 0 0 -215 0 -215 -135 0 -135 0 3 -165
3 -165 -153 0 -153 0 3 -160 3 -160 -146 0 -145 0 0 -180 0 -180 -65 0 -65 0
-1 -587 c-1 -324 -2 -626 -2 -673 l0 -85 84 -3 84 -3 -3 -189 -3 -190 -84 0
-85 0 0 -132 0 -131 302 6 c166 4 598 7 960 7 l658 0 0 465 0 465 105 0 105 0
-4 -40 c-2 -23 -2 -50 1 -60 5 -20 23 -20 1354 -20 l1349 0 0 765 0 765 363 0
362 -1 2 126 2 125 -84 0 -85 0 0 510 0 510 -35 0 c-24 0 -35 5 -35 15 0 13
-30 15 -210 15 l-210 0 0 745 0 745 -55 0 -55 0 0 -90 0 -90 -45 0 -45 0 0
305 0 305 -1830 0 -1830 0 0 -295z m3650 -25 l0 -310 55 0 55 0 0 90 0 90 40
0 40 0 0 -740 0 -740 215 0 c184 0 215 -2 215 -15 0 -10 11 -15 35 -15 l35 0
0 -515 0 -515 80 0 80 0 0 -110 0 -110 -365 0 -365 0 0 -167 0 -168 -162 2
-163 2 -3 766 -2 765 -50 0 -50 0 0 70 0 70 155 0 155 0 0 60 0 60 70 0 70 0
0 394 0 393 -70 -5 -70 -4 0 56 0 56 -200 0 -200 0 0 -497 0 -498 -152 2 -153
2 -3 411 -2 410 -48 0 -47 0 0 77 0 78 -142 3 c-118 2 -143 5 -143 17 0 13
-42 15 -295 15 l-295 0 0 -505 0 -505 -880 0 -880 0 0 65 0 65 -105 0 -105 0
0 414 0 415 -47 -2 -48 -2 -3 143 -3 142 61 0 60 0 0 300 0 300 1815 0 1815 0
0 -310z m-1100 -1045 l0 -505 388 0 387 0 0 -70 0 -70 -378 0 -377 0 2 -772 3
-773 28 -56 c32 -67 109 -142 175 -172 44 -21 63 -22 350 -25 l302 -3 0 -165
0 -164 -85 0 -85 0 0 -79 0 -80 -32 -3 -33 -3 0 -213 0 -212 -1047 0 -1048 0
0 60 0 60 -115 0 -115 0 0 -470 0 -470 -750 0 -749 0 2 120 2 120 -112 0 -113
0 0 190 0 190 70 0 70 0 0 115 0 115 -155 0 -155 0 0 550 0 549 67 3 68 3 0
178 0 177 143 0 142 0 0 165 0 165 290 0 290 0 0 -95 0 -95 120 0 120 0 0 220
0 220 155 0 155 0 0 315 0 315 -265 0 -265 0 0 148 0 147 98 -1 97 -2 3 -66 3
-66 889 0 c883 0 890 0 890 20 0 19 7 20 140 20 l140 0 0 450 0 450 -140 0
-140 0 0 35 0 35 285 0 285 0 0 -505z m1080 440 l0 -55 75 0 75 0 0 -375 0
-374 -72 -3 -73 -3 -3 -60 -3 -60 -157 2 c-86 1 -169 2 -184 2 l-28 1 0 490 0
490 185 0 185 0 0 -55z m-800 -35 l0 -70 -135 0 -135 0 0 70 0 70 135 0 135 0
0 -70z m-590 -415 l0 -435 -130 0 -130 0 0 435 0 435 130 0 130 0 0 -435z
m685 130 l0 -200 -127 0 -128 0 0 63 0 62 -55 0 -55 0 0 135 0 134 138 3 c75
2 157 3 182 3 l45 0 0 -200z m-265 -199 l0 -104 -50 1 -50 0 0 104 0 103 50 0
50 0 0 -104z m270 -211 l0 -195 -185 0 -185 0 0 145 0 145 55 0 55 0 0 50 0
50 130 0 130 0 0 -195z m-2940 -355 c0 -93 -4 -150 -10 -150 -5 0 -10 7 -10
15 0 11 -11 15 -40 15 l-40 0 0 135 0 135 50 0 50 0 0 -150z m2790 -145 l0
-135 -100 0 -100 0 0 135 0 135 100 0 100 0 0 -135z m210 35 l0 -100 28 0 27
0 -2 -157 -2 -158 -123 0 -123 0 -3 258 -2 257 100 0 100 0 0 -100z m440 -195
l0 -295 -185 0 -185 0 0 200 0 200 -30 0 -30 0 0 95 0 95 215 0 215 0 0 -295z
m-3220 213 l0 -58 -105 0 -105 0 0 58 0 57 105 0 105 0 0 -57z m307 -247 l1
-301 -149 0 -149 0 0 303 0 302 148 -1 147 -1 2 -302z m-307 -181 c0 -198 -3
-360 -7 -360 -5 0 -119 -3 -255 -6 l-248 -6 0 161 0 161 135 0 135 0 0 204 0
205 120 0 120 1 0 -360z m2570 90 l0 -140 -100 0 -100 0 0 140 0 140 100 0
100 0 0 -140z m80 -125 c0 -10 -11 -15 -35 -15 -24 0 -35 5 -35 15 0 10 11 15
35 15 24 0 35 -5 35 -15z m185 -22 l0 -38 193 0 192 0 0 -437 0 -438 -66 0
-66 0 4 -151 3 -151 -230 4 c-225 3 -231 4 -287 30 -79 37 -140 96 -174 171
l-29 62 -3 328 -3 327 145 0 146 0 0 165 0 165 88 0 87 0 0 -37z m-185 -138
l0 -135 -140 0 -140 0 0 135 0 135 140 0 140 0 0 -135z m-2650 -270 l0 -85
-105 0 -105 0 0 85 0 85 105 0 105 0 0 -85z m3220 -660 l0 -145 -55 0 -55 0 0
145 0 145 55 0 55 0 0 -145z m340 -220 l0 -315 -65 0 -65 0 0 165 0 165 -100
0 -100 0 0 150 0 150 165 0 165 0 0 -315z m-145 -75 l0 -70 -92 0 -93 0 0 70
0 70 93 0 92 0 0 -70z m0 -165 l0 -75 -92 0 -93 0 0 75 0 75 93 0 92 0 0 -75z
m-195 -60 l0 -25 170 0 170 0 0 -265 0 -265 -165 0 -165 0 0 215 0 215 -80 0
-80 0 0 75 0 75 75 0 c73 0 75 -1 75 -25z m0 -350 l0 -205 -110 0 -110 0 0
205 0 205 110 0 110 0 0 -205z m-4150 -290 l0 -95 -35 0 c-33 0 -35 2 -35 35
0 24 -5 35 -15 35 -8 0 -15 -4 -15 -10 0 -5 5 -10 10 -10 6 0 10 -11 10 -25 0
-26 2 -26 -100 -30 -19 -1 -47 4 -62 10 -25 10 -26 12 -12 27 18 17 11 38 -11
38 -8 0 -17 -5 -21 -12 -5 -8 -2 -9 9 -5 20 8 23 -13 5 -31 -10 -10 -10 -15 2
-23 12 -9 12 -10 -3 -5 -10 3 -21 6 -23 6 -2 0 -4 43 -4 95 l0 95 150 0 150 0
0 -95z m80 -620 l0 -115 -195 0 -195 0 0 115 0 115 195 0 195 0 0 -115z"/>
<path d="M4690 3876 c0 -2 7 -7 16 -10 8 -3 12 -2 9 4 -6 10 -25 14 -25 6z"/>
<path d="M4611 4535 c-1 -21 15 -53 23 -45 2 3 6 16 9 30 2 14 2 19 0 13 -6
-19 -21 -16 -26 5 -4 14 -5 14 -6 -3z"/>
<path d="M4661 4524 c-1 -39 20 -50 45 -23 16 18 16 19 0 19 -9 0 -14 -4 -11
-10 3 -5 -1 -10 -9 -10 -8 0 -16 12 -19 28 -4 26 -4 26 -6 -4z"/>
<path d="M4726 4541 c-4 -5 0 -11 6 -14 10 -3 10 -7 -1 -20 -11 -14 -11 -17 1
-17 7 0 15 11 16 25 2 25 -12 42 -22 26z"/>
<path d="M4763 4534 c-7 -18 9 -51 23 -46 14 3 11 55 -3 59 -7 3 -16 -3 -20
-13z m27 -19 c0 -8 -4 -15 -10 -15 -5 0 -10 7 -10 15 0 8 5 15 10 15 6 0 10
-7 10 -15z"/>
<path d="M4817 4543 c-4 -3 -7 -13 -7 -20 0 -12 3 -12 15 1 8 8 15 17 15 20 0
8 -15 7 -23 -1z"/>
<path d="M4822 4505 c-11 -12 -10 -15 3 -15 8 0 15 7 15 15 0 18 -2 18 -18 0z"/>
<path d="M3267 4653 c-4 -3 -1 -13 5 -21 10 -12 8 -18 -11 -33 -12 -10 -20
-23 -16 -29 10 -16 19 -12 33 17 20 45 13 91 -11 66z"/>
<path d="M3348 4633 c0 -5 -1 -15 -2 -23 -1 -8 -11 -16 -23 -18 -15 -2 -23
-10 -23 -23 0 -12 -7 -19 -20 -19 -16 0 -20 -7 -20 -30 l0 -30 70 0 70 0 0 75
c0 73 -1 75 -25 75 -14 0 -26 -3 -27 -7z m42 -73 l0 -60 -55 0 c-42 0 -55 3
-55 15 0 8 9 15 20 15 15 0 20 7 20 25 0 19 5 25 18 23 11 -2 18 4 20 20 2 12
10 22 18 22 11 0 14 -15 14 -60z"/>
<path d="M3245 4620 c-3 -5 -2 -10 4 -10 5 0 13 5 16 10 3 6 2 10 -4 10 -5 0
-13 -4 -16 -10z"/>
<path d="M3803 4760 c14 -37 20 -38 34 -2 l11 27 1 -27 c1 -22 6 -28 24 -27
16 1 18 2 5 6 -11 3 -18 14 -18 29 0 28 -30 34 -30 7 -1 -17 -1 -17 -14 0 -20
26 -26 21 -13 -13z"/>
<path d="M3910 4780 c0 -5 8 -6 18 -3 15 6 15 5 3 -10 -10 -13 -17 -15 -27 -6
-18 15 -18 2 0 -17 8 -8 23 -14 33 -13 10 0 13 3 6 6 -9 3 -10 10 -3 22 5 10
6 21 3 25 -10 9 -33 7 -33 -4z"/>
<path d="M3966 4763 c10 -40 14 -41 14 -5 0 18 -5 32 -10 32 -6 0 -8 -11 -4
-27z"/>
<path d="M3994 4778 c-5 -8 -2 -9 9 -5 18 7 24 -8 7 -18 -18 -11 -11 -25 13
-24 20 0 20 1 3 8 -14 5 -16 10 -8 15 7 4 12 14 12 22 0 17 -26 19 -36 2z"/>
<path d="M4063 4633 c-20 -7 -15 -33 6 -33 11 0 22 4 25 9 8 12 -16 29 -31 24z"/>
<path d="M4040 4566 c0 -57 13 -96 31 -96 14 0 19 7 19 25 0 14 5 25 11 25 6
0 9 14 7 32 -3 29 -7 33 -35 34 -28 1 -33 -2 -33 -20z"/>
<path d="M3890 4269 l-30 -32 0 27 c0 30 -23 35 -39 9 -10 -17 -10 -17 -11 0
0 9 -4 17 -10 17 -13 0 -12 -10 4 -39 l13 -24 11 29 c9 26 11 26 11 6 1 -27
29 -41 42 -21 6 11 11 11 21 1 20 -20 35 -14 36 18 1 43 -13 45 -48 9z m36 -8
c0 -11 -5 -17 -13 -14 -14 6 -17 16 -6 26 11 12 19 7 19 -12z"/>
<path d="M3958 4260 c2 -16 8 -28 12 -25 9 5 1 55 -9 55 -4 0 -6 -13 -3 -30z"/>
<path d="M3992 4263 c4 -36 33 -39 33 -3 0 16 -6 26 -18 28 -15 3 -18 -2 -15
-25z m28 2 c0 -8 -4 -15 -10 -15 -5 0 -10 7 -10 15 0 8 5 15 10 15 6 0 10 -7
10 -15z"/>
<path d="M4057 4234 c-14 -15 -6 -34 14 -34 14 0 19 5 17 17 -3 18 -20 27 -31
17z"/>
<path d="M3990 4196 c0 -2 7 -7 16 -10 8 -3 12 -2 9 4 -6 10 -25 14 -25 6z"/>
<path d="M4047 4183 c-2 -5 -7 -20 -11 -35 -5 -21 -3 -28 9 -28 8 0 15 -9 15
-20 0 -12 7 -20 16 -20 11 0 15 6 11 20 -3 13 0 20 9 20 15 0 17 12 8 48 -4
15 -14 22 -30 22 -12 0 -25 -3 -27 -7z"/>
<path d="M3804 3800 c3 -14 6 -28 6 -32 0 -18 17 -6 27 20 l11 27 1 -27 c1
-22 6 -28 24 -27 16 1 18 2 5 6 -11 3 -18 14 -18 29 0 28 -30 34 -30 7 -1 -16
-2 -16 -17 2 -15 20 -15 19 -9 -5z"/>
<path d="M3888 3783 c7 -3 16 -2 19 1 4 3 -2 6 -13 5 -11 0 -14 -3 -6 -6z"/>
<path d="M3800 3718 c0 -5 5 -6 10 -3 6 3 10 2 10 -4 0 -5 -4 -13 -10 -16 -25
-15 -5 -24 48 -22 54 3 57 4 60 30 3 21 -1 27 -15 27 -10 0 -14 -4 -8 -8 17
-12 18 -42 0 -36 -8 3 -15 14 -15 24 0 14 -9 17 -40 17 -22 0 -40 -4 -40 -9z
m70 -19 c0 -11 -4 -17 -10 -14 -5 3 -10 13 -10 21 0 8 5 14 10 14 6 0 10 -9
10 -21z m-30 -4 c0 -8 -4 -15 -10 -15 -5 0 -7 7 -4 15 4 8 8 15 10 15 2 0 4
-7 4 -15z"/>
<path d="M3950 3720 c0 -5 7 -7 15 -4 8 4 15 8 15 10 0 2 -7 4 -15 4 -8 0 -15
-4 -15 -10z"/>
<path d="M3930 3706 c0 -10 26 -36 37 -36 5 0 9 9 9 19 0 14 -4 17 -11 11 -7
-6 -16 -5 -23 2 -7 7 -12 9 -12 4z"/>
<path d="M4044 3600 c3 -14 6 -28 6 -32 0 -18 17 -6 27 20 l11 27 1 -27 c1
-22 6 -28 24 -27 16 1 18 2 5 6 -11 3 -18 14 -18 29 0 28 -30 34 -30 7 -1 -16
-2 -16 -17 2 -15 20 -15 19 -9 -5z"/>
<path d="M4128 3583 c7 -3 16 -2 19 1 4 3 -2 6 -13 5 -11 0 -14 -3 -6 -6z"/>
<path d="M4191 3577 c-8 -10 -7 -14 2 -14 8 0 14 6 14 14 0 7 -1 13 -2 13 -2
0 -8 -6 -14 -13z"/>
<path d="M4136 3531 c-4 -6 -3 -11 1 -11 5 0 9 -9 10 -20 1 -11 -2 -18 -8 -15
-5 4 -9 1 -9 -5 0 -21 25 -4 28 19 4 27 -12 49 -22 32z"/>
<path d="M4040 3518 c0 -5 5 -6 10 -3 6 3 10 2 10 -4 0 -5 -4 -13 -10 -16 -22
-14 -8 -25 28 -23 32 3 37 7 40 29 3 24 0 26 -37 26 -23 0 -41 -4 -41 -9z m70
-19 c0 -11 -4 -17 -10 -14 -5 3 -10 13 -10 21 0 8 5 14 10 14 6 0 10 -9 10
-21z m-30 -4 c0 -8 -4 -15 -10 -15 -5 0 -7 7 -4 15 4 8 8 15 10 15 2 0 4 -7 4
-15z"/>
<path d="M4190 3520 c0 -6 4 -9 8 -6 4 2 9 -5 9 -16 2 -19 1 -19 -18 -3 -22
21 -26 11 -4 -12 21 -21 46 -9 41 19 -3 23 -36 39 -36 18z"/>
<path d="M4295 3709 c-4 -6 -5 -12 -2 -15 2 -3 7 2 10 11 7 17 1 20 -8 4z"/>
<path d="M4340 3563 c1 -4 7 -19 15 -33 l14 -25 10 25 c9 24 10 24 10 3 1 -17
7 -23 24 -22 12 0 16 3 10 6 -7 2 -13 16 -13 29 0 28 -20 28 -37 -1 -10 -17
-12 -17 -13 -3 0 9 -4 20 -10 23 -5 3 -10 3 -10 -2z"/>
<path d="M4454 3559 c-5 -9 -2 -10 9 -6 22 8 22 -1 0 -25 -15 -17 -15 -18 3
-18 15 0 20 7 19 27 0 29 -18 42 -31 22z"/>
<path d="M4507 3563 c-4 -3 -7 -17 -7 -29 0 -20 4 -23 33 -20 35 3 37 5 37 39
0 17 -2 19 -9 7 -6 -8 -7 -19 -5 -25 3 -5 -3 0 -14 13 -22 24 -25 25 -35 15z
m16 -18 c4 -8 2 -17 -3 -20 -6 -4 -10 3 -10 14 0 25 6 27 13 6z"/>
<path d="M4354 3466 c1 -8 5 -18 8 -22 4 -3 5 1 4 10 -1 8 -5 18 -8 22 -4 3
-5 -1 -4 -10z"/>
<path d="M4570 3470 c-9 -6 -10 -10 -3 -10 6 0 15 5 18 10 8 12 4 12 -15 0z"/>
<path d="M4505 3461 c-3 -5 -2 -12 3 -15 5 -3 9 1 9 9 0 17 -3 19 -12 6z"/>
<path d="M1471 3570 c13 -36 24 -38 33 -7 9 35 6 44 -6 17 -11 -25 -11 -25
-15 -2 -3 12 -8 22 -13 22 -5 0 -4 -13 1 -30z"/>
<path d="M1521 3573 c-1 -26 3 -33 18 -33 10 0 24 7 31 15 10 12 9 15 -4 15
-10 0 -14 -4 -11 -10 3 -5 -1 -10 -9 -10 -8 0 -16 12 -19 28 -4 25 -4 25 -6
-5z"/>
<path d="M1464 3498 c-5 -8 -2 -9 9 -5 18 7 24 -8 7 -18 -24 -15 -6 -23 53
-22 34 0 56 2 49 4 -6 3 -10 9 -7 13 3 5 13 6 22 3 14 -6 14 -3 -2 13 -28 29
-79 27 -83 -3 -2 -13 -7 -23 -11 -23 -5 0 -6 11 -3 25 3 18 0 25 -11 25 -9 0
-19 -5 -23 -12z m68 -30 c-9 -9 -12 -7 -12 12 0 19 3 21 12 12 9 -9 9 -15 0
-24z m35 5 c-15 -16 -17 -16 -17 -1 0 9 6 18 13 21 20 7 22 -2 4 -20z"/>
<path d="M1620 3499 c0 -5 5 -7 10 -4 6 3 10 2 10 -4 0 -5 -4 -13 -10 -16 -15
-9 -12 -25 5 -25 10 0 15 10 15 30 0 20 -5 30 -15 30 -8 0 -15 -5 -15 -11z"/>
<path d="M1664 3496 c-8 -22 3 -49 19 -43 6 2 12 14 12 27 0 27 -22 39 -31 16z
m18 -28 c-9 -9 -12 -7 -12 12 0 19 3 21 12 12 9 -9 9 -15 0 -24z"/>
<path d="M1223 3613 c4 -3 0 -15 -10 -25 -19 -21 -6 -24 20 -4 22 17 22 36 0
36 -9 0 -13 -3 -10 -7z"/>
<path d="M1308 3578 c-2 -15 -10 -23 -23 -23 -13 0 -21 -8 -23 -22 -2 -15 -10
-23 -23 -23 -14 0 -19 -7 -19 -30 l0 -30 70 0 70 0 0 75 c0 73 -1 75 -24 75
-18 0 -25 -6 -28 -22z m40 -55 l-3 -57 -52 -1 c-44 -1 -53 2 -53 16 0 10 7 16
17 15 12 0 19 7 21 22 2 14 10 22 23 22 12 0 19 7 19 20 0 11 7 20 15 20 13 0
15 -11 13 -57z"/>
<path d="M1223 3563 c-29 -20 -29 -33 -1 -33 12 0 18 3 15 7 -4 3 0 15 10 25
20 22 6 23 -24 1z"/>
<path d="M1366 3228 c3 -5 10 -6 15 -3 13 9 11 12 -6 12 -8 0 -12 -4 -9 -9z"/>
<path d="M3851 3504 c0 -18 5 -34 12 -37 16 -6 53 20 42 30 -4 5 -10 2 -12 -4
-8 -23 -32 -13 -36 15 -4 26 -4 26 -6 -4z"/>
<path d="M3806 3500 c3 -14 8 -27 11 -30 6 -7 23 22 23 40 0 13 -1 13 -10 0
-9 -13 -11 -13 -21 0 -8 12 -9 9 -3 -10z"/>
<path d="M3803 3427 c-3 -6 -1 -7 5 -3 15 9 15 1 2 -25 -10 -18 -8 -19 27 -17
33 3 38 7 38 28 0 21 -5 25 -33 26 -18 1 -35 -3 -39 -9z m63 -34 c-11 -11 -19
6 -11 24 8 17 8 17 12 0 3 -10 2 -21 -1 -24z m-26 12 c0 -8 -4 -15 -10 -15 -5
0 -7 7 -4 15 4 8 8 15 10 15 2 0 4 -7 4 -15z"/>
<path d="M3890 3429 c0 -5 4 -8 9 -5 12 8 8 -27 -4 -36 -6 -4 -2 -8 8 -8 12 0
17 8 17 30 0 20 -5 30 -15 30 -8 0 -15 -5 -15 -11z"/>
<path d="M3958 3434 c-8 -7 3 -54 13 -54 12 0 12 47 0 54 -4 3 -10 3 -13 0z"/>
<path d="M4131 2705 c0 -5 6 -21 13 -34 l13 -24 11 29 10 29 1 -27 c1 -22 6
-28 24 -27 12 0 16 3 10 6 -7 2 -13 16 -13 29 0 27 -27 34 -36 9 -6 -14 -8
-13 -20 2 -7 10 -13 14 -13 8z"/>
<path d="M4236 2695 c-11 -8 -16 -18 -12 -22 4 -4 12 0 17 10 6 9 15 17 21 17
6 0 3 -11 -6 -25 -16 -24 -16 -25 6 -25 17 0 19 3 9 9 -9 6 -10 11 -2 15 15
10 14 36 -1 36 -7 0 -22 -7 -32 -15z"/>
<path d="M4292 2683 c3 -30 23 -41 31 -18 9 21 -2 45 -20 45 -10 0 -13 -9 -11
-27z m15 -15 c-3 -7 -5 -2 -5 12 0 14 2 19 5 13 2 -7 2 -19 0 -25z"/>
<path d="M4337 2698 c4 -7 6 -21 5 -30 -2 -10 2 -18 7 -18 6 0 11 14 11 30 0
21 -5 30 -16 30 -10 0 -12 -4 -7 -12z"/>
<path d="M4086 2652 c-2 -4 4 -8 14 -8 10 0 16 4 14 8 -3 4 -9 8 -14 8 -5 0
-11 -4 -14 -8z"/>
<path d="M3895 2309 c-4 -6 -5 -12 -2 -15 2 -3 7 2 10 11 7 17 1 20 -8 4z"/>
<path d="M3878 2278 c8 -9 11 -21 8 -27 -7 -11 20 -8 31 4 5 4 2 5 -6 0 -11
-6 -13 -4 -7 11 4 10 4 15 0 11 -4 -4 -14 -1 -23 6 -14 10 -14 10 -3 -5z"/>
<path d="M3822 3215 c11 -24 28 -34 28 -16 0 5 3 18 6 28 6 16 5 16 -9 -2 -15
-18 -16 -18 -17 -2 0 9 -4 17 -10 17 -6 0 -5 -10 2 -25z"/>
<path d="M3871 3213 c-1 -23 3 -33 14 -33 8 0 15 5 15 10 0 6 -4 10 -9 10 -5
0 -12 10 -14 23 -3 16 -5 13 -6 -10z"/>
<path d="M3905 3210 c3 -5 11 -10 16 -10 6 0 7 5 4 10 -3 6 -11 10 -16 10 -6
0 -7 -4 -4 -10z"/>
<path d="M3820 3149 c0 -5 5 -7 10 -4 6 3 10 2 10 -4 0 -5 -4 -13 -10 -16 -22
-14 -8 -26 28 -23 32 3 37 6 37 28 0 32 -29 34 -33 3 -2 -13 -7 -23 -11 -23
-5 0 -6 11 -3 25 3 18 0 25 -12 25 -9 0 -16 -5 -16 -11z m70 -24 c0 -8 -4 -15
-10 -15 -5 0 -10 7 -10 15 0 8 5 15 10 15 6 0 10 -7 10 -15z"/>
<path d="M3916 3133 c10 -40 14 -41 14 -5 0 18 -5 32 -10 32 -6 0 -8 -11 -4
-27z"/>
<path d="M3970 3150 c-9 -6 -10 -10 -3 -10 6 0 14 -10 16 -22 3 -17 5 -14 6
10 1 36 2 35 -19 22z"/>
<path d="M3959 3073 c-13 -16 -12 -17 4 -4 16 13 21 21 13 21 -2 0 -10 -8 -17
-17z"/>
<path d="M1276 2934 c-23 -22 -20 -51 8 -69 48 -31 102 18 69 64 -17 25 -55
27 -77 5z m24 -9 c-10 -12 -10 -15 4 -15 9 0 16 -4 16 -10 0 -5 -8 -6 -17 -3
-16 6 -17 5 -3 -12 13 -16 13 -18 0 -13 -20 6 -25 35 -10 53 7 8 15 15 17 15
3 0 0 -7 -7 -15z m50 -20 c0 -7 -6 -17 -12 -23 -10 -8 -13 -2 -14 24 0 27 2
31 13 23 7 -7 13 -17 13 -24z"/>
<path d="M4730 2228 c0 -4 5 -19 11 -35 l11 -28 14 30 13 30 1 -27 c0 -23 4
-28 23 -27 16 1 18 2 5 6 -11 3 -18 14 -18 29 0 28 -30 34 -30 7 -1 -16 -2
-16 -15 1 -8 11 -15 17 -15 14z"/>
<path d="M4820 2200 c0 -5 5 -10 10 -10 6 0 10 5 10 10 0 6 -4 10 -10 10 -5 0
-10 -4 -10 -10z"/>
<path d="M4743 2143 c-7 -3 -13 -9 -13 -14 0 -6 5 -7 11 -4 13 9 51 -24 42
-38 -3 -5 0 -8 8 -5 8 2 15 17 17 32 3 22 0 27 -15 25 -10 -2 -22 -1 -28 2 -5
4 -16 4 -22 2z m57 -23 c0 -5 -2 -10 -4 -10 -3 0 -8 5 -11 10 -3 6 -1 10 4 10
6 0 11 -4 11 -10z"/>
<path d="M4820 2140 c0 -5 5 -10 10 -10 7 0 7 -7 0 -21 -7 -11 -9 -23 -7 -26
3 -3 12 8 21 25 8 16 12 32 9 36 -10 10 -33 7 -33 -4z"/>
<path d="M4889 2131 c7 -5 11 -13 8 -18 -3 -5 -2 -15 4 -23 6 -11 9 -6 9 18 0
24 -4 32 -17 32 -14 0 -15 -2 -4 -9z"/>
<path d="M4933 2125 c0 -7 6 -11 14 -8 7 3 13 6 13 8 0 2 -6 5 -13 8 -8 3 -14
-1 -14 -8z"/>
<path d="M4742 2108 c-18 -18 -14 -28 11 -27 12 0 17 3 10 5 -7 3 -9 12 -6 20
6 17 1 18 -15 2z"/>
<path d="M4860 2110 c0 -5 5 -10 10 -10 6 0 10 5 10 10 0 6 -4 10 -10 10 -5 0
-10 -4 -10 -10z"/>
<path d="M4702 1409 c11 -33 21 -29 33 11 7 24 7 24 -9 5 -14 -18 -15 -18 -16
-2 0 9 -4 17 -9 17 -6 0 -6 -12 1 -31z"/>
<path d="M4751 1423 c0 -13 -2 -26 -3 -30 -1 -5 7 -9 18 -11 12 -2 15 0 8 5
-7 4 -14 19 -17 33 -4 23 -4 23 -6 3z"/>
<path d="M4804 1428 c-5 -8 -2 -9 9 -5 18 7 24 -8 7 -18 -21 -13 -8 -25 25
-22 31 2 35 5 35 30 0 17 -4 26 -11 22 -6 -4 -8 -14 -5 -22 3 -8 1 -11 -4 -8
-6 3 -10 1 -10 -4 0 -6 -8 -11 -17 -11 -13 0 -14 3 -5 12 7 7 12 18 12 25 0
16 -26 17 -36 1z"/>
<path d="M4894 1426 c-8 -22 3 -49 19 -43 6 2 12 14 12 27 0 27 -22 39 -31 16z
m26 -17 c0 -11 -4 -17 -10 -14 -5 3 -10 13 -10 21 0 8 5 14 10 14 6 0 10 -9
10 -21z"/>
<path d="M4463 1453 c4 -3 0 -15 -10 -25 -22 -25 -2 -23 25 2 27 26 27 30 0
30 -12 0 -18 -3 -15 -7z"/>
<path d="M4550 1421 c0 -13 -8 -21 -22 -23 -15 -2 -24 -11 -26 -25 -2 -15 -10
-23 -23 -23 -16 0 -20 -6 -17 -27 3 -27 5 -28 71 -31 l67 -3 0 76 c0 73 -1 75
-25 75 -18 0 -25 -5 -25 -19z m40 -51 l0 -60 -55 0 c-42 0 -55 3 -55 15 0 8 9
15 20 15 13 0 20 7 20 20 0 13 7 20 20 20 15 0 20 7 20 25 0 16 6 25 15 25 12
0 15 -13 15 -60z"/>
<path d="M4463 1406 c-29 -14 -30 -36 -1 -36 12 0 18 3 15 7 -4 3 0 15 10 25
18 20 10 21 -24 4z"/>
<path d="M200 1167 c0 -14 23 -67 29 -67 4 0 12 16 18 35 6 19 7 33 2 29 -5
-3 -9 -12 -9 -20 0 -8 -4 -14 -10 -14 -5 0 -10 6 -10 14 0 8 -4 18 -10 21 -5
3 -10 4 -10 2z"/>
<path d="M268 1150 c-13 -42 -9 -50 20 -49 15 1 20 3 10 6 -10 3 -18 16 -20
36 -3 31 -3 31 -10 7z"/>
<path d="M415 1152 c-6 -4 -12 -17 -12 -29 -2 -20 3 -23 33 -23 29 0 34 3 34
24 0 29 -31 45 -55 28z m32 -28 c-3 -3 -12 -4 -19 -1 -8 3 -5 6 6 6 11 1 17
-2 13 -5z"/>
<path d="M310 1130 c0 -5 7 -10 15 -10 8 0 15 5 15 10 0 6 -7 10 -15 10 -8 0
-15 -4 -15 -10z"/>
<path d="M257 1041 c-7 -27 17 -60 33 -45 16 16 8 58 -11 62 -10 2 -19 -5 -22
-17z m33 -16 c0 -14 -4 -25 -10 -25 -5 0 -10 11 -10 25 0 14 5 25 10 25 6 0
10 -11 10 -25z"/>
<path d="M310 1050 c0 -5 7 -7 15 -4 8 4 15 2 15 -4 0 -5 -7 -15 -15 -22 -22
-18 -18 -30 8 -30 16 0 18 3 8 9 -9 6 -10 11 -2 15 19 12 13 46 -9 46 -11 0
-20 -4 -20 -10z"/>
<path d="M360 1020 c0 -5 5 -10 10 -10 6 0 10 5 10 10 0 6 -4 10 -10 10 -5 0
-10 -4 -10 -10z"/>
<path d="M320 546 c0 -8 4 -16 9 -18 4 -1 11 -14 15 -28 5 -17 4 -21 -2 -11
-7 9 -12 10 -16 2 -4 -6 -2 -11 3 -11 6 0 11 -18 11 -41 0 -36 -2 -40 -20 -34
-16 5 -20 2 -20 -16 0 -18 3 -20 12 -11 7 7 20 12 31 12 10 0 15 5 12 10 -3 6
3 10 14 10 12 0 21 5 21 10 0 6 9 10 20 10 11 0 20 5 20 10 0 6 7 10 15 10 8
0 15 4 15 9 0 5 -8 7 -18 4 -27 -7 -69 13 -75 37 -5 18 -3 19 10 8 14 -11 15
-11 11 2 -2 8 -14 16 -26 18 -12 2 -22 10 -22 18 0 8 -4 14 -10 14 -5 0 -10
-6 -10 -14z m71 -86 c24 0 25 -16 2 -24 -10 -3 -24 -9 -30 -12 -9 -4 -13 3
-13 19 0 26 12 45 18 28 2 -6 12 -11 23 -11z"/>
<path d="M426 514 c-3 -9 -4 -20 0 -25 7 -13 34 -11 34 2 0 5 -4 8 -9 5 -5 -4
-7 3 -4 14 6 24 -12 27 -21 4z"/>
<path d="M278 443 c7 -3 16 -2 19 1 4 3 -2 6 -13 5 -11 0 -14 -3 -6 -6z"/>
</g>
</svg>
