<svg xmlns="http://www.w3.org/2000/svg" viewBox="0 0 1024 1024" width="1024" height="1024">
  <style>
    .room { fill: #f5e6c8; stroke: #333; stroke-width: 2; }
    .label { font-family: Arial, sans-serif; font-size: 11px; fill: #222; text-anchor: middle; }
    .label-sm { font-family: Arial, sans-serif; font-size: 9px; fill: #222; text-anchor: middle; }
    .icon { fill: #222; font-size: 14px; text-anchor: middle; }
    .stair-box { fill: none; stroke: #333; stroke-width: 1.5; }
  </style>

  <rect width="1024" height="1024" fill="white"/>

  <!-- ===== TOP ROW - VL-127 cluster ===== -->
  <!-- VL-127-5 (leftmost top) -->
  <rect x="110" y="50" width="120" height="80" class="room"/>
  <text x="130" y="68" class="label-sm">🧳</text>
  <text x="170" y="85" class="label">VL-127-5</text>

  <!-- VL-127-4 -->
  <rect x="235" y="50" width="65" height="80" class="room"/>
  <text x="248" y="68" class="label-sm">🧳</text>
  <text x="267" y="85" class="label">VL-127-4</text>

  <!-- VL-127-3 -->
  <rect x="303" y="50" width="65" height="80" class="room"/>
  <text x="316" y="68" class="label-sm">🧳</text>
  <text x="335" y="85" class="label">VL-127-3</text>

  <!-- VL-127-2 -->
  <rect x="371" y="50" width="65" height="80" class="room"/>
  <text x="384" y="68" class="label-sm">🧳</text>
  <text x="403" y="85" class="label">VL-127-2</text>

  <!-- VL-121-2 -->
  <rect x="440" y="50" width="65" height="80" class="room"/>
  <text x="453" y="68" class="label-sm">🧳</text>
  <text x="472" y="85" class="label">VL-121-2</text>

  <!-- VL-121 (large top center-right) -->
  <rect x="510" y="50" width="180" height="80" class="room"/>
  <text x="600" y="95" class="label">VL-121</text>

  <!-- VL-121-3 -->
  <rect x="695" y="50" width="120" height="80" class="room"/>
  <text x="755" y="95" class="label">VL-121-3</text>

  <!-- VL-127-1 -->
  <rect x="395" y="130" width="55" height="45" class="room"/>
  <text x="422" y="157" class="label-sm">VL-127-1</text>

  <!-- VL-121-1 -->
  <rect x="455" y="130" width="55" height="45" class="room"/>
  <text x="482" y="157" class="label-sm">VL-121-1</text>

  <!-- ===== MID-LEFT section ===== -->

  <!-- VL-130 -->
  <rect x="175" y="185" width="120" height="65" class="room"/>
  <text x="235" y="222" class="label">VL-130</text>

  <!-- VL-128 -->
  <rect x="175" y="255" width="160" height="140" class="room"/>
  <text x="255" y="330" class="label">VL-128</text>

  <!-- VL-126 -->
  <rect x="340" y="185" width="180" height="215" class="room"/>
  <text x="430" y="295" class="label">VL-126</text>

  <!-- Stair icon near VL-126 right -->
  <rect x="524" y="285" width="38" height="38" class="stair-box"/>
  <line x1="524" y1="295" x2="562" y2="295" stroke="#333" stroke-width="1"/>
  <line x1="524" y1="305" x2="562" y2="305" stroke="#333" stroke-width="1"/>
  <line x1="524" y1="315" x2="562" y2="315" stroke="#333" stroke-width="1"/>

  <!-- VL-112 (WC men) -->
  <rect x="610" y="185" width="80" height="90" class="room"/>
  <text x="650" y="225" class="label">VL-112</text>
  <text x="650" y="255" class="icon">♂</text>

  <!-- VL-118 (WC women) -->
  <rect x="695" y="185" width="80" height="90" class="room"/>
  <text x="735" y="225" class="label">VL-118</text>
  <text x="735" y="255" class="icon">♀</text>

  <!-- VL-110 (WC women lower) -->
  <rect x="610" y="278" width="80" height="70" class="room"/>
  <text x="650" y="310" class="label">VL-110</text>
  <text x="650" y="332" class="icon">♀</text>

  <!-- VL-116 (WC men lower) -->
  <rect x="695" y="278" width="80" height="70" class="room"/>
  <text x="735" y="310" class="label">VL-116</text>
  <text x="735" y="332" class="icon">♂</text>

  <!-- VL-120 -->
  <rect x="780" y="278" width="50" height="40" class="room"/>
  <text x="805" y="302" class="label-sm">VL-120</text>

  <!-- VL-106-2 -->
  <rect x="780" y="320" width="50" height="35" class="room"/>
  <text x="805" y="342" class="label-sm">VL-106-2</text>

  <!-- VL-106-1 -->
  <rect x="780" y="358" width="50" height="35" class="room"/>
  <text x="805" y="380" class="label-sm">VL-106-1</text>

  <!-- ===== MID SECTION ===== -->

  <!-- VL-124 -->
  <rect x="175" y="400" width="90" height="70" class="room"/>
  <text x="220" y="440" class="label">VL-124</text>

  <!-- VL-122-1 -->
  <rect x="175" y="472" width="90" height="50" class="room"/>
  <text x="220" y="500" class="label-sm">VL-122-1</text>

  <!-- Stair icon -->
  <rect x="150" y="405" width="25" height="35" class="stair-box"/>
  <line x1="150" y1="413" x2="175" y2="413" stroke="#333" stroke-width="1"/>
  <line x1="150" y1="421" x2="175" y2="421" stroke="#333" stroke-width="1"/>
  <line x1="150" y1="429" x2="175" y2="429" stroke="#333" stroke-width="1"/>

  <!-- VL-122 (large) -->
  <rect x="270" y="400" width="310" height="140" class="room"/>
  <text x="425" y="475" class="label">VL-122</text>

  <!-- ===== LEFT COLUMN ===== -->

  <!-- VL-102-4 -->
  <rect x="80" y="540" width="70" height="55" class="room"/>
  <text x="90" y="558" class="label-sm">🧳</text>
  <text x="115" y="575" class="label-sm">VL-102-4</text>

  <!-- VL-102-3 -->
  <rect x="155" y="540" width="70" height="55" class="room"/>
  <text x="165" y="558" class="label-sm">🧳</text>
  <text x="190" y="575" class="label-sm">VL-102-3</text>

  <!-- VL-194-3 circle/special -->
  <rect x="228" y="540" width="55" height="55" class="room"/>
  <!-- Circle with crosshair -->
  <circle cx="255" cy="567" r="18" fill="none" stroke="#333" stroke-width="1.5"/>
  <line x1="255" y1="549" x2="255" y2="585" stroke="#333" stroke-width="1"/>
  <line x1="237" y1="567" x2="273" y2="567" stroke="#333" stroke-width="1"/>
  <text x="255" y="588" class="label-sm">VL-194-3</text>

  <!-- VL-102-2 -->
  <rect x="80" y="598" width="145" height="65" class="room"/>
  <text x="90" y="616" class="label-sm">🧳</text>
  <text x="152" y="635" class="label-sm">VL-102-2</text>

  <!-- VL-102 (large left) -->
  <rect x="30" y="668" width="90" height="80" class="room"/>
  <text x="30" y="686" class="label-sm">🧳</text>
  <text x="75" y="712" class="label">VL-102</text>
  <!-- WC icons -->
  <text x="48" y="735" class="label-sm">🧳♂♀</text>

  <!-- VL-101-7 -->
  <rect x="30" y="752" width="90" height="50" class="room"/>
  <text x="40" y="770" class="label-sm">🧳</text>
  <text x="75" y="785" class="label-sm">VL-101-7</text>

  <!-- VL-101-6 -->
  <rect x="30" y="805" width="90" height="50" class="room"/>
  <text x="40" y="823" class="label-sm">🧳</text>
  <text x="75" y="838" class="label-sm">VL-101-6</text>

  <!-- VL-101-5 -->
  <rect x="30" y="858" width="90" height="40" class="room"/>
  <text x="75" y="882" class="label-sm">VL-101-5</text>

  <!-- ===== BOTTOM CENTER ===== -->

  <!-- VL-101-3 -->
  <rect x="310" y="870" width="90" height="65" class="room"/>
  <text x="320" y="888" class="label-sm">🧳</text>
  <text x="355" y="915" class="label-sm">VL-101-3</text>

  <!-- VL-101-4 -->
  <rect x="310" y="938" width="90" height="55" class="room"/>
  <text x="320" y="956" class="label-sm">🧳</text>
  <text x="355" y="975" class="label-sm">VL-101-4</text>

  <!-- ===== BOTTOM RIGHT area ===== -->

  <!-- VL-101-1 -->
  <rect x="560" y="668" width="80" height="65" class="room"/>
  <text x="570" y="686" class="label-sm">🧳</text>
  <text x="600" y="718" class="label-sm">VL-101-1</text>

  <!-- VL-104 -->
  <rect x="605" y="668" width="130" height="120" class="room"/>
  <text x="670" y="732" class="label">VL-104</text>

  <!-- VL-103-1 -->
  <rect x="740" y="668" width="80" height="80" class="room"/>
  <text x="780" y="712" class="label-sm">VL-103-1</text>

  <!-- VL-101-2 -->
  <rect x="560" y="738" width="80" height="65" class="room"/>
  <text x="570" y="756" class="label-sm">🧳</text>
  <text x="600" y="783" class="label-sm">VL-101-2</text>

  <!-- VL-104-1 -->
  <rect x="605" y="793" width="130" height="60" class="room"/>
  <text x="670" y="828" class="label-sm">VL-104-1</text>

  <!-- VL-197-1 stair zone -->
  <rect x="830" y="580" width="80" height="90" class="room"/>
  <!-- Stair -->
  <rect x="832" y="582" width="35" height="35" class="stair-box"/>
  <line x1="832" y1="591" x2="867" y2="591" stroke="#333" stroke-width="1"/>
  <line x1="832" y1="600" x2="867" y2="600" stroke="#333" stroke-width="1"/>
  <line x1="832" y1="609" x2="867" y2="609" stroke="#333" stroke-width="1"/>
  <text x="870" y="640" class="label-sm">VL-197-1</text>

  <!-- VL-140 -->
  <rect x="825" y="690" width="120" height="100" class="room"/>
  <text x="885" y="745" class="label">VL-140</text>

  <!-- Curved lines (open space indicator) -->
  <path d="M 500 560 Q 560 590 500 620" fill="none" stroke="#333" stroke-width="2"/>
  <path d="M 540 560 Q 600 590 540 620" fill="none" stroke="#333" stroke-width="2"/>

  <!-- Outer boundary rough -->
  <polygon points="110,50 820,50 820,180 970,180 970,800 820,800 820,870 730,870 730,400 585,400 585,180 510,180 510,50"
    fill="none" stroke="#333" stroke-width="3"/>
  <polygon points="30,668 80,668 80,540 285,540 285,400 175,400 175,180 110,180 110,50"
    fill="none" stroke="#333" stroke-width="3"/>
</svg>
